<?xml version="1.0" standalone="no"?>
<!DOCTYPE svg PUBLIC "-//W3C//DTD SVG 1.1//EN" "http://www.w3.org/Graphics/SVG/1.1/DTD/svg11.dtd" >
<svg xmlns="http://www.w3.org/2000/svg">
<metadata></metadata>
<defs>
<font id="neucharegular" horiz-adv-x="1000" >
<font-face units-per-em="2048" ascent="1638" descent="-410" />
<missing-glyph horiz-adv-x="572" />
<glyph horiz-adv-x="0" />
<glyph unicode="&#xd;" horiz-adv-x="572" />
<glyph unicode=" "  horiz-adv-x="572" />
<glyph unicode="&#x09;" horiz-adv-x="572" />
<glyph unicode="&#xa0;" horiz-adv-x="572" />
<glyph unicode="!" horiz-adv-x="372" d="M82 1412q8 78 70 78q40 0 74 -34t36 -84q-6 -108 -14 -470t-24 -558l-90 20q-10 132 -52 1048zM92 134q0 44 19 71t53 27q54 0 90 -47t36 -107q0 -44 -21 -71t-57 -27q-56 0 -88 46t-32 108z" />
<glyph unicode="&#x22;" horiz-adv-x="532" d="M40 1398q4 40 24 60t46 20q40 0 75 -34t37 -84l-46 -306l-90 22zM312 1398q8 80 68 80q40 0 75 -34t37 -84l-46 -306l-90 22z" />
<glyph unicode="#" horiz-adv-x="1244" d="M0 576l272 12l80 282h-186q-42 8 -71 41t-29 69q0 52 60 70q134 -14 274 -24q102 342 128 408h124q-64 -170 -134 -416q108 -8 344 -20q106 356 140 442h122q-50 -122 -140 -448l240 -18l22 -90q-96 -8 -296 -16l-68 -254l128 6q50 -2 84 -36t34 -74q0 -26 -20 -46 t-60 -24q-132 4 -206 8q-82 -316 -118 -432q-26 -10 -74 -10h-70q6 18 23 76t49 174t56 198l-334 14q-20 -74 -48 -182t-45 -174t-29 -102q-26 -10 -76 -10h-70q12 34 136 476l-222 10zM406 594l346 14l72 258q-116 -2 -346 -2z" />
<glyph unicode="$" horiz-adv-x="956" d="M40 1158q0 142 102 260t246 118q28 0 42 -2q0 22 -1 63t-1 61l90 -20l10 -118q132 -26 332 -116l-24 -80q-176 56 -298 72q24 -372 32 -558q158 -60 252 -206t94 -304q0 -144 -91 -239t-235 -99q0 -14 1 -40t1 -40q-18 -62 -70 -62q-36 0 -69 29t-41 71q0 18 4 54 q-244 34 -340 112l28 112q162 -86 318 -92q10 222 14 582q-190 52 -293 175t-103 267zM222 1180q0 -88 55 -170t161 -130q0 184 -4 520q-88 0 -150 -64t-62 -156zM588 152q72 28 111 70t39 116q0 82 -42 172t-108 146v-504z" />
<glyph unicode="%" horiz-adv-x="1348" d="M0 1248q0 128 102 237t232 109q118 0 214 -99t96 -223q0 -136 -88 -240t-222 -104q-130 0 -232 91t-102 229zM122 1256q0 -80 63 -137t147 -57q80 0 137 61t57 147q0 72 -59 132t-135 60q-78 0 -144 -63t-66 -143zM152 74q0 22 12 46q96 120 445 652t481 774l106 -72 q-40 -90 -433 -719t-443 -751q-28 -34 -70 -34q-40 0 -69 31t-29 73zM706 270q0 128 102 237t232 109q118 0 214 -99t96 -223q0 -136 -88 -240t-222 -104q-130 0 -232 91t-102 229zM830 278q0 -80 62 -136t146 -56q80 0 137 60t57 146q0 74 -59 134t-135 60q-78 0 -143 -64 t-65 -144z" />
<glyph unicode="&#x26;" horiz-adv-x="1140" d="M40 414q0 110 46 205t134 147q-148 114 -148 270q0 150 125 252t293 102q126 0 200 -30l-30 -76q-50 8 -120 8q-132 0 -225 -60t-93 -188q0 -264 438 -264q40 0 117 3t115 3q-14 120 -16 284l100 -8q6 -38 26 -268q2 0 40 2t56 2t18 -2q24 -48 24 -122v-12h-124 q6 -50 6 -102q0 -230 -124 -382t-374 -178q-50 0 -104 9t-121 38t-119 72t-92 120t-48 175zM210 428q0 -108 95 -192t215 -94q158 0 268 143t110 301q0 38 -10 74l-508 22q-170 -128 -170 -254z" />
<glyph unicode="'" horiz-adv-x="262" d="M40 1398q4 40 24 60t46 20q40 0 75 -34t37 -84l-46 -306l-90 22z" />
<glyph unicode="(" horiz-adv-x="402" d="M82 684q0 288 148 840l88 -26q-110 -510 -110 -778q0 -98 14 -201t30 -177t51 -220t59 -254q-2 -92 -62 -92q-24 0 -50 18t-38 50q-8 34 -29 132t-31 143t-26 133t-24 147t-14 137t-6 148z" />
<glyph unicode=")" horiz-adv-x="402" d="M40 -132q24 108 59 254t51 220t30 177t14 201q0 276 -108 778l88 26q148 -552 148 -840q0 -58 -3 -116t-13 -128l-16 -112t-23 -128t-23 -112t-28 -128t-26 -116q-28 -68 -86 -68q-26 0 -44 23t-20 69z" />
<glyph unicode="*" horiz-adv-x="728" d="M0 1018q100 48 188 128q-22 2 -89 17t-79 17l-20 90q2 0 10 1t12 1q30 0 112 -8t108 -8q-18 20 -86 85t-92 97l62 52l204 -192q0 42 -6 114t-6 102q0 28 2 40l90 -20q0 -34 -8 -99t-8 -97q20 20 64 69t83 89t69 60l58 -78q-16 -16 -101 -100t-119 -122q30 2 115 15 t111 15q18 -32 29 -63t18 -64t9 -43q-32 2 -133 19t-131 19q34 -30 129 -104t127 -102q-22 -18 -39 -31t-26 -18t-31 -16t-38 -21q-28 30 -88 118t-88 118q0 -14 16 -118t18 -118h-14q-78 2 -154 16l16 248q-16 -20 -77 -129t-101 -135q-28 12 -42 29t-34 56t-40 71z" />
<glyph unicode="+" horiz-adv-x="908" d="M0 708l350 20q-2 54 -2 160q0 140 8 254l90 -20q4 -42 19 -196t19 -190l306 18q50 -2 85 -36t35 -74q0 -26 -20 -46t-60 -24q-88 4 -332 20q4 -44 18 -166t20 -204q-18 -62 -70 -62q-36 0 -69 29t-41 71q2 52 2 152q0 22 -4 186l-334 18z" />
<glyph unicode="," horiz-adv-x="334" d="M40 -176q144 50 144 136q0 14 -8 46q-28 -4 -38 -4q-38 0 -60 51t-22 99q0 44 18 71t52 27q76 0 122 -88t46 -176q0 -94 -62 -157t-188 -69z" />
<glyph unicode="-" horiz-adv-x="866" d="M40 686l666 46q50 -2 85 -37t35 -75q0 -26 -20 -46t-60 -24l-684 46z" />
<glyph unicode="." horiz-adv-x="280" d="M40 152q0 44 19 71t53 27q54 0 91 -47t37 -107q0 -44 -21 -71t-57 -27q-56 0 -89 46t-33 108z" />
<glyph unicode="/" horiz-adv-x="918" d="M0 -104q0 88 183 464t394 790t253 542l90 -34q-76 -260 -375 -915t-377 -917q-28 -34 -70 -34q-40 0 -69 31t-29 73z" />
<glyph unicode="0" horiz-adv-x="1036" d="M82 666q2 432 112 623t334 203q98 0 174 -54t121 -137t75 -198t41 -218t15 -219q0 -158 -47 -323t-144 -288t-217 -123q-464 0 -464 734zM244 652q0 -92 10 -175t37 -173t85 -146t140 -64q124 0 205 172t81 348q0 716 -302 724q-48 -10 -86 -32t-63 -50t-43 -74t-27 -85 t-16 -101t-9 -107t-5 -118t-7 -119z" />
<glyph unicode="1" horiz-adv-x="722" d="M0 1232q32 26 110 91t140 118t96 87q32 -4 66 -5t66 -5q12 -232 12 -850q0 -368 6 -528q18 -2 87 -15t107 -17l32 -106h-174h-197t-192 1t-67 3v106q48 6 119 20t111 20q6 144 6 290q0 92 -2 277t-2 279q0 222 6 336q-182 -104 -266 -168z" />
<glyph unicode="2" horiz-adv-x="810" d="M0 120q38 66 126 159t176 182t173 195t139 237t54 269q0 88 -62 143t-150 55q-102 0 -189 -83t-121 -253l-90 32q8 194 127 302t275 108q140 0 240 -88t100 -246q0 -130 -40 -253t-116 -231t-142 -185t-165 -178t-139 -145q68 -4 116 -4q50 0 156 3t158 3q48 0 124 -4 l62 -132q-150 -4 -470 -5t-340 -1q0 16 -1 56t-1 64z" />
<glyph unicode="3" horiz-adv-x="826" d="M0 64l16 92q16 -2 91 -18t134 -24t105 -8q114 0 179 86t65 200q0 156 -107 269t-309 113q-32 0 -48 -2v98q18 -2 56 -2q182 0 297 64t115 204q0 106 -60 170t-156 64q-44 0 -95 -5t-111 -13t-76 -10l-32 90q24 6 78 22t85 24t79 15t90 7q154 0 244 -107t90 -293 q0 -118 -57 -194t-173 -94q120 -48 183 -157t63 -257q0 -170 -80 -291t-242 -121q-234 0 -424 78z" />
<glyph unicode="4" horiz-adv-x="880" d="M0 468q4 48 4 66q0 12 -1 39t-1 41q334 562 540 834q62 0 170 -26q-4 -94 -11 -407t-13 -423q88 -4 132 -10l20 -90q-104 -12 -148 -16q4 -92 11 -232t9 -230q-18 -62 -68 -62q-36 0 -70 30t-42 72q2 62 14 408q-64 -4 -102 -4q-60 0 -185 7t-183 7q-28 0 -76 -4z M148 608l402 -12q6 114 12 338t10 338q-82 -84 -237 -351t-187 -313z" />
<glyph unicode="5" horiz-adv-x="874" d="M0 80q2 2 31 64t57 62q14 0 26 -10q138 -104 260 -104q124 0 204 98t80 220q0 114 -75 194t-219 80q-52 0 -98 -8q-40 22 -88 44t-80 38q46 180 76 360t80 322q70 -6 258 -6t282 -14l22 -90q-98 -18 -224 -18q-188 0 -240 -6q-30 -230 -78 -488q58 12 112 12 q176 0 312 -139t136 -321q0 -172 -134 -294t-330 -122q-190 0 -370 126z" />
<glyph unicode="6" horiz-adv-x="916" d="M82 354q0 116 5 202t22 189t47 179t83 159t127 146t181 120t245 99l34 -90q-468 -200 -556 -536q80 52 162 52q172 0 288 -155t116 -395q0 -172 -105 -274t-267 -102q-152 0 -267 111t-115 295zM226 412q0 -166 62 -249t154 -83q98 0 170 66t72 182q0 176 -80 294 t-194 118q-52 0 -88 -19t-54 -43t-28 -75t-12 -86t-2 -105z" />
<glyph unicode="7" horiz-adv-x="796" d="M-20 1472q140 16 424 17t392 9l-10 -174l-538 -1340l-156 46l540 1324q-466 14 -632 28z" />
<glyph unicode="8" horiz-adv-x="1012" d="M82 410q0 156 64 274t176 136q-114 2 -172 84t-58 204q0 188 103 296t293 108q200 0 314 -100t114 -308q0 -122 -58 -204t-172 -84q116 -18 181 -138t65 -276q0 -218 -106 -323t-324 -105q-420 0 -420 436zM242 422q0 -120 80 -212t202 -92q112 0 186 87t74 207t-82 207 t-220 89q-120 -36 -180 -113t-60 -173zM250 1134q0 -104 67 -180t179 -76q130 2 198 71t68 167t-65 182t-173 104q-134 -10 -204 -88t-70 -180z" />
<glyph unicode="9" horiz-adv-x="896" d="M62 1086q0 172 104 273t266 101q154 0 269 -111t115 -295q0 -116 -5 -202t-22 -188t-47 -179t-83 -160t-127 -145t-182 -119t-246 -99l-32 90q466 198 554 536q-84 -54 -162 -54q-172 0 -287 155t-115 397zM212 1082q0 -176 80 -294t196 -118q52 0 88 19t54 43t28 75 t12 86t2 105q0 166 -63 249t-155 83q-98 0 -170 -66t-72 -182z" />
<glyph unicode=":" horiz-adv-x="280" d="M40 146q0 44 19 71t53 27q54 0 91 -47t37 -107q0 -44 -21 -71t-57 -27q-56 0 -89 48t-33 106zM40 916q0 44 19 71t53 27q54 0 91 -47t37 -107q0 -44 -21 -71t-57 -27q-56 0 -89 46t-33 108z" />
<glyph unicode=";" horiz-adv-x="334" d="M40 -182q74 24 109 56t35 78q0 16 -8 48q-120 0 -120 146q0 44 18 71t52 27q76 0 122 -88t46 -176q0 -94 -62 -157t-188 -69zM56 916q0 44 18 71t52 27q54 0 91 -47t37 -107q0 -44 -21 -71t-57 -27q-56 0 -88 46t-32 108z" />
<glyph unicode="&#x3c;" horiz-adv-x="1214" d="M0 504q0 80 16 152q236 70 598 230t570 226l30 -114q-110 -46 -461 -217t-553 -235q112 -86 498 -239t498 -183l6 -128q-286 94 -417 141t-354 146t-431 221z" />
<glyph unicode="=" horiz-adv-x="1218" d="M40 480q200 16 1018 54q50 -2 85 -36t35 -74q0 -26 -20 -46t-60 -24q-122 6 -481 14t-555 22zM72 1026q188 14 532 23t454 15q50 -2 85 -36t35 -74q0 -26 -20 -46t-60 -24q-870 42 -1006 52z" />
<glyph unicode="&#x3e;" horiz-adv-x="1214" d="M0 998l30 114q208 -66 570 -226t598 -230q16 -72 16 -152q-208 -122 -431 -221t-354 -146t-417 -141l6 128q112 30 498 183t498 239q-202 64 -553 235t-461 217z" />
<glyph unicode="?" horiz-adv-x="772" d="M0 1202q0 122 93 188t229 66q202 0 326 -117t124 -321q0 -86 -34 -151t-83 -107t-99 -85t-88 -110t-44 -155q-18 -62 -70 -62q-38 0 -70 34t-40 94q0 84 40 150t98 111t115 90t97 113t40 154q0 108 -96 173t-214 65q-94 0 -159 -48t-65 -138q0 -54 22 -114l-90 20 q-32 82 -32 150zM248 144q0 44 19 71t53 27q54 0 90 -47t36 -107q0 -44 -21 -71t-57 -27q-56 0 -88 46t-32 108z" />
<glyph unicode="@" horiz-adv-x="1604" d="M40 704q0 358 214 606t524 248q112 0 220 -38t202 -112t153 -201t65 -289q4 -160 -34 -280t-103 -183t-134 -93t-139 -30q-122 0 -218 76q-62 -58 -142 -58q-112 0 -193 101t-81 217q0 126 75 229t179 103q112 0 167 -81t55 -203q0 -48 -6 -120l-6 -72q70 -86 152 -86 q116 0 214 142t98 282q0 222 -140 378t-372 156q-240 0 -426 -208t-186 -522q0 -270 181 -424t453 -154q306 0 590 186q28 16 58 16q42 0 73 -26t31 -66q0 -78 -164 -150t-328 -108t-226 -36q-342 0 -574 213t-232 587zM476 690q0 -86 57 -161t123 -75q100 0 100 140 q0 104 -33 187t-107 83q-58 0 -99 -56t-41 -118z" />
<glyph unicode="A" horiz-adv-x="1076" d="M0 76q64 234 232 688t234 686l152 -10q56 -248 230 -701t230 -677q0 -58 -20 -87t-50 -29q-26 0 -49 21t-31 59q-18 88 -116 352q-412 52 -518 64q-26 -72 -64 -234t-60 -224q-30 -36 -68 -36q-42 0 -72 37t-30 91zM314 538h224q152 0 254 -10q-206 442 -256 720 q-40 -242 -222 -710z" />
<glyph unicode="B" horiz-adv-x="994" d="M82 52l10 1408q22 74 172 74q138 0 254 -37t195 -124t79 -209q0 -96 -47 -186t-115 -116q128 -18 206 -154t78 -322q0 -126 -100 -219t-233 -134t-269 -41q-166 0 -230 60zM236 1392q4 -122 5 -302t1 -190l124 2q128 0 197 75t69 179q0 106 -70 183t-194 77 q-56 0 -132 -24zM242 198q60 -68 154 -68q124 0 240 103t116 221q0 146 -98 228t-252 82q-102 0 -156 -12q0 -138 -4 -554z" />
<glyph unicode="C" horiz-adv-x="1080" d="M82 684q0 130 20 253t68 247t145 200t231 76q116 0 240 -40t212 -100l-80 -92q-156 116 -308 116q-100 0 -172 -48t-109 -116t-58 -172t-26 -180t-5 -178q0 -100 37 -227t125 -237t204 -110q126 0 386 132q26 -38 68 -126q-252 -174 -450 -174q-128 0 -234 78t-167 198 t-94 251t-33 249z" />
<glyph unicode="D" horiz-adv-x="1096" d="M82 12l6 1444q444 -4 686 -227t242 -653q0 -138 -72 -252t-185 -182t-244 -105t-259 -37q-80 0 -174 12zM220 1332q0 -120 12 -1198h34q114 0 220 27t196 81t144 149t54 219q0 168 -101 341t-244 280t-265 107q-26 0 -50 -6z" />
<glyph unicode="E" horiz-adv-x="936" d="M82 0q20 220 24 736t26 720q68 -6 361 -10t383 -18l22 -90q-90 -16 -360 -38t-284 -24q2 -46 9 -188t9 -234q68 -8 248 -23l228 -19l20 -92q-422 -38 -494 -40q0 -88 -3 -267t-3 -263q458 -42 576 -60l20 -90q-78 0 -283 -7t-297 -7q-148 0 -202 14z" />
<glyph unicode="F" horiz-adv-x="916" d="M82 0q20 220 24 736t26 720q68 -6 361 -10t383 -18l22 -90q-90 -16 -360 -38t-284 -24q2 -46 9 -188t9 -234q68 -8 248 -23l228 -19l20 -92q-422 -38 -494 -40v-34q0 -76 -5 -315t-5 -313v-30z" />
<glyph unicode="G" horiz-adv-x="1168" d="M82 684q0 130 20 253t68 247t145 200t231 76q116 0 240 -40t212 -100l-80 -92q-156 116 -308 116q-100 0 -172 -48t-109 -116t-58 -172t-26 -180t-5 -178q0 -244 90 -399t234 -155q62 0 121 20t101 48t76 58t51 50t17 24v128l-194 36l-22 90q40 6 188 19t186 21v-636 l-156 -32q-2 20 -2 95t-2 97q0 -4 -14 -23t-44 -47t-70 -54t-102 -44t-130 -18q-486 0 -486 756z" />
<glyph unicode="H" horiz-adv-x="960" d="M82 56q6 172 11 668t19 738l90 -20q0 -6 1 -19t1 -21q26 -492 30 -616q68 6 145 13t170 16t145 13q2 0 2 20t1 162t1 428l116 24q36 -282 45 -783t19 -663q-18 -62 -70 -62q-36 0 -69 30t-41 72q2 72 2 240v394q-44 -2 -123 -9t-144 -11t-123 -4q-52 0 -76 2 q4 -122 14 -345t14 -307q-18 -62 -70 -62q-36 0 -69 30t-41 72z" />
<glyph unicode="I" horiz-adv-x="674" d="M40 1422q82 -2 254 -2q176 0 262 -2l6 -100q-34 -14 -96 -17t-78 -5q6 -56 7 -282t1 -500t4 -390q32 -6 122 -14t112 -12l-4 -104q-60 2 -190 2q-68 0 -202 -1t-190 -1l-4 98q184 30 228 32q2 68 2 204q0 180 -8 519t-10 449l-202 10z" />
<glyph unicode="J" horiz-adv-x="778" d="M0 196l102 52q116 -156 264 -156q112 0 147 80t35 262q0 132 -4 412t-4 440q0 108 2 164q14 -6 38 -6q8 0 23 1t25 1q34 0 60 -12q-4 -136 -4 -208q0 -114 6 -367t6 -393q0 -90 -1 -136t-5 -109t-13 -92t-26 -69t-41 -55t-61 -33t-85 -23t-112 -5q-246 0 -352 252z" />
<glyph unicode="K" horiz-adv-x="918" d="M82 68q6 160 10 664t18 744l90 -20q6 -100 14 -347t12 -329q34 42 127 155t128 154t102 119t123 136t120 118l60 -98q-72 -120 -558 -680q70 -74 289 -344t303 -354h-176q-66 62 -140 142t-121 136t-130 159t-117 145l26 -540q-18 -60 -70 -60q-36 0 -69 29t-41 71z" />
<glyph unicode="L" horiz-adv-x="972" d="M82 4q10 296 11 792t3 638l120 -12q30 -306 58 -1260q134 8 340 8t330 6q12 -34 17 -96t11 -92q-262 16 -668 16h-222z" />
<glyph unicode="M" horiz-adv-x="1472" d="M0 12q28 218 138 686t130 724q36 4 58 4q20 0 148 -16q28 -4 81 -181t107 -389t68 -250q56 138 135 448t111 394q32 -2 202 -18q52 -202 101 -436t106 -532t87 -446l-152 -14q-110 690 -238 1182q-66 -156 -145 -439t-109 -367q-4 0 -13 -1t-15 -1q-28 0 -92 6t-82 6 q-2 58 -102 387t-120 421q-36 -324 -280 -1180z" />
<glyph unicode="N" horiz-adv-x="1124" d="M82 56l26 1384h108l654 -1242v158q0 604 22 1086l114 -22q22 -434 36 -1430q-42 -18 -88 -18q-68 0 -142 40q-122 188 -303 550t-257 496q2 -136 3 -496t7 -546q-18 -62 -70 -62q-36 0 -69 30t-41 72z" />
<glyph unicode="O" horiz-adv-x="1072" d="M84 670v103t3 107t8 114t15 109t26 108t37 93t53 84t70 61t90 43t114 14q124 0 216 -49t144 -123t83 -182t40 -206t9 -216q0 -80 -3 -144t-12 -145t-26 -143t-47 -125t-71 -104t-103 -67t-138 -26q-124 0 -213 30t-146 84t-90 142t-46 192t-13 246zM236 764q0 -82 1 -125 t7 -122t17 -125t35 -106t57 -93t86 -58t119 -27q146 8 218 164t72 382q0 98 -15 204t-50 228t-111 199t-182 77q-80 0 -141 -107t-87 -240t-26 -251z" />
<glyph unicode="P" horiz-adv-x="1050" d="M82 30q6 168 13 654t19 752l90 24q0 -64 2 -72q114 76 320 76q222 0 332 -139t110 -389q0 -222 -108 -368t-326 -146q-36 0 -288 24q4 -146 16 -454q-18 -62 -70 -62q-36 0 -69 29t-41 71zM224 1254l16 -624q110 -60 254 -60q138 0 234 104t96 254q0 162 -100 292 t-250 130q-122 0 -250 -96z" />
<glyph unicode="Q" horiz-adv-x="1080" d="M82 584q0 420 90 674q90 248 342 248q486 -74 486 -766q0 -82 -1 -132t-8 -140t-19 -148t-37 -129t-60 -113t-90 -72t-125 -30q-2 -10 -2 -28q0 -74 68 -126t128 -52l20 -90q-20 -2 -56 -2q-140 0 -218 79t-110 229q-408 70 -408 598zM250 764q0 -96 3 -165t19 -167 t44 -161t84 -111t134 -52q116 0 189 82t99 198t26 266q0 78 -6 156t-28 178t-58 175t-101 127t-151 52q-60 0 -106 -26t-73 -78t-43 -101t-23 -129t-8 -124t-1 -120z" />
<glyph unicode="R" horiz-adv-x="1062" d="M82 30q6 168 13 654t19 752l90 24q0 -64 2 -72q114 76 320 76q222 0 332 -139t110 -389q0 -92 -22 -177t-65 -159t-119 -122t-174 -56q70 -146 188 -284t234 -170l32 -82q-90 2 -188 58t-183 141t-152 172t-115 171l-158 18q4 -146 16 -454q-18 -62 -70 -62q-36 0 -69 29 t-41 71zM224 1254l16 -624q110 -60 254 -60q138 0 234 104t96 254q0 162 -100 292t-250 130q-122 0 -250 -96z" />
<glyph unicode="S" horiz-adv-x="914" d="M20 1160q0 142 102 259t246 117q110 0 245 -44t227 -88l-24 -80q-228 78 -384 78q-96 0 -164 -62t-68 -160q0 -74 38 -134t99 -104t136 -86t149 -90t135 -104t99 -141t38 -191q0 -150 -96 -245t-250 -95q-132 0 -281 37t-211 87l28 112q174 -94 342 -94q120 0 205 49 t85 159q0 98 -72 179t-174 143t-204 127t-174 160t-72 211z" />
<glyph unicode="T" horiz-adv-x="882" d="M0 1432l764 44q50 -2 84 -36t34 -74q0 -26 -20 -46t-60 -24l-336 18q50 -706 74 -1284q-18 -60 -68 -60q-36 0 -70 29t-42 71q4 108 4 328q0 82 -1 246t-1 246q0 238 8 430q-226 16 -350 22z" />
<glyph unicode="U" horiz-adv-x="1074" d="M82 890q0 144 12 580l110 -24q4 -184 22 -525t24 -485q2 -68 6 -108t19 -92t41 -80t74 -48t118 -20t121 9t84 33t54 48t33 71t17 82t11 103q14 172 16 556t6 494l118 -10q26 -368 26 -622q0 -184 -10 -420q-4 -100 -16 -169t-42 -135t-81 -105t-133 -62t-198 -23 q-84 0 -148 15t-107 39t-73 63t-47 81t-26 100t-13 110t-8 122v8q-10 244 -10 414z" />
<glyph unicode="V" horiz-adv-x="858" d="M0 1440h114q80 -368 288 -1180q308 1124 336 1180l120 -6q-2 -4 -156 -646t-210 -786q-20 -4 -40 -4q-56 0 -126 14q-30 90 -69 246t-81 346t-73 337t-65 315t-38 184z" />
<glyph unicode="W" horiz-adv-x="1366" d="M0 1440h114q80 -368 288 -1180q30 108 102 376t96 354q-28 128 -92 450h114q80 -368 288 -1180q308 1124 336 1180l120 -6q-2 -4 -156 -646t-210 -786q-20 -4 -40 -4q-56 0 -126 14q-54 160 -164 648q-124 -510 -178 -658q-20 -4 -40 -4q-56 0 -126 14q-30 90 -69 246 t-81 346t-73 337t-65 315t-38 184z" />
<glyph unicode="X" horiz-adv-x="1116" d="M0 26q52 122 119 239t184 296t145 223q-50 78 -205 301t-231 349l84 38q170 -198 426 -570q10 38 175 266t189 270q30 50 72 50q40 0 72 -35t34 -81q-12 -14 -207 -286t-243 -328q68 -106 260 -367t242 -347q0 -38 -19 -58t-49 -20q-68 0 -104 66l-410 612 q-62 -100 -218 -320t-230 -342z" />
<glyph unicode="Y" horiz-adv-x="844" d="M-40 1438l134 10l316 -680q36 64 165 318t201 360l110 -34q-18 -34 -89 -191t-155 -323t-164 -292q8 -98 10 -304t8 -296q-18 -4 -92 -4q-70 0 -84 4q6 86 9 295t11 305q-100 166 -223 464t-157 368z" />
<glyph unicode="Z" horiz-adv-x="890" d="M0 1324v108h60q12 0 830 14v-158l-626 -1142q88 -6 294 -14t292 -12l4 -122q-116 -4 -180 -4q-88 0 -261 4t-253 4q-60 0 -152 -4l12 108q6 56 137 279t321 525t236 382q-72 4 -221 8t-272 10t-221 14z" />
<glyph unicode="[" horiz-adv-x="556" d="M82 1630q40 -6 192 -8t200 -16l20 -90q-168 -42 -296 -42q4 -96 31 -691t33 -835q24 -4 134 -9t148 -15l14 -92q-28 2 -82 2q-62 0 -177 -6t-169 -8z" />
<glyph unicode="\" horiz-adv-x="1026" d="M0 1648l162 -16q188 -422 282 -631t277 -590t305 -589q-36 -18 -96 -18q-70 0 -80 18q-146 218 -423 811t-427 1015z" />
<glyph unicode="]" horiz-adv-x="556" d="M0 -168l12 92q38 10 148 15t134 9q6 240 33 835t31 691q-126 0 -294 42l20 90q48 14 200 16t192 8l-48 -1810q-54 2 -169 8t-177 6q-54 0 -82 -2z" />
<glyph unicode="^" horiz-adv-x="904" d="M0 758q56 122 172 329t198 335q8 14 40 27t64 13q56 0 72 -50q34 -104 93 -226t146 -281t121 -227l-132 2q-46 52 -168 281t-160 283q-40 -84 -167 -279t-193 -253z" />
<glyph unicode="_" horiz-adv-x="1132" d="M0 120q338 28 1014 64q50 -2 84 -36t34 -74q0 -26 -20 -46t-60 -24q-138 6 -489 10t-543 16z" />
<glyph unicode="`" d="M322 1532l160 -18l160 -306l-30 -10q-26 -10 -48 -11t-38 8t-29 20t-24 31t-19 36l-20 40l-20 40z" />
<glyph unicode="a" horiz-adv-x="822" d="M40 244q0 186 145 336t329 150q8 0 16 -1t19 -3t17 -2q-16 234 -186 234q-100 0 -226 -94l-40 102q52 52 132 83t158 31q338 0 338 -584q0 -80 -9 -236t-9 -234q-16 -62 -62 -62q-36 0 -66 36t-30 80q0 14 2 20q-124 -120 -264 -120q-106 0 -185 77t-79 187zM180 260 q0 -64 39 -102t95 -38q88 0 258 118q4 140 4 212q0 60 -4 168h-16q-142 -2 -259 -106t-117 -252z" />
<glyph unicode="b" horiz-adv-x="908" d="M82 1520q56 28 152 46q-2 -46 -2 -144q0 -216 16 -428q96 54 204 54q112 0 190 -53t116 -145t54 -186t16 -204q0 -120 -37 -231t-128 -194t-221 -83q-112 0 -222 70q-2 -20 -2 -60l-112 -22zM236 154q12 -36 75 -57t137 -21q70 0 117 27t71 78t33 107t9 128q0 74 -8 145 t-32 156t-78 137t-134 52q-58 0 -109 -29t-75 -79z" />
<glyph unicode="c" horiz-adv-x="800" d="M82 410q0 140 19 245t67 196t139 139t223 48q148 0 226 -46l-10 -86q-84 12 -144 12q-138 0 -228 -83t-123 -196t-33 -251q0 -64 8 -114t29 -98t66 -75t111 -27q88 0 224 34q42 16 66 16q48 0 58 -112q-176 -56 -326 -56q-218 0 -295 107t-77 347z" />
<glyph unicode="d" horiz-adv-x="908" d="M82 472q0 102 15 192t52 185t116 151t191 56q110 0 206 -54q16 212 16 428q0 98 -2 144q96 -18 152 -46l-26 -1580l-110 22q0 40 -2 60q-106 -68 -224 -68q-182 0 -283 156t-101 354zM232 424q0 -340 228 -340q76 0 139 21t75 57l-6 644q-24 50 -75 79t-109 29 q-78 0 -133 -50t-78 -133t-32 -155t-9 -152z" />
<glyph unicode="e" horiz-adv-x="906" d="M82 546q0 500 452 500q108 0 190 -69t82 -179q0 -60 -33 -106t-80 -73t-120 -49t-129 -32t-134 -22t-108 -18q2 -58 7 -102t20 -95t40 -84t69 -55t104 -22q72 0 176 13t185 27t85 14l20 -88q-88 -32 -261 -71t-257 -39q-86 0 -150 57t-96 146t-47 176t-15 171zM210 622 q272 78 446 164q-14 66 -38 96t-72 30q-122 0 -221 -84t-115 -206z" />
<glyph unicode="f" horiz-adv-x="668" d="M40 884q20 -4 76 -10t76 -8q6 64 6 182q0 228 38 312t182 84q154 0 252 -58l-12 -72q-26 0 -81 5t-83 5q-82 0 -124 -36t-42 -138q0 -32 1 -69t1 -47q0 -74 -2 -162q32 0 89 -2t83 -2q50 0 98 6l18 -92q-42 -6 -140 -14t-146 -16q0 -514 12 -746q-24 -78 -80 -78 q-26 0 -49 22t-31 56q0 60 7 326t7 412l-152 6q-4 40 -4 134z" />
<glyph unicode="g" horiz-adv-x="882" d="M82 -416q0 30 6 48q16 -2 125 -16t161 -14q138 0 212 84t76 314q-98 -56 -206 -56q-90 0 -158 37t-108 94t-65 138t-34 157t-9 162q0 216 95 362t289 146q114 0 224 -70q2 20 2 62l90 20q0 -60 2 -94q12 -438 12 -570q0 -46 2 -144t2 -148q0 -110 -7 -190t-31 -167 t-65 -142t-116 -91t-177 -36q-88 0 -310 26q-2 22 -7 48t-5 40zM232 578q0 -74 8 -145t32 -156t78 -137t134 -52q60 0 110 29t74 77l6 646q-12 36 -75 57t-139 21q-108 0 -168 -99t-60 -241z" />
<glyph unicode="h" horiz-adv-x="888" d="M82 10q4 98 4 310q0 94 -2 345q-1 167 -1 304v128q1 181 9 343l104 -24q6 -82 9 -262t7 -248q108 114 260 114q136 0 235 -96t99 -256v-658q-26 -12 -66 -12q-44 0 -80 8q0 16 1 49t1 49q0 78 -6 269t-6 319q-30 184 -186 184q-68 0 -134 -37t-96 -87q6 -126 8 -380 t6 -366q-48 -8 -82 -8q-50 0 -84 12z" />
<glyph unicode="i" horiz-adv-x="362" d="M82 96q4 82 16 427t28 505l92 -20q16 -164 28 -515t16 -435q-18 -62 -70 -62q-36 0 -69 29t-41 71zM82 1288q0 44 19 71t53 27q54 0 90 -47t36 -107q0 -44 -21 -71t-57 -27q-56 0 -88 46t-32 108z" />
<glyph unicode="j" horiz-adv-x="332" d="M-164 -302q72 16 124 61t79 98t42 135t18 143t3 151q0 82 -2 291t-4 381q8 88 66 88q30 0 57 -30t29 -76q0 -54 1 -169t1 -177q0 -6 1 -44t1 -70q0 -280 -20 -456t-65 -265t-101 -119t-144 -30q-38 0 -86 16v72zM52 1292q0 44 18 71t52 27q54 0 91 -47t37 -107 q0 -44 -21 -71t-57 -27q-56 0 -88 46t-32 108z" />
<glyph unicode="k" horiz-adv-x="810" d="M82 74q6 206 6 684t8 686l122 -26q2 -80 7 -328t9 -370l486 356l34 -90q-190 -138 -446 -390q54 -58 239 -283t265 -313l-184 4q-74 74 -203 239t-163 203v-412q-18 -60 -70 -60q-36 0 -69 29t-41 71z" />
<glyph unicode="l" horiz-adv-x="344" d="M82 96l44 1276l92 -20l44 -1294q-18 -62 -70 -62q-36 0 -69 29t-41 71z" />
<glyph unicode="m" horiz-adv-x="1160" d="M82 2q6 126 8 496t16 548l90 -20l6 -102q60 94 152 94q136 0 230 -120q58 120 188 120q52 0 90 -12q218 -62 218 -558q0 -72 -5 -193t-5 -163q0 -56 6 -92q-104 -28 -126 -28q-20 0 -28 4q-8 26 -8 96q0 44 6 181t6 215q0 416 -164 420q-38 -2 -66 -23t-68 -73 q8 -112 12 -265t7 -309t5 -212q-44 -12 -82 -12q-30 0 -56 10q-6 78 -8 178t-2 177t-3 161t-11 144t-24 111t-45 79t-71 30q-42 0 -68 -18t-56 -66v-792q-30 -16 -72 -16q-32 0 -72 10z" />
<glyph unicode="n" horiz-adv-x="846" d="M82 2q6 126 8 496t16 548l90 -20l6 -112q106 112 244 112q70 0 112 -10t81 -49t59 -103t36 -183t23 -278t9 -401q-12 -4 -46 -4q-72 0 -112 18q-8 32 -8 106q0 38 3 143t3 163q0 96 -7 168t-26 142t-58 108t-97 38q-66 0 -103 -10t-52 -24t-45 -50l8 -792 q-30 -16 -72 -16q-32 0 -72 10z" />
<glyph unicode="o" horiz-adv-x="914" d="M82 426q0 80 17 178t51 206t102 180t158 72q192 0 308 -173t116 -385q0 -90 -19 -179t-59 -175t-115 -143t-175 -65q-184 24 -284 157t-100 327zM228 398q0 -112 69 -207t155 -95q62 0 112 48t79 119t44 143t15 128q0 164 -74 286t-206 138q-70 -8 -118 -128t-62 -233 t-14 -199z" />
<glyph unicode="p" horiz-adv-x="908" d="M82 -482l24 1534l112 -20q0 -42 2 -62q110 70 222 70q182 0 284 -156t102 -354q0 -100 -15 -191t-53 -186t-117 -152t-191 -57q-106 0 -204 56q8 -350 14 -520q-18 -62 -70 -62q-36 0 -69 29t-41 71zM236 840l6 -646q24 -48 74 -77t110 -29q78 0 133 50t78 133t32 155 t9 152q0 340 -230 340q-74 0 -137 -21t-75 -57z" />
<glyph unicode="q" horiz-adv-x="908" d="M82 532q0 120 36 231t127 194t221 83q114 0 224 -70q2 20 2 62l110 20l26 -1578q-64 -32 -152 -48q2 46 2 146q0 216 -16 428q-98 -56 -206 -56q-90 0 -158 37t-108 94t-65 138t-34 157t-9 162zM232 578q0 -74 8 -145t32 -156t78 -137t134 -52q60 0 110 29t74 77l6 646 q-12 36 -75 57t-139 21q-70 0 -117 -27t-70 -78t-32 -106t-9 -129z" />
<glyph unicode="r" horiz-adv-x="744" d="M82 72q38 642 68 970l90 -20l6 -134q140 116 240 116q110 0 185 -50t75 -146q0 -30 -4 -46l-88 6q-42 112 -142 112q-44 0 -93 -20t-81 -41t-84 -61q0 -28 -1 -182v-79q0 -122 2 -263q3 -188 7 -202q-18 -60 -70 -60q-36 0 -69 29t-41 71z" />
<glyph unicode="s" horiz-adv-x="776" d="M40 130l58 60q24 -10 71 -32t67 -29t59 -15t83 -8q94 0 154 42t60 118q0 50 -28 85t-74 57t-101 42t-110 45t-101 60t-74 95t-28 142q0 120 65 201t183 81q46 0 104 -14t92 -26t101 -39t77 -31l-20 -80q-194 80 -302 80q-96 0 -135 -29t-39 -123q0 -76 55 -126t133 -79 t157 -62t134 -97t55 -158q0 -128 -94 -224t-244 -98q-110 0 -206 46t-152 116z" />
<glyph unicode="t" horiz-adv-x="744" d="M0 976q14 -4 46 -4q18 0 58 3t60 3q8 0 21 -1t17 -1q8 220 18 358l90 -22q2 -48 3 -103t2 -122t1 -103q52 -4 156 -8t156 -8l22 -90q-54 -4 -166 -21t-168 -21q10 -70 12 -184t5 -197t18 -166t62 -127t127 -44q60 0 150 28q38 -74 56 -108q-158 -56 -320 -56 q-60 0 -104 36t-68 90t-39 137t-19 157t-4 170q0 52 1 144t1 126q-20 -2 -94 -3t-86 -1q-14 134 -14 138z" />
<glyph unicode="u" horiz-adv-x="900" d="M82 582q0 256 32 470l90 -20q14 -66 14 -144q0 -44 -5 -152t-5 -164q0 -98 9 -169t34 -138t77 -103t130 -36q88 0 190 40q4 74 8 379t20 459l96 -18v-20q0 -136 17 -460t31 -500q-40 -16 -76 -16q-32 0 -72 10l-16 52q-128 -72 -244 -72q-86 0 -149 40t-97 99t-54 146 t-25 158t-5 159z" />
<glyph unicode="v" horiz-adv-x="758" d="M0 1036l132 -10l260 -832q32 96 68 216t58 205t58 222t50 191l134 -18q-38 -158 -120 -481t-128 -525q-78 -14 -136 -14q-48 0 -90 8q-30 104 -95 329t-110 391t-81 318z" />
<glyph unicode="w" horiz-adv-x="1192" d="M0 1036l132 -10l260 -832q66 192 138 474q-62 230 -96 376l132 -10l260 -832q32 96 68 216t58 205t58 222t50 191l134 -18q-38 -158 -120 -481t-128 -525q-78 -14 -134 -14q-50 0 -92 8l-112 392l-96 -394q-78 -14 -136 -14q-48 0 -90 8q-30 104 -95 329t-110 391 t-81 318z" />
<glyph unicode="x" horiz-adv-x="728" d="M0 -4q52 130 272 504q-116 158 -264 526h88q74 -156 250 -406q30 42 79 130t96 152t107 112q72 -40 72 -94q0 -30 -14 -58q-54 -66 -138 -208t-104 -172q212 -296 286 -446q0 -76 -68 -76t-104 66q-36 120 -190 340q-34 -56 -139 -203t-143 -213z" />
<glyph unicode="y" horiz-adv-x="874" d="M40 1038l116 -6q10 -48 43 -219t53 -253t71 -205t117 -207q278 534 278 876v22q104 -16 156 -38q-32 -210 -100 -428t-170 -439t-181 -371t-197 -362l-124 70q82 142 290 540q-162 144 -248 436t-104 584z" />
<glyph unicode="z" horiz-adv-x="840" d="M0 44q0 20 6 74q30 60 305 400t309 440q-68 4 -114 4q-62 0 -214 -5t-238 -5l-28 120q26 0 202 5t276 5q196 0 330 -18q-2 -10 -2 -28q0 -6 1 -27t1 -41q-86 -154 -309 -425t-309 -401q66 0 272 -2t344 -2q2 -18 4 -43t4 -43t2 -34q0 -22 -2 -36q-120 4 -834 4 q-6 36 -6 58z" />
<glyph unicode="{" horiz-adv-x="530" d="M40 780q76 52 117 129t49 154t20 162t28 155t74 131t158 91l30 -66q-90 -20 -135 -101t-54 -186t-16 -211t-42 -193t-109 -115q80 -76 119 -191t47 -224t19 -209t54 -168t131 -80l-30 -64q-116 20 -175 97t-74 182t-24 216t-51 219t-132 168z" />
<glyph unicode="|" horiz-adv-x="344" d="M82 -96q0 6 1 20t2 54t3 100q38 1064 38 1418v80l92 -20q8 -154 19 -848t25 -844q-18 -60 -70 -60q-36 0 -69 29t-41 71z" />
<glyph unicode="}" horiz-adv-x="530" d="M0 -142q88 12 131 80t54 168t19 209t47 224t119 191q-74 28 -109 115t-42 193t-16 211t-54 186t-135 101l32 66q118 -36 176 -113t71 -170t20 -189t47 -193t130 -157l-2 -104q-90 -60 -132 -168t-52 -219t-25 -216t-74 -182t-175 -97z" />
<glyph unicode="~" horiz-adv-x="1066" d="M40 650q56 132 126 171t186 39q82 0 198 -68t180 -68q62 0 99 22t95 94l102 -52q-28 -68 -65 -112t-82 -64t-86 -27t-99 -7q-80 0 -189 67t-167 67q-62 0 -105 -23t-89 -91z" />
<glyph unicode="&#xa3;" horiz-adv-x="1096" d="M40 -6v74q110 4 172 81t74 181q12 108 8 372l-190 6q-2 20 -2 136q20 -4 96 -10t96 -8q8 86 8 222q0 396 320 396q70 0 161 -19t133 -43l-12 -72q-24 0 -111 7t-115 7q-248 0 -248 -234v-258q32 0 99 -5t93 -5q50 0 98 6l20 -92q-42 -6 -152 -12t-156 -14q6 -206 4 -280 q-6 -166 -56 -286q102 20 168 12t152 -27t116 -19q120 0 138 170l74 4q34 -82 26 -154q-8 -60 -70 -99t-148 -39q-48 0 -150 20t-158 20q-74 0 -207 -26t-211 -26q-14 0 -70 14z" />
<glyph unicode="&#xa8;" d="M184 1336q0 44 19 71t53 27q54 0 90 -47t36 -107q0 -44 -20 -71t-56 -27q-56 0 -89 48t-33 106zM596 1336q0 44 19 71t53 27q54 0 90 -47t36 -107q0 -44 -21 -71t-57 -27q-56 0 -88 48t-32 106z" />
<glyph unicode="&#xa9;" horiz-adv-x="1458" d="M40 704q0 356 194 575t504 219q280 0 475 -215t205 -549q-2 -380 -177 -595t-457 -215q-338 0 -541 201t-203 579zM178 708q0 -290 154 -465t438 -175q248 0 385 173t137 437q0 282 -154 490t-388 208q-242 0 -407 -178t-165 -490zM454 720q0 72 12 142t38 140t80 113 t128 43q132 0 252 -78l-44 -74q-88 66 -170 66q-186 0 -186 -370q0 -58 15 -122t60 -121t109 -57q60 0 212 74q12 -14 24 -48t16 -42q-142 -100 -250 -100q-144 0 -220 125t-76 309z" />
<glyph unicode="&#xab;" horiz-adv-x="1086" d="M0 448q0 22 8 30q142 96 417 265t357 213l54 -34q-392 -302 -668 -456q234 -180 698 -392l-28 -62q-356 90 -832 408q-6 12 -6 28zM454 464q192 104 272 148t166 97t122 85l44 -40q-244 -202 -414 -282q48 -40 209 -110t235 -118l-56 -44q-12 6 -167 66t-255 107t-156 91 z" />
<glyph unicode="&#xad;" horiz-adv-x="866" d="M40 686l666 46q50 -2 85 -37t35 -75q0 -26 -20 -46t-60 -24l-684 46z" />
<glyph unicode="&#xae;" horiz-adv-x="1458" d="M40 704q0 356 194 575t504 219q280 0 475 -215t205 -549q-2 -380 -177 -595t-457 -215q-338 0 -541 201t-203 579zM178 708q0 -290 154 -465t438 -175q228 0 368 156q-86 2 -158 23t-115 47t-88 77t-64 82t-55 93l-102 14q2 -106 10 -298q-12 -40 -46 -40q-22 0 -44 19 t-28 45q2 88 7 414t13 504l80 16q0 -42 2 -46q74 48 188 48q144 0 216 -91t72 -253q0 -124 -66 -222t-178 -106q120 -244 418 -244q92 152 92 372q0 282 -154 490t-388 208q-242 0 -407 -178t-165 -490zM550 682q44 -24 166 -24q90 0 143 57t53 157q0 112 -46 183t-144 71 q-76 0 -160 -62z" />
<glyph unicode="&#xb4;" d="M334 1208l160 306l160 18l-92 -170l-20 -40l-20 -40t-19 -36t-24 -31t-29 -20t-38 -8t-48 11z" />
<glyph unicode="&#xbb;" horiz-adv-x="1086" d="M0 244q74 48 235 118t209 110q-174 82 -416 282l46 40q76 -70 558 -330q-56 -44 -155 -90t-255 -108t-166 -66zM222 74q464 212 698 392q-276 154 -668 456l54 34q82 -44 357 -213t417 -265q8 -8 8 -30q0 -16 -6 -28q-476 -318 -832 -408z" />
<glyph unicode="&#x2c6;" d="M194 1156q112 204 164 266t120 58l114 -8l200 -304l-18 -10q-52 -26 -90 -2t-108 124l-86 120l-150 -226z" />
<glyph unicode="&#x2da;" d="M314 1298q0 68 48 117t112 49q58 0 103 -44t45 -110q0 -64 -42 -114t-106 -50q-62 0 -111 43t-49 109zM394 1302q0 -28 21 -52t57 -24q38 0 56 25t18 59q0 28 -19 49t-55 21q-34 0 -56 -23t-22 -55z" />
<glyph unicode="&#x2dc;" d="M206 1220q34 98 75 128t109 28q38 -2 105 -50t95 -48q36 0 55 15t39 61l98 -46q-58 -164 -194 -154q-38 2 -107 47t-93 49q-46 4 -96 -74z" />
<glyph unicode="&#x401;" horiz-adv-x="936" d="M82 0q20 220 24 736t26 720q68 -6 361 -10t383 -18l22 -90q-90 -16 -360 -38t-284 -24q2 -46 9 -188t9 -234q68 -8 248 -23l228 -19l20 -92q-422 -38 -494 -40q0 -88 -3 -267t-3 -263q458 -42 576 -60l20 -90h-36q-54 0 -250 -7t-294 -7q-148 0 -202 14zM186 1808 q0 44 19 71t53 27q54 0 91 -46t37 -106q0 -44 -21 -72t-57 -28q-56 0 -89 46t-33 108zM614 1808q0 44 19 71t53 27q54 0 91 -46t37 -106q0 -44 -21 -72t-57 -28q-56 0 -89 46t-33 108z" />
<glyph unicode="&#x402;" horiz-adv-x="1176" d="M0 1432l764 44q50 -2 84 -36t34 -74q0 -26 -20 -46t-60 -24l-304 16l-10 -516q130 36 216 36q194 0 293 -138t99 -386q0 -136 -24 -226t-71 -135t-99 -62t-126 -17q-38 0 -86 16v72q136 30 196 101t60 199q0 200 -50 310t-190 110q-90 0 -222 -60q-12 -554 -16 -610 l-138 -20q-6 68 -6 641t-4 697l-300 18z" />
<glyph unicode="&#x403;" horiz-adv-x="860" d="M82 52q22 252 28 1178q0 34 1 104t1 110q108 -6 218 -6q44 0 132 1t132 1q136 0 246 -8l20 -90q-88 -6 -308 -19t-308 -21q6 -190 8 -636t10 -654q-18 -62 -70 -62q-36 0 -69 30t-41 72zM334 1570q4 6 49 52t92 101t63 93q12 8 38 8q38 0 71 -14t33 -36q0 -48 -107 -138 t-179 -120z" />
<glyph unicode="&#x404;" horiz-adv-x="1060" d="M82 686q0 102 11 199t43 205t82 187t135 131t193 52q116 0 240 -40t212 -100l-80 -92q-156 116 -306 116q-154 0 -256 -129t-114 -383q4 0 22 1t30 1q66 0 177 -4t193 -8t82 -6l14 -72q-82 -54 -518 -86q-4 -28 -4 -50q0 -100 47 -222t135 -216t186 -94q126 0 386 132 q26 -38 68 -126q-252 -174 -452 -174q-128 0 -233 78t-167 199t-94 252t-32 249z" />
<glyph unicode="&#x405;" horiz-adv-x="914" d="M20 1160q0 142 102 259t246 117q110 0 245 -44t227 -88l-24 -80q-228 78 -384 78q-96 0 -164 -62t-68 -160q0 -74 38 -134t99 -104t136 -86t149 -90t135 -104t99 -141t38 -191q0 -150 -96 -245t-250 -95q-132 0 -281 37t-211 87l28 112q174 -94 342 -94q120 0 205 49 t85 159q0 98 -72 179t-174 143t-204 127t-174 160t-72 211z" />
<glyph unicode="&#x406;" horiz-adv-x="674" d="M40 1422q82 -2 254 -2q176 0 262 -2l6 -100q-34 -14 -96 -17t-78 -5q6 -56 7 -282t1 -500t4 -390q32 -6 122 -14t112 -12l-4 -104q-60 2 -190 2q-68 0 -202 -1t-190 -1l-4 98q184 30 228 32q2 68 2 204q0 180 -8 519t-10 449l-202 10z" />
<glyph unicode="&#x407;" horiz-adv-x="674" d="M40 1422q82 -2 254 -2q176 0 262 -2l6 -100q-34 -14 -96 -17t-78 -5q6 -56 7 -282t1 -500t4 -390q32 -6 122 -14t112 -12l-4 -104q-60 2 -190 2q-68 0 -202 -1t-190 -1l-4 98q184 30 228 32q2 68 2 204q0 180 -8 519t-10 449l-202 10zM48 1698q0 44 18 71t52 27 q54 0 91 -47t37 -107q0 -44 -21 -71t-57 -27q-56 0 -88 46t-32 108zM354 1698q0 44 19 71t53 27q54 0 90 -47t36 -107q0 -44 -20 -71t-56 -27q-56 0 -89 46t-33 108z" />
<glyph unicode="&#x408;" horiz-adv-x="778" d="M0 196l102 52q116 -156 264 -156q112 0 147 80t35 262q0 132 -4 412t-4 440q0 108 2 164q14 -6 38 -6q8 0 23 1t25 1q34 0 60 -12q-4 -136 -4 -208q0 -114 6 -367t6 -393q0 -90 -1 -136t-5 -109t-13 -92t-26 -69t-41 -55t-61 -33t-85 -23t-112 -5q-246 0 -352 252z" />
<glyph unicode="&#x409;" horiz-adv-x="1720" d="M-144 -84q110 74 188 171t122 194t70 221t33 229t7 243q0 72 5 223t5 231q58 10 178 10q50 0 152 -3t154 -3q96 0 176 8q24 -134 24 -420q0 -108 -2 -164q54 6 112 6q264 0 432 -149t168 -349q0 -404 -502 -404q-132 0 -239 19t-123 49q0 50 2 74q0 28 1 83t1 85 q0 116 -6 364t-6 384q0 138 6 274q-48 4 -167 6t-181 10q-18 -104 -29 -271t-18 -296t-36 -284t-78 -269t-148 -217t-243 -159zM968 704q8 -234 22 -568q138 -18 240 -18q282 0 282 268q0 138 -119 232t-313 94q-62 0 -112 -8z" />
<glyph unicode="&#x40a;" horiz-adv-x="1604" d="M82 56q6 172 11 668t19 738l90 -20q0 -12 2 -38t2 -40q24 -422 28 -558q72 6 225 10t235 12q2 0 2 20t1 162t1 428l116 24q34 -262 40 -608q54 6 110 6q264 0 432 -149t168 -349q0 -406 -502 -406q-130 0 -238 20t-124 50v664q-130 -4 -390 -4q-52 0 -76 2 q4 -124 15 -358t13 -314q-18 -62 -70 -62q-36 0 -69 30t-41 72zM858 702q2 -262 16 -568q138 -18 242 -18q280 0 280 266q0 138 -119 233t-313 95q-58 0 -106 -8z" />
<glyph unicode="&#x40b;" horiz-adv-x="1198" d="M0 1432l764 44q50 -2 84 -36t34 -74q0 -26 -20 -46t-60 -24l-304 16l-10 -516q130 36 216 36q198 0 305 -135t107 -379q0 -154 -36 -336l-132 20q6 94 6 176q0 242 -53 370t-195 128q-90 0 -222 -60q0 -34 -1 -268t-9 -342h-144q-6 68 -6 631t-4 687l-300 18z" />
<glyph unicode="&#x40c;" horiz-adv-x="1046" d="M82 52q2 42 14 677t18 735l90 -20q2 -76 12 -285t12 -283q86 2 147 65t100 153t79 179t105 152t155 63q68 0 230 -30l-20 -80q-124 20 -142 20q-70 0 -118 -58t-80 -145t-70 -178t-112 -167t-182 -102q96 -22 166 -86t104 -144t66 -169t56 -161t67 -120t105 -48 q60 0 156 24l6 -76q-106 -32 -202 -32q-92 0 -157 49t-98 123t-66 160t-62 160t-85 123t-134 49l20 -588q-18 -62 -70 -62q-36 0 -69 30t-41 72zM334 1570q4 6 49 52t92 101t63 93q12 8 38 8q38 0 71 -14t33 -36q0 -48 -107 -138t-179 -120z" />
<glyph unicode="&#x40e;" horiz-adv-x="982" d="M0 1364l104 98q90 -148 228 -456t188 -406q200 514 302 820q26 48 66 48q36 0 64 -35t32 -81q-68 -146 -215 -475t-250 -538t-219 -403l-130 26l258 506q-72 198 -428 896zM252 1624q48 -6 94 -6q138 0 254 76q46 -4 78 -28t32 -56q0 -26 -18 -42t-54 -23t-60 -8t-64 -1 q-138 0 -248 24z" />
<glyph unicode="&#x40f;" horiz-adv-x="960" d="M82 1362q8 42 41 71t69 29q52 0 70 -62q-4 -130 -19 -710t-15 -586q52 4 148 4q60 0 159 -6t143 -6q0 110 10 607t10 659q8 42 41 71t69 29q52 0 70 -62q-10 -162 -19 -663t-45 -783h-288l-20 -288l-90 20l-20 268h-284q-14 242 -19 739t-11 669z" />
<glyph unicode="&#x410;" horiz-adv-x="1076" d="M0 76q64 234 232 688t234 686l152 -10q56 -248 230 -701t230 -677q0 -58 -20 -87t-50 -29q-26 0 -49 21t-31 59q-18 88 -116 352q-412 52 -518 64q-26 -72 -64 -234t-60 -224q-30 -36 -68 -36q-42 0 -72 37t-30 91zM314 538h224q152 0 254 -10q-206 442 -256 720 q-40 -242 -222 -710z" />
<glyph unicode="&#x411;" horiz-adv-x="954" d="M82 52q6 172 12 670t20 740h684l-24 -102q-102 -8 -266 -16t-266 -14v-452q102 28 186 28q222 0 354 -147t132 -373q0 -126 -100 -219t-233 -134t-269 -41q-166 0 -230 60zM242 198q60 -68 154 -68q124 0 240 103t116 221q0 156 -109 253t-271 97q-54 0 -128 -16v-46 t-1 -180t-1 -364z" />
<glyph unicode="&#x412;" horiz-adv-x="994" d="M82 52l10 1408q22 74 172 74q138 0 254 -37t195 -124t79 -209q0 -96 -47 -186t-115 -116q128 -18 206 -154t78 -322q0 -126 -100 -219t-233 -134t-269 -41q-166 0 -230 60zM236 1392q4 -122 5 -302t1 -190l124 2q128 0 197 75t69 179q0 106 -70 183t-194 77 q-56 0 -132 -24zM242 198q60 -68 154 -68q124 0 240 103t116 221q0 146 -98 228t-252 82q-102 0 -156 -12q0 -138 -4 -554z" />
<glyph unicode="&#x413;" horiz-adv-x="860" d="M82 52q22 252 28 1178q0 34 1 104t1 110q108 -6 218 -6q44 0 132 1t132 1q136 0 246 -8l20 -90q-88 -6 -308 -19t-308 -21q6 -190 8 -636t10 -654q-18 -62 -70 -62q-36 0 -69 30t-41 72z" />
<glyph unicode="&#x414;" horiz-adv-x="1126" d="M0 96q0 8 1 28t1 30q2 0 66 1t66 1q52 106 85 229t45 264t16 248t4 273t2 248q140 10 624 10l44 -1254q32 -4 66 -6t66 -4q-6 -42 -6 -104q0 -32 2 -101t2 -103q0 -68 -6 -112l-90 20q-18 152 -62 248q-166 12 -332 12q-142 0 -422 -12q-12 -42 -46 -292l-86 8 q-40 214 -40 368zM294 168q54 0 162 -3t160 -3q76 0 158 6q4 126 4 394v398q0 238 4 354q-56 4 -84 4q-46 0 -133 -6t-117 -8q-6 -90 -14 -283t-16 -299t-39 -263t-85 -291z" />
<glyph unicode="&#x415;" horiz-adv-x="896" d="M82 0q20 220 24 736t26 720q68 -6 361 -10t383 -18l22 -90q-90 -16 -360 -38t-284 -24q2 -46 9 -188t9 -234q68 -8 248 -23l228 -19l20 -92q-422 -38 -494 -40q0 -88 -3 -267t-3 -263q458 -42 576 -60l20 -90q-78 0 -283 -7t-297 -7q-148 0 -202 14z" />
<glyph unicode="&#x416;" horiz-adv-x="1688" d="M-40 -18l6 76q96 -24 154 -24q62 0 106 48t67 120t55 161t67 169t105 144t166 86q-108 26 -182 103t-112 167t-71 178t-81 146t-118 58q-4 0 -140 -22l-20 80q172 32 230 32q90 0 155 -63t105 -153t79 -180t100 -153t147 -65l12 574l100 -20q2 -76 11 -278t11 -276 q86 2 147 65t100 153t79 180t105 153t155 63q58 0 230 -32l-20 -80q-136 22 -142 22q-70 0 -118 -58t-80 -146t-70 -178t-112 -167t-182 -103q96 -22 166 -86t104 -144t66 -169t56 -161t67 -120t105 -48q60 0 156 24l6 -76q-106 -32 -202 -32q-92 0 -157 49t-98 123t-66 160 t-62 160t-85 123t-134 49l12 -602q-18 -62 -70 -62q-36 0 -69 30t-41 72q4 66 6 562q-78 0 -134 -49t-85 -123t-62 -160t-66 -160t-98 -123t-157 -49q-96 0 -202 32z" />
<glyph unicode="&#x417;" horiz-adv-x="928" d="M0 232q10 8 14 16l6 12t11 11t29 17q88 -80 196 -129t204 -49q108 0 173 71t65 219q0 152 -86 246t-254 94q-24 0 -84 -4q-2 12 -9 44t-17 102q22 2 80 5t82 6t69 12t66 25t46 41t35 65t10 94q0 98 -65 143t-173 45q-144 0 -282 -66l-62 66q214 142 390 142 q152 0 246 -109t94 -269q0 -200 -136 -282q100 -16 150 -119t50 -245q0 -216 -92 -334t-306 -118q-144 0 -271 64t-179 184z" />
<glyph unicode="&#x418;" horiz-adv-x="1054" d="M82 52q6 170 12 666t18 748l90 -20q20 -330 46 -1098q390 694 536 1116q30 24 58 24q44 0 73 -52t31 -118q6 -186 11 -628t15 -660q-18 -60 -68 -60q-36 0 -70 29t-42 71q6 174 7 534t3 486q-44 -76 -154 -288t-203 -364t-191 -264l8 -162q-18 -62 -70 -62q-36 0 -69 30 t-41 72z" />
<glyph unicode="&#x419;" horiz-adv-x="1054" d="M82 52q6 170 12 666t18 748l90 -20q20 -330 46 -1098q390 694 536 1116q30 24 58 24q44 0 73 -52t31 -118q6 -186 11 -628t15 -660q-18 -60 -68 -60q-36 0 -70 29t-42 71q6 174 7 534t3 486q-44 -76 -154 -288t-203 -364t-191 -264l8 -162q-18 -62 -70 -62q-36 0 -69 30 t-41 72zM282 1686q48 -6 94 -6q138 0 254 76q46 -4 79 -28t33 -56q0 -74 -198 -74q-138 0 -248 24z" />
<glyph unicode="&#x41a;" horiz-adv-x="1046" d="M82 52q2 42 14 677t18 735l90 -20q2 -76 12 -285t12 -283q86 2 147 65t100 153t79 179t105 152t155 63q68 0 230 -30l-20 -80q-124 20 -142 20q-70 0 -118 -58t-80 -145t-70 -178t-112 -167t-182 -102q96 -22 166 -86t104 -144t66 -169t56 -161t67 -120t105 -48 q60 0 156 24l6 -76q-106 -32 -202 -32q-92 0 -157 49t-98 123t-66 160t-62 160t-85 123t-134 49l20 -588q-18 -62 -70 -62q-36 0 -69 30t-41 72z" />
<glyph unicode="&#x41b;" horiz-adv-x="1056" d="M-164 -84q110 74 188 171t122 194t70 221t33 229t7 243q0 72 5 223t5 231q58 10 178 10q50 0 152 -3t154 -3q96 0 176 8q24 -134 24 -420q0 -76 -2 -239t-2 -247q0 -328 28 -540q-18 -62 -68 -62q-36 0 -70 29t-42 71q4 156 4 238q0 116 -5 364t-5 384q0 184 4 274 q-48 4 -166 6t-180 10q-18 -104 -29 -271t-18 -296t-36 -284t-78 -269t-148 -217t-243 -159z" />
<glyph unicode="&#x41c;" horiz-adv-x="1472" d="M0 12q28 218 138 686t130 724q36 4 58 4q20 0 148 -16q28 -4 81 -181t107 -389t68 -250q56 138 135 448t111 394q32 -2 202 -18q52 -202 101 -436t106 -532t87 -446l-152 -14q-110 690 -238 1182q-66 -156 -145 -439t-109 -367q-4 0 -13 -1t-15 -1q-28 0 -92 6t-82 6 q-2 58 -102 387t-120 421q-36 -324 -280 -1180z" />
<glyph unicode="&#x41d;" horiz-adv-x="960" d="M82 56q6 172 11 668t19 738l90 -20q0 -6 1 -19t1 -21q26 -492 30 -616q68 6 145 13t170 16t145 13q2 0 2 20t1 162t1 428l116 24q36 -282 45 -783t19 -663q-18 -62 -70 -62q-36 0 -69 30t-41 72q2 72 2 240v394q-44 -2 -123 -9t-144 -11t-123 -4q-52 0 -76 2 q4 -122 14 -345t14 -307q-18 -62 -70 -62q-36 0 -69 30t-41 72z" />
<glyph unicode="&#x41e;" horiz-adv-x="1072" d="M84 670v103t3 107t8 114t15 109t26 108t37 93t53 84t70 61t90 43t114 14q124 0 216 -49t144 -123t83 -182t40 -206t9 -216q0 -80 -3 -144t-12 -145t-26 -143t-47 -125t-71 -104t-103 -67t-138 -26q-124 0 -213 30t-146 84t-90 142t-46 192t-13 246zM236 764q0 -82 1 -125 t7 -122t17 -125t35 -106t57 -93t86 -58t119 -27q146 8 218 164t72 382q0 98 -15 204t-50 228t-111 199t-182 77q-80 0 -141 -107t-87 -240t-26 -251z" />
<glyph unicode="&#x41f;" horiz-adv-x="960" d="M82 56q6 172 11 668t19 738h702q36 -282 45 -783t19 -663q-18 -62 -70 -62q-36 0 -69 30t-41 72q0 162 -10 659t-10 605q-44 0 -143 -6t-159 -6q-96 0 -148 4q0 -6 15 -586t19 -710q-18 -62 -70 -62q-36 0 -69 30t-41 72z" />
<glyph unicode="&#x420;" horiz-adv-x="1050" d="M82 30q6 168 13 654t19 752l90 24q0 -64 2 -72q114 76 320 76q222 0 332 -139t110 -389q0 -222 -108 -368t-326 -146q-36 0 -288 24q4 -146 16 -454q-18 -62 -70 -62q-36 0 -69 29t-41 71zM224 1254l16 -624q110 -60 254 -60q138 0 234 104t96 254q0 162 -100 292 t-250 130q-122 0 -250 -96z" />
<glyph unicode="&#x421;" horiz-adv-x="1080" d="M82 684q0 130 20 253t68 247t145 200t231 76q116 0 240 -40t212 -100l-80 -92q-156 116 -308 116q-100 0 -172 -48t-109 -116t-58 -172t-26 -180t-5 -178q0 -100 37 -227t125 -237t204 -110q126 0 386 132q26 -38 68 -126q-252 -174 -450 -174q-128 0 -234 78t-167 198 t-94 251t-33 249z" />
<glyph unicode="&#x422;" horiz-adv-x="882" d="M0 1432l764 44q50 -2 84 -36t34 -74q0 -26 -20 -46t-60 -24l-336 18q50 -706 74 -1284q-18 -60 -68 -60q-36 0 -70 29t-42 71q4 108 4 328q0 82 -1 246t-1 246q0 238 8 430q-226 16 -350 22z" />
<glyph unicode="&#x423;" horiz-adv-x="982" d="M0 1364l104 98q90 -148 228 -456t188 -406q200 514 302 820q26 48 66 48q36 0 64 -35t32 -81q-68 -146 -215 -475t-250 -538t-219 -403l-130 26l258 506q-72 198 -428 896z" />
<glyph unicode="&#x424;" horiz-adv-x="1528" d="M40 772q0 234 176 395t408 161q26 0 78 -8q2 8 2 36q0 12 -1 45t-1 49q0 8 1 20t1 18l90 -20l8 -142q48 4 74 4q242 0 427 -158t185 -400q-2 -126 -26 -240t-77 -220t-153 -169t-236 -63q-28 0 -78 4t-64 4v-94q-18 -62 -70 -62q-36 0 -69 29t-41 71l2 56q-14 0 -64 -4 t-78 -4q-130 0 -228 59t-155 159t-84 220t-27 254zM174 686q0 -214 124 -345t346 -131q20 0 36 6q4 132 9 483t11 527h-18q-216 0 -362 -158t-146 -382zM808 1224q18 -346 38 -1008h24q262 2 375 119t113 351q0 232 -147 385t-371 153h-32z" />
<glyph unicode="&#x425;" horiz-adv-x="1116" d="M0 26q52 122 119 239t184 296t145 223q-50 78 -205 301t-231 349l84 38q170 -198 426 -570q10 38 175 266t189 270q30 50 72 50q40 0 72 -35t34 -81q-12 -14 -207 -286t-243 -328q68 -106 260 -367t242 -347q0 -38 -19 -58t-49 -20q-68 0 -104 66l-410 612 q-62 -100 -218 -320t-230 -342z" />
<glyph unicode="&#x426;" horiz-adv-x="1074" d="M82 -6q6 216 20 736t20 736l90 -20q6 -210 17 -667t17 -657q90 0 156 -3t70 -3q32 0 238 34q8 216 27 669t25 647l90 -20q-2 -142 -2 -426q0 -384 6 -802q0 -10 1 -31t1 -31q24 0 82 -3t94 -3q0 -8 -9 -172t-23 -246h-92q-10 36 -46 268q-142 -16 -450 -16 q-242 0 -332 10z" />
<glyph unicode="&#x427;" horiz-adv-x="940" d="M82 1114q0 154 36 336l90 -20q-6 -94 -6 -176q0 -498 270 -498q90 0 222 60q10 416 22 610l90 -22q8 -102 29 -675t23 -685q-18 -62 -70 -62q-36 0 -69 29t-41 71q2 34 12 552q-124 -34 -216 -34q-194 0 -293 133t-99 381z" />
<glyph unicode="&#x428;" horiz-adv-x="1286" d="M82 -16q6 216 20 736t20 736l90 -20q6 -210 17 -667t17 -657l316 14q8 220 26 678t24 648l90 -20q6 -208 17 -654t17 -642q56 4 314 14q8 216 27 669t25 647l90 -20q-2 -148 -2 -394q0 -336 7 -630t7 -340v-82q-210 -22 -818 -22q-246 0 -304 6z" />
<glyph unicode="&#x429;" horiz-adv-x="1414" d="M82 -16q6 216 20 736t20 736l90 -20q6 -210 17 -667t17 -657l316 14q8 220 26 678t24 648l90 -20q6 -208 17 -654t17 -642q150 14 314 14q8 216 27 669t25 647l90 -20q-2 -218 -2 -546q0 -244 6 -682q0 -10 1 -31t1 -31q24 0 82 -3t94 -3q0 -8 -9 -172t-23 -246h-92 q-10 36 -46 268q-210 -22 -818 -22q-246 0 -304 6z" />
<glyph unicode="&#x42a;" horiz-adv-x="1198" d="M-40 1462q42 2 185 5t259 13q16 -264 32 -628q54 8 122 8q264 0 432 -149t168 -349q0 -406 -502 -406q-130 0 -239 20t-125 50q6 184 10 620t12 652l-326 44zM446 702q14 -426 20 -568q138 -18 242 -18q282 0 282 266q0 138 -119 233t-313 95q-62 0 -112 -8z" />
<glyph unicode="&#x42b;" horiz-adv-x="1400" d="M82 26q6 168 10 681t18 763l90 -20q2 -38 26 -598q54 8 120 8q264 0 432 -149t168 -349q0 -406 -502 -406q-130 0 -238 20t-124 50zM236 702q14 -426 20 -568q138 -18 242 -18q280 0 280 266q0 138 -119 233t-313 95q-60 0 -110 -8zM1138 60q4 144 15 636t25 760l90 -20 q6 -94 50 -1416q-18 -60 -68 -60q-36 0 -70 29t-42 71z" />
<glyph unicode="&#x42c;" horiz-adv-x="986" d="M82 26q6 168 10 681t18 763l90 -20q2 -38 26 -598q54 8 120 8q264 0 432 -149t168 -349q0 -406 -502 -406q-130 0 -238 20t-124 50zM236 702q14 -426 20 -568q138 -18 242 -18q280 0 280 266q0 138 -119 233t-313 95q-60 0 -110 -8z" />
<glyph unicode="&#x42d;" horiz-adv-x="1060" d="M0 82q38 78 70 126q260 -132 384 -132q98 0 187 94t136 216t47 222q0 22 -4 50q-436 32 -518 86l14 72q0 2 82 6t192 8t176 4q12 0 31 -1t23 -1q-12 254 -115 383t-257 129q-148 0 -304 -116l-80 92q88 60 211 100t239 40q108 0 193 -52t135 -131t82 -187t43 -205 t11 -199q0 -118 -32 -249t-94 -252t-167 -199t-233 -78q-200 0 -452 174z" />
<glyph unicode="&#x42e;" horiz-adv-x="1436" d="M82 82q6 168 9 651t17 729l90 -20q28 -450 38 -724l230 38q10 298 46 428q84 296 354 296q112 0 200 -55t141 -139t88 -196t48 -216t13 -208q0 -114 -11 -208t-45 -188t-89 -158t-150 -104t-221 -40q-400 0 -400 476q0 72 6 144l-206 30l22 -574q-18 -62 -70 -62 q-36 0 -69 29t-41 71zM588 612q6 -132 26 -239t68 -191t118 -84q114 0 197 48t126 132t62 179t19 209q0 104 -15 209t-48 218t-102 183t-163 70q-74 0 -132 -76t-90 -194t-48 -237t-18 -227z" />
<glyph unicode="&#x42f;" d="M-40 -44q94 32 173 93t129 127t93 154t64 152t43 144q-192 0 -296 111t-104 309q0 128 40 211t122 123t171 54t219 14q156 0 268 -20q12 -32 15 -153t7 -486t16 -759q-18 -60 -70 -60q-36 0 -69 29t-41 71q8 278 12 560q-16 0 -56 -2t-60 -2q-24 -208 -233 -461 t-411 -299zM212 1036q18 -304 336 -304q96 0 212 26l10 520q-126 38 -230 38q-158 0 -243 -79t-85 -201z" />
<glyph unicode="&#x430;" horiz-adv-x="822" d="M40 244q0 186 145 336t329 150q8 0 16 -1t19 -3t17 -2q-16 234 -186 234q-100 0 -226 -94l-40 102q52 52 132 83t158 31q338 0 338 -584q0 -80 -9 -236t-9 -234q-16 -62 -62 -62q-36 0 -66 36t-30 80q0 14 2 20q-124 -120 -264 -120q-106 0 -185 77t-79 187zM180 260 q0 -64 39 -102t95 -38q88 0 258 118q4 140 4 212q0 60 -4 168h-16q-142 -2 -259 -106t-117 -252z" />
<glyph unicode="&#x431;" horiz-adv-x="940" d="M82 746q0 196 49 350t149 270t224 200t300 166q12 -16 27 -27t28 -33t41 -86q-38 -22 -122 -66t-140 -75t-133 -86t-128 -108t-96 -132t-65 -167q48 38 121 63t129 25q372 0 372 -430q0 -92 -14 -195t-49 -225t-110 -201t-181 -79q-114 0 -194 60t-125 176t-64 261 t-19 339zM196 604q0 -78 13 -166t40 -177t78 -147t115 -58q242 0 242 566q0 148 -68 221t-182 73q-106 0 -172 -91t-66 -221z" />
<glyph unicode="&#x432;" horiz-adv-x="914" d="M82 64l44 962q310 66 378 66q268 0 268 -230q0 -80 -27 -155t-67 -99q156 -106 156 -292q0 -176 -115 -274t-303 -98q-224 0 -334 120zM220 936l14 -308q30 4 92 6t100 9t84 30t73 81t37 152q-20 60 -122 60q-46 0 -144 -14t-134 -16zM240 524l18 -406q50 -24 114 -24 q124 0 228 78t104 182q0 72 -56 133t-142 61q-50 0 -266 -24z" />
<glyph unicode="&#x433;" horiz-adv-x="746" d="M82 112q0 132 6 283t18 346t16 285q86 8 260 27t246 25q50 -2 85 -37t35 -75q0 -60 -80 -68q-74 6 -224 20t-228 20q2 -122 24 -396t22 -418q0 -124 -98 -124q-82 0 -82 112z" />
<glyph unicode="&#x434;" horiz-adv-x="1080" d="M0 44q0 40 6 86h130q10 34 33 102t31 96t23 83t20 94t10 97t5 122q0 150 -12 338q112 -6 237 -8t205 -6t164 -18q6 -136 13 -447t13 -447h156v-60q0 -52 3 -148t3 -128q0 -60 -4 -92l-90 20q-8 28 -15 71t-15 93t-12 72q-114 6 -363 24t-389 24l-46 -274l-90 20 q0 22 -8 130t-8 156zM266 132h438l40 788q-28 2 -147 6t-183 10q-2 -30 -4 -125t-5 -145t-12 -139t-23 -148t-41 -128t-63 -119z" />
<glyph unicode="&#x435;" horiz-adv-x="906" d="M82 546q0 500 452 500q108 0 190 -69t82 -179q0 -60 -33 -106t-80 -73t-120 -49t-129 -32t-134 -22t-108 -18q2 -58 7 -102t20 -95t40 -84t69 -55t104 -22q72 0 176 13t185 27t85 14l20 -88q-88 -32 -261 -71t-257 -39q-86 0 -150 57t-96 146t-47 176t-15 171zM210 622 q272 78 446 164q-14 66 -38 96t-72 30q-122 0 -221 -84t-115 -206z" />
<glyph unicode="&#x436;" horiz-adv-x="1290" d="M0 -14l6 88q24 -6 46 -6q62 0 106 46t72 115t55 139t72 128t107 72q-44 10 -79 60t-61 115t-57 129t-81 107t-116 43q-22 0 -34 -2l-8 70q60 22 116 22q70 0 122 -43t83 -106t60 -128t71 -118t96 -65q0 306 18 434l90 -34q16 -78 17 -220t3 -180q60 10 105 62t74 117 t61 129t83 108t121 44q44 0 114 -22l-8 -70q-12 2 -34 2q-66 0 -116 -43t-81 -107t-57 -129t-61 -115t-79 -60q74 -18 127 -101t80 -170t79 -158t128 -71q20 0 44 6l6 -88q-40 -10 -70 -10q-76 0 -137 50t-101 122t-75 143t-75 121t-82 50q-18 0 -32 -6q4 -58 9 -123 l11 -143t10 -122q-18 -62 -70 -62q-36 0 -69 29t-41 71q4 168 4 350q-16 6 -32 6q-42 0 -82 -50t-75 -121t-75 -143t-101 -122t-137 -50q-30 0 -70 10z" />
<glyph unicode="&#x437;" horiz-adv-x="710" d="M40 88q0 42 54 42q36 0 94 -33t96 -33q84 0 148 74t64 164q0 96 -67 145t-171 49q-40 0 -58 -2l-8 112q6 0 19 -1t19 -1q202 0 202 176q-22 154 -170 154q-56 0 -164 -32l-36 58q84 78 240 78q110 0 184 -56t74 -164q0 -66 -26 -129t-68 -95q76 -16 119 -103t43 -195 q0 -140 -90 -244t-232 -104q-70 0 -168 40t-98 100z" />
<glyph unicode="&#x438;" horiz-adv-x="954" d="M82 114q6 162 15 474t13 422l92 16q24 -128 30 -340t16 -316q38 56 216 292t242 352q44 8 56 8q38 0 53 -34t19 -128l38 -824q-18 -60 -70 -60q-36 0 -69 29t-41 71q2 66 11 323t15 365q-342 -390 -460 -598q0 -34 4 -90q-18 -62 -70 -62q-36 0 -69 29t-41 71z" />
<glyph unicode="&#x439;" horiz-adv-x="954" d="M82 114q6 162 15 474t13 422l92 16q24 -128 30 -340t16 -316q38 56 216 292t242 352q44 8 56 8q38 0 53 -34t19 -128l38 -824q-18 -60 -70 -60q-36 0 -69 29t-41 71q2 66 11 323t15 365q-342 -390 -460 -598q0 -34 4 -90q-18 -62 -70 -62q-36 0 -69 29t-41 71zM250 1306 q48 -6 94 -6q138 0 254 76q46 -4 78 -28t32 -56q0 -26 -18 -42t-54 -23t-60 -8t-64 -1q-130 0 -248 26z" />
<glyph unicode="&#x43a;" horiz-adv-x="804" d="M82 82q8 336 8 632q0 218 18 346l90 -32q16 -78 18 -223t4 -179q60 10 105 62t74 118t61 130t83 108t121 44q36 0 112 -24l-8 -68q-12 2 -32 2q-80 0 -139 -67t-88 -148t-73 -155t-96 -86q74 -18 127 -100t80 -169t79 -158t128 -71q20 0 44 6l6 -88q-48 -12 -68 -12 q-76 0 -138 50t-102 122t-75 144t-75 122t-82 50q-16 0 -30 -6q8 -120 28 -388q-18 -62 -70 -62q-36 0 -69 29t-41 71z" />
<glyph unicode="&#x43b;" horiz-adv-x="844" d="M-164 -94q66 26 119 82t87 117t58 153t35 161t17 171t7 153t1 137q0 122 22 146q28 30 310 30q222 0 252 2q4 -812 20 -1054q-20 -60 -70 -60q-34 0 -66 28t-40 68q-2 78 -2 232q0 76 1 230t1 232q0 144 -2 216q-84 -14 -166 -16t-116 -6q-6 -66 -10 -196t-7 -229 t-25 -224t-63 -212t-126 -156t-205 -91z" />
<glyph unicode="&#x43c;" horiz-adv-x="1206" d="M0 10q10 152 110 531t120 483q24 0 55 -5t47 -5q52 -90 142 -345t120 -319q152 432 272 636l136 12q100 -270 204 -1006q-34 -8 -68 -8q-30 0 -70 10q-28 110 -67 388t-69 394q-98 -160 -264 -588q-14 -2 -49 -8t-53 -6q-22 0 -52 6q-32 82 -95 263t-101 273 q-192 -492 -240 -728z" />
<glyph unicode="&#x43d;" horiz-adv-x="896" d="M82 96q6 100 6 200q0 64 -2 192t-2 190q0 192 12 322l90 -22q40 -434 42 -446q342 -18 352 -18q82 0 82 10q0 40 8 254t10 236l90 -20l46 -970q-18 -60 -70 -60q-36 0 -70 29t-42 71q0 6 18 338v16q-56 4 -166 4q-166 0 -250 10q10 -116 26 -374q-18 -62 -70 -62 q-36 0 -69 29t-41 71z" />
<glyph unicode="&#x43e;" horiz-adv-x="914" d="M82 426q0 80 17 178t51 206t102 180t158 72q192 0 308 -173t116 -385q0 -90 -19 -179t-59 -175t-115 -143t-175 -65q-184 24 -284 157t-100 327zM228 398q0 -112 69 -207t155 -95q62 0 112 48t79 119t44 143t15 128q0 164 -74 286t-206 138q-70 -8 -118 -128t-62 -233 t-14 -199z" />
<glyph unicode="&#x43f;" horiz-adv-x="896" d="M82 96q6 100 6 200q0 52 -2 172t-2 190q0 206 12 342l674 -6l46 -970q-18 -60 -70 -60q-36 0 -70 29t-42 71q2 36 7 227t11 366t8 227q-56 4 -166 4q-150 0 -250 12q6 -66 10 -425t8 -417q-18 -62 -70 -62q-36 0 -69 29t-41 71z" />
<glyph unicode="&#x440;" horiz-adv-x="908" d="M82 -482l24 1534l112 -20q0 -42 2 -62q110 70 222 70q182 0 284 -156t102 -354q0 -100 -15 -191t-53 -186t-117 -152t-191 -57q-106 0 -204 56q8 -350 14 -520q-18 -62 -70 -62q-36 0 -69 29t-41 71zM236 840l6 -646q24 -48 74 -77t110 -29q78 0 133 50t78 133t32 155 t9 152q0 340 -230 340q-74 0 -137 -21t-75 -57z" />
<glyph unicode="&#x441;" horiz-adv-x="800" d="M82 410q0 140 19 245t67 196t139 139t223 48q148 0 226 -46l-10 -86q-84 12 -144 12q-138 0 -228 -83t-123 -196t-33 -251q0 -64 8 -114t29 -98t66 -75t111 -27q88 0 224 34q42 16 66 16q48 0 58 -112q-176 -56 -326 -56q-218 0 -295 107t-77 347z" />
<glyph unicode="&#x442;" horiz-adv-x="960" d="M0 1006q268 16 844 44q48 -2 82 -36t34 -72q0 -60 -80 -68l-374 18q10 -150 11 -437t7 -419q-18 -58 -70 -58q-34 0 -66 28t-40 68q28 492 58 826l-388 18z" />
<glyph unicode="&#x443;" horiz-adv-x="874" d="M40 1038l116 -6q10 -48 43 -219t53 -253t71 -205t117 -207q278 534 278 876v22q104 -16 156 -38q-32 -210 -100 -428t-170 -439t-181 -371t-197 -362l-124 70q82 142 290 540q-162 144 -248 436t-104 584z" />
<glyph unicode="&#x444;" horiz-adv-x="1114" d="M40 414q0 232 125 415t343 185q-2 46 -2 110q0 66 8 214v16q26 20 66 20q44 0 80 -20q-12 -188 -12 -290v-56h14q162 0 287 -196t125 -410q0 -172 -122 -293t-298 -121q-26 0 -38 2q-4 -130 -10 -271t-10 -277l-102 20q-8 158 -8 532q-206 0 -326 113t-120 307zM160 442 q0 -140 66 -233t194 -93q32 0 66 6q0 96 15 293t15 297q0 104 -10 180q-2 0 -17 3t-23 3q-132 0 -219 -142t-87 -314zM616 118h18q154 0 228 87t74 221q0 158 -88 298t-206 148z" />
<glyph unicode="&#x445;" horiz-adv-x="728" d="M0 -4q52 130 272 504q-116 158 -264 526h88q74 -156 250 -406q30 42 79 130t96 152t107 112q72 -40 72 -94q0 -30 -14 -58q-54 -66 -138 -208t-104 -172q212 -296 286 -446q0 -76 -68 -76t-104 66q-36 120 -190 340q-34 -56 -139 -203t-143 -213z" />
<glyph unicode="&#x446;" horiz-adv-x="972" d="M82 -6q6 110 8 509t16 555l90 -20q14 -160 21 -512t9 -384q30 2 98 2q48 0 141 -2t131 -2h56q6 124 14 437t16 463l90 -20q8 -156 9 -494t1 -386h150q-2 -56 -10 -206t-10 -224l-96 16l-40 268q-260 -8 -388 -8q-170 0 -306 8z" />
<glyph unicode="&#x447;" horiz-adv-x="838" d="M40 870q0 76 20 200l90 -22q2 -26 7 -99t9 -105t13 -91t26 -88t42 -63t64 -48t91 -14q66 0 184 38q0 52 10 231t10 223q0 26 -2 30l82 26q22 -74 43 -555t29 -517q-18 -62 -70 -62q-36 0 -69 30t-41 72q4 114 8 346q-104 -26 -172 -26q-104 0 -180 42t-117 116t-59 157 t-18 179z" />
<glyph unicode="&#x448;" horiz-adv-x="1182" d="M82 0q6 114 14 507t22 565l90 -22q14 -168 22 -514t10 -414q44 4 159 5t149 3q4 70 4 220q0 58 -1 178t-1 180q0 196 14 344l90 -20q12 -160 19 -502t9 -392q204 0 286 2q6 120 15 434t17 466l90 -20q6 -134 6 -652q0 -258 6 -374q-152 -4 -396 -4q-472 0 -624 10z" />
<glyph unicode="&#x449;" horiz-adv-x="1290" d="M82 0q6 114 14 507t22 565l90 -22q14 -168 22 -514t10 -414q44 4 159 5t149 3q2 178 2 578q0 196 14 344l90 -20q12 -160 19 -503t9 -393q38 2 144 2q102 0 142 2q6 120 15 434t17 466l90 -20q8 -156 9 -495t1 -387h150q-2 -54 -10 -203t-12 -225l-96 16l-38 268 q-160 -4 -396 -4q-464 0 -616 10z" />
<glyph unicode="&#x44a;" horiz-adv-x="1024" d="M0 996l224 8q52 0 96 -3t80 -7q4 -64 13 -150t21 -196q80 24 152 24q86 0 160 -33t126 -87t82 -123t30 -141q0 -70 -30 -127t-81 -99t-117 -65t-140 -23q-16 0 -64 2t-100 9t-93 19t-43 34q2 20 2 50v70q0 24 -1 74t-3 113t-3 135t-3 141t-3 130t-1 101l-284 54zM434 122 q80 -28 152 -28q56 0 103 19t79 50t50 71t18 84t-18 83t-54 69t-88 47t-118 17q-22 0 -49 -3t-59 -7z" />
<glyph unicode="&#x44b;" horiz-adv-x="1088" d="M82 800q0 112 6 214l90 -20q4 -64 13 -150t21 -196q80 24 152 24q86 0 160 -33t126 -87t82 -123t30 -141q0 -70 -27 -128t-76 -99t-116 -64t-147 -23q-48 0 -102 5t-98 13t-73 19t-29 25q0 32 -1 92t-2 132t-3 152t-3 154t-2 135t-1 99zM212 122q80 -28 152 -28 q56 0 103 19t79 50t50 71t18 84t-18 83t-54 69t-88 47t-118 17q-22 0 -48 -3t-58 -7zM828 80q2 30 3 98t3 156t4 188t4 194t5 175t7 129l90 -20q14 -158 30 -397t34 -563q-18 -60 -70 -60q-36 0 -69 29t-41 71z" />
<glyph unicode="&#x44c;" horiz-adv-x="802" d="M82 800q0 112 6 214l90 -20q4 -64 13 -150t21 -196q80 24 152 24q86 0 160 -33t126 -87t82 -123t30 -141q0 -70 -30 -128t-80 -99t-116 -64t-140 -23q-14 0 -62 2t-101 9t-95 19t-44 34q0 34 -1 93t-2 131t-3 151t-3 153t-2 136t-1 98zM212 122q80 -28 152 -28 q56 0 103 19t79 50t50 71t18 84t-18 83t-54 69t-88 47t-118 17q-22 0 -48 -3t-58 -7z" />
<glyph unicode="&#x44d;" horiz-adv-x="780" d="M0 12q10 112 58 112t153 -25t137 -25q216 0 216 280q0 32 -2 48l-30 4q-194 24 -334 62l6 100q24 -2 146 -10t192 -10q-40 178 -119 274t-245 96q-60 0 -144 -12l-10 86q78 46 226 46q132 0 223 -48t139 -139t67 -196t19 -245q0 -114 -13 -189t-51 -139t-114 -95 t-194 -31q-150 0 -326 56z" />
<glyph unicode="&#x44e;" horiz-adv-x="1234" d="M82 64l42 882l88 -18q22 -398 22 -410q10 2 32 2q26 0 80 -5t80 -5q58 0 104 16q8 92 18 157t33 136t56 115t87 72t126 28q68 0 117 -19t94 -72t69 -162t24 -273q0 -64 -20 -147t-60 -171t-116 -148t-172 -60q-120 0 -195 67t-75 193q0 74 2 114l-270 44l10 -374 q-18 -58 -70 -58q-34 0 -66 28t-40 68zM654 486q0 -148 16 -226t44 -103t78 -25q72 0 126 91t78 204t24 215q0 40 -7 84t-24 92t-50 79t-79 31q-56 0 -98 -46t-64 -117t-33 -142t-11 -137z" />
<glyph unicode="&#x44f;" horiz-adv-x="880" d="M-122 -88q374 94 426 494q-96 40 -159 122t-63 188q0 212 108 282t342 70q122 0 236 -30l30 -1074q-20 -60 -68 -60q-34 0 -67 28t-41 68l20 434q-84 -54 -174 -56q-76 -250 -191 -366t-367 -186zM210 758q0 -108 86 -185t188 -77q120 0 174 106l-10 316q-70 22 -206 22 q-96 0 -164 -43t-68 -139z" />
<glyph unicode="&#x451;" horiz-adv-x="906" d="M82 546q0 500 452 500q108 0 190 -69t82 -179q0 -60 -33 -106t-80 -73t-120 -49t-129 -32t-134 -22t-108 -18q2 -58 7 -102t20 -95t40 -84t69 -55t104 -22q72 0 176 13t185 27t85 14l20 -88q-88 -32 -261 -71t-257 -39q-86 0 -150 57t-96 146t-47 176t-15 171zM162 1336 q0 44 19 71t53 27q54 0 90 -47t36 -107q0 -44 -20 -71t-56 -27q-56 0 -89 48t-33 106zM210 622q272 78 446 164q-14 66 -38 96t-72 30q-122 0 -221 -84t-115 -206zM574 1336q0 44 19 71t53 27q54 0 90 -47t36 -107q0 -44 -21 -71t-57 -27q-56 0 -88 48t-32 106z" />
<glyph unicode="&#x452;" horiz-adv-x="1032" d="M0 1242l228 20q4 116 8 178l104 -24l6 -144l156 14q50 -2 84 -36t34 -74q0 -26 -20 -46t-60 -24l-192 16q4 -242 8 -320q110 116 258 116q136 0 236 -96t100 -256v-258q0 -182 -34 -280t-90 -129t-154 -31q-38 0 -86 16v72q130 28 172 95t42 205q0 18 -12 334 q-30 184 -180 184q-68 0 -135 -37t-97 -87q6 -126 9 -330t7 -314q-48 -8 -82 -8q-50 0 -84 12q4 98 4 310q0 98 -2 360t-2 452l-206 18z" />
<glyph unicode="&#x453;" horiz-adv-x="746" d="M82 112q0 132 6 283t18 346t16 285q86 8 260 27t246 25q50 -2 85 -37t35 -75q0 -60 -80 -68q-74 6 -224 20t-228 20q2 -122 24 -396t22 -418q0 -124 -98 -124q-82 0 -82 112zM304 1200q4 6 49 52t92 101t63 93q12 8 36 8q36 0 71 -15t35 -37q0 -48 -108 -138t-180 -120z " />
<glyph unicode="&#x454;" horiz-adv-x="800" d="M82 410q0 140 19 245t67 196t139 139t223 48q148 0 226 -46l-10 -86q-84 12 -144 12q-166 0 -245 -96t-119 -274q70 2 192 10t146 10l6 -100q-140 -38 -334 -62l-28 -4q-2 -16 -2 -48q0 -280 214 -280q32 0 137 25t153 25t58 -112q-176 -56 -326 -56q-118 0 -194 31 t-114 95t-51 139t-13 189z" />
<glyph unicode="&#x455;" horiz-adv-x="776" d="M40 130l58 60q24 -10 71 -32t67 -29t59 -15t83 -8q94 0 154 42t60 118q0 50 -28 85t-74 57t-101 42t-110 45t-101 60t-74 95t-28 142q0 120 65 201t183 81q46 0 104 -14t92 -26t101 -39t77 -31l-20 -80q-194 80 -302 80q-96 0 -135 -29t-39 -123q0 -76 55 -126t133 -79 t157 -62t134 -97t55 -158q0 -128 -94 -224t-244 -98q-110 0 -206 46t-152 116z" />
<glyph unicode="&#x456;" horiz-adv-x="362" d="M82 96q4 82 16 427t28 505l92 -20q16 -164 28 -515t16 -435q-18 -62 -70 -62q-36 0 -69 29t-41 71zM82 1288q0 44 19 71t53 27q54 0 90 -47t36 -107q0 -44 -21 -71t-57 -27q-56 0 -88 46t-32 108z" />
<glyph unicode="&#x457;" horiz-adv-x="422" d="M-40 1288q0 44 18 71t52 27q54 0 91 -47t37 -107q0 -44 -21 -71t-57 -27q-56 0 -88 46t-32 108zM122 96q4 74 17 422t29 510l90 -20q16 -166 29 -521t17 -429q-18 -62 -70 -62q-36 0 -70 29t-42 71zM266 1288q0 44 19 71t53 27q54 0 90 -47t36 -107q0 -44 -20 -71 t-56 -27q-56 0 -89 46t-33 108z" />
<glyph unicode="&#x458;" horiz-adv-x="332" d="M-164 -302q72 16 124 61t79 98t42 135t18 143t3 151q0 82 -2 291t-4 381q8 88 66 88q30 0 57 -30t29 -76q0 -54 1 -169t1 -177q0 -6 1 -44t1 -70q0 -280 -20 -456t-65 -265t-101 -119t-144 -30q-38 0 -86 16v72zM52 1292q0 44 18 71t52 27q54 0 91 -47t37 -107 q0 -44 -21 -71t-57 -27q-56 0 -88 46t-32 108z" />
<glyph unicode="&#x459;" horiz-adv-x="1400" d="M-82 -94q112 46 177 152t98 242t41 289t8 291q0 66 1 101t29 52t97 20t205 3h174t78 2v-404q68 20 136 20q86 0 160 -33t126 -87t82 -123t30 -141q0 -70 -30 -128t-80 -99t-116 -64t-140 -23q-230 0 -324 64q-2 30 -2 75v105v186q0 64 1 116t1 90q2 28 0 70t-2 98v170 q-42 -6 -85 -10t-81 -6t-68 -3t-48 -3q-4 -34 -6 -83t-4 -113l-8 -230q-4 -106 -21 -217t-62 -206t-125 -165t-210 -94zM828 526q4 -274 12 -412q56 -18 122 -18q56 0 103 19t79 50t50 71t18 84t-18 83t-54 69t-88 47t-118 17q-22 0 -48 -3t-58 -7z" />
<glyph unicode="&#x45a;" horiz-adv-x="1376" d="M82 96q6 98 6 200q0 26 -1 79t-1 112t-1 112t-1 79q0 192 12 322l90 -22l20 -190q6 -64 12 -118t10 -96q228 -12 352 -12q82 0 82 4q0 2 1 38t4 86t5 108t4 107t3 80t1 29l90 -20l6 -204q2 -68 4 -117t6 -79q80 24 152 24q86 0 160 -30t126 -80t82 -116t30 -136 q0 -68 -29 -122t-78 -92t-116 -59t-145 -21q-168 0 -246 25t-88 77l18 394q-30 2 -85 3t-117 2t-120 4t-94 7q2 -18 4 -56t5 -84t6 -94t5 -88t4 -67l2 -27q-18 -62 -70 -62q-36 0 -69 29t-41 71zM786 472l4 -364q66 -26 148 -26q116 0 183 58t67 144t-70 142t-208 56 q-30 0 -61 -3t-63 -7z" />
<glyph unicode="&#x45b;" horiz-adv-x="1032" d="M0 1242l228 20q4 116 8 178l104 -24l6 -144l156 14q50 -2 84 -36t34 -74q0 -26 -20 -46t-60 -24l-192 16q4 -242 8 -320q110 116 258 116q136 0 236 -96t100 -256v-556q-26 -12 -68 -12q-44 0 -80 8q0 16 1 49t1 49q0 80 -6 220t-6 266q-16 96 -66 140t-118 44t-135 -37 t-97 -87q6 -126 9 -330t7 -314q-48 -8 -82 -8q-50 0 -84 12q4 98 4 310q0 98 -2 360t-2 452l-206 18z" />
<glyph unicode="&#x45c;" horiz-adv-x="804" d="M82 82q8 336 8 632q0 218 18 346l90 -32q16 -78 18 -223t4 -179q60 10 105 62t74 118t61 130t83 108t121 44q36 0 112 -24l-8 -68q-12 2 -32 2q-80 0 -139 -67t-88 -148t-73 -155t-96 -86q74 -18 127 -100t80 -169t79 -158t128 -71q20 0 44 6l6 -88q-48 -12 -68 -12 q-76 0 -138 50t-102 122t-75 144t-75 122t-82 50q-16 0 -30 -6q8 -120 28 -388q-18 -62 -70 -62q-36 0 -69 29t-41 71zM276 1200q4 6 49 52t93 101t64 93q12 8 36 8q36 0 70 -15t34 -37q0 -48 -107 -138t-179 -120z" />
<glyph unicode="&#x45e;" horiz-adv-x="874" d="M40 1038l116 -6q10 -48 43 -219t53 -253t71 -205t117 -207q278 534 278 876v22q104 -16 156 -38q-32 -210 -100 -428t-170 -439t-181 -371t-197 -362l-124 70q82 142 290 540q-162 144 -248 436t-104 584zM208 1256q48 -6 96 -6q138 0 254 76q46 -4 78 -28t32 -56 q0 -26 -18 -42t-54 -23t-60 -8t-64 -1q-138 0 -248 24z" />
<glyph unicode="&#x45f;" horiz-adv-x="896" d="M82 866q8 42 41 71t69 29q52 0 70 -60q-4 -58 -8 -414t-10 -422q84 8 250 8h166q-2 52 -8 228t-11 366t-7 228q8 42 42 71t70 29q52 0 70 -62l-46 -968h-272l-18 -262l-90 20l-20 240h-274q-12 136 -12 338q0 70 2 189t2 171q0 102 -6 200z" />
<glyph unicode="&#x490;" horiz-adv-x="860" d="M82 52q22 252 28 1178q0 34 1 104t1 110q108 -6 218 -6q44 0 132 1t132 1h82l32 238l90 20l40 -266h2l20 -90q-88 -6 -308 -19t-308 -21q6 -190 8 -636t10 -654q-18 -62 -70 -62q-36 0 -69 30t-41 72z" />
<glyph unicode="&#x491;" horiz-adv-x="746" d="M82 112q0 132 6 283t18 346t16 285q82 6 241 24t205 22l32 236l90 22q12 -90 23 -160t17 -104t11 -57t6 -31t1 -12q0 -60 -80 -68q-74 6 -224 20t-228 20q2 -122 24 -396t22 -418q0 -124 -98 -124q-82 0 -82 112z" />
<glyph unicode="&#x2000;" horiz-adv-x="953" />
<glyph unicode="&#x2001;" horiz-adv-x="1906" />
<glyph unicode="&#x2002;" horiz-adv-x="953" />
<glyph unicode="&#x2003;" horiz-adv-x="1906" />
<glyph unicode="&#x2004;" horiz-adv-x="635" />
<glyph unicode="&#x2005;" horiz-adv-x="476" />
<glyph unicode="&#x2006;" horiz-adv-x="317" />
<glyph unicode="&#x2007;" horiz-adv-x="317" />
<glyph unicode="&#x2008;" horiz-adv-x="238" />
<glyph unicode="&#x2009;" horiz-adv-x="381" />
<glyph unicode="&#x200a;" horiz-adv-x="105" />
<glyph unicode="&#x2010;" horiz-adv-x="866" d="M40 686l666 46q50 -2 85 -37t35 -75q0 -26 -20 -46t-60 -24l-684 46z" />
<glyph unicode="&#x2011;" horiz-adv-x="866" d="M40 686l666 46q50 -2 85 -37t35 -75q0 -26 -20 -46t-60 -24l-684 46z" />
<glyph unicode="&#x2012;" horiz-adv-x="866" d="M40 686l666 46q50 -2 85 -37t35 -75q0 -26 -20 -46t-60 -24l-684 46z" />
<glyph unicode="&#x2013;" horiz-adv-x="1288" d="M40 712q324 4 545 11t559 13q46 -2 75 -26t29 -52q0 -24 -22 -42t-66 -22q-262 0 -503 5t-601 5z" />
<glyph unicode="&#x2014;" horiz-adv-x="1842" d="M40 712q198 2 719 6t941 12q46 -2 74 -26t28 -52q0 -24 -22 -42t-66 -22q-262 0 -780 8t-878 8z" />
<glyph unicode="&#x2018;" horiz-adv-x="334" d="M40 1348q0 94 63 156t189 68l2 -62q-142 -48 -142 -136q0 -14 8 -46q28 4 38 4q38 0 60 -51t22 -99q0 -44 -19 -71t-53 -27q-76 0 -122 88t-46 176z" />
<glyph unicode="&#x2019;" horiz-adv-x="334" d="M40 1146q144 50 144 136q0 16 -8 48q-28 -4 -38 -4q-38 0 -60 51t-22 97q0 44 18 71t52 27q76 0 122 -88t46 -176q0 -94 -62 -156t-188 -68z" />
<glyph unicode="&#x201a;" horiz-adv-x="416" d="M82 -176q144 50 144 136q0 14 -8 46q-28 -4 -40 -4q-38 0 -60 51t-22 99q0 44 19 71t53 27q76 0 122 -88t46 -176q0 -94 -63 -157t-189 -69z" />
<glyph unicode="&#x201c;" horiz-adv-x="716" d="M40 1360q0 94 63 157t189 69l2 -64q-142 -48 -142 -136q0 -14 8 -46q28 4 38 4q38 0 60 -51t22 -99q0 -44 -19 -71t-53 -27q-76 0 -122 88t-46 176zM422 1348q0 94 63 156t189 68l2 -62q-144 -50 -144 -136q0 -14 8 -46q28 4 40 4q38 0 60 -51t22 -99q0 -44 -19 -71 t-53 -27q-76 0 -122 88t-46 176z" />
<glyph unicode="&#x201d;" horiz-adv-x="716" d="M40 1160q74 24 109 56t35 78q0 16 -8 48q-28 -4 -38 -4q-38 0 -60 51t-22 97q0 44 18 72t52 28q76 0 122 -89t46 -177q0 -94 -62 -156t-188 -68zM422 1146q144 50 144 136q0 16 -8 48q-28 -4 -40 -4q-38 0 -60 51t-22 97q0 44 19 71t53 27q76 0 122 -88t46 -176 q0 -94 -63 -156t-189 -68z" />
<glyph unicode="&#x201e;" horiz-adv-x="798" d="M82 -176q144 50 144 136q0 14 -8 46q-28 -4 -40 -4q-38 0 -60 51t-22 99q0 44 19 71t53 27q76 0 122 -88t46 -176q0 -94 -63 -157t-189 -69zM462 -188q74 24 109 56t35 78q0 16 -8 48q-28 -4 -38 -4q-38 0 -60 51t-22 99q0 44 18 71t52 27q76 0 122 -88t46 -176 q0 -94 -63 -157t-189 -69z" />
<glyph unicode="&#x2022;" horiz-adv-x="628" d="M82 732q0 82 47 158t155 76q144 0 203 -74t59 -176q0 -72 -62 -146t-180 -74q-106 0 -164 71t-58 165z" />
<glyph unicode="&#x2026;" horiz-adv-x="1218" d="M82 152q0 44 19 71t53 27q54 0 90 -47t36 -107q0 -44 -21 -71t-57 -27q-56 0 -88 46t-32 108zM510 152q0 44 19 71t53 27q54 0 90 -47t36 -107q0 -44 -21 -71t-57 -27q-56 0 -88 46t-32 108zM938 152q0 44 19 71t53 27q54 0 90 -47t36 -107q0 -44 -21 -71t-57 -27 q-56 0 -88 46t-32 108z" />
<glyph unicode="&#x202f;" horiz-adv-x="381" />
<glyph unicode="&#x2039;" horiz-adv-x="954" d="M0 504q0 80 16 152q72 26 223 86t321 123t364 125l30 -116l-754 -328q76 -58 218 -146t287 -173t177 -105l6 -128q-130 58 -240 121t-304 182t-344 207z" />
<glyph unicode="&#x203a;" horiz-adv-x="954" d="M0 874l30 116q194 -62 364 -125t321 -123t223 -86q16 -72 16 -152q-150 -88 -344 -207t-304 -182t-240 -121l6 128q32 20 177 105t287 173t218 146z" />
<glyph unicode="&#x205f;" horiz-adv-x="476" />
<glyph unicode="&#x20ac;" horiz-adv-x="1178" d="M40 804q0 40 35 75t85 37q14 -2 36 -2q16 108 47 200t82 173t134 127t187 46q116 0 239 -40t211 -100l-80 -92q-156 116 -308 116q-308 0 -358 -438q286 -10 552 -30l-22 -90q-394 -32 -542 -40q0 -142 4 -166q220 18 482 30q50 -2 84 -36t34 -74q0 -26 -20 -46t-60 -24 q-126 6 -281 10t-211 6q44 -154 129 -262t205 -108q126 0 386 132q32 -48 70 -126q-252 -174 -452 -174q-100 0 -186 47t-147 127t-103 173t-66 199q-12 0 -134 10l-20 92q16 2 64 5t72 5q-8 54 -8 118v54q-8 0 -28 -1t-32 -1q-80 8 -80 68z" />
<glyph unicode="&#x2122;" horiz-adv-x="1264" d="M0 1428q88 4 256 13t250 13q28 -2 50 -23t22 -43q0 -34 -50 -40l-224 12q6 -94 7 -267t5 -247q-12 -38 -44 -38q-20 0 -39 18t-25 42q16 252 36 494l-232 12zM540 830q6 90 66 313t72 295q14 0 33 -3t29 -3q32 -54 86 -206t72 -192q94 266 162 382l82 6q56 -152 124 -602 q-24 -6 -42 -6q-20 0 -42 6q-16 66 -40 232t-42 236q-64 -98 -158 -352q-52 -8 -62 -8q-6 0 -30 4q-18 44 -56 154t-62 168q-114 -288 -144 -438z" />
<glyph unicode="&#x25fc;" horiz-adv-x="1030" d="M0 0v1030h1030v-1030h-1030z" />
</font>
</defs>
</svg>
