<?xml version="1.0" encoding="utf-8"?>
<!-- Generator: Adobe Illustrator 17.0.0, SVG Export Plug-In . SVG Version: 6.00 Build 0)  -->
<!DOCTYPE svg PUBLIC "-//W3C//DTD SVG 1.1//EN" "http://www.w3.org/Graphics/SVG/1.1/DTD/svg11.dtd">
<svg version="1.1" id="Layer_1" xmlns="http://www.w3.org/2000/svg" xmlns:xlink="http://www.w3.org/1999/xlink" x="0px" y="0px"
	 width="24.179px" height="25.49px" viewBox="0 0 24.179 25.49" enable-background="new 0 0 24.179 25.49" xml:space="preserve">
<path fill="#F15A29" d="M23.384,11.103C20.903,5.806,11.655,4.83,6.97,6.989C5.214,7.798,6.739,10.415,8.486,9.61
	c3.414-1.573,11.726-0.525,12.479,3.958c0.828,4.932-4.722,7.6-8.355,9.164c-1.772,0.763-0.244,3.379,1.515,2.621
	C19.403,23.081,26.59,17.948,23.384,11.103z M4.59,8.635C7.025,6.597,9.46,4.558,11.894,2.52c1.49-1.247-0.645-3.385-2.123-2.147
	C6.662,2.977,3.552,5.58,0.443,8.184c-0.851,0.713-0.392,2.32,0.662,2.537c2.523,0.519,4.581,1.68,6.325,3.594
	c1.312,1.44,3.431-0.711,2.123-2.147C8.131,10.606,6.463,9.427,4.59,8.635z"/>
</svg>
