<?xml version="1.0" encoding="utf-8"?>
<!-- Generator: Adobe Illustrator 17.0.0, SVG Export Plug-In . SVG Version: 6.00 Build 0)  -->
<!DOCTYPE svg PUBLIC "-//W3C//DTD SVG 1.1//EN" "http://www.w3.org/Graphics/SVG/1.1/DTD/svg11.dtd">
<svg version="1.1" id="Layer_1" xmlns="http://www.w3.org/2000/svg" xmlns:xlink="http://www.w3.org/1999/xlink" x="0px" y="0px"
	 width="23.678px" height="23.457px" viewBox="0 0 23.678 23.457" enable-background="new 0 0 23.678 23.457" xml:space="preserve">
<g>
	<path fill="#F15A29" d="M23.181,20.287c-3.195-2.714-6.119-5.735-9.029-8.781c0.071-0.069,0.139-0.136,0.21-0.205
		c2.707-2.627,5.303-5.609,8.059-8.153c0.571-0.213,0.99-0.772,0.995-1.404c0.001-0.062,0.001-0.123,0.002-0.185
		c0.011-1.36-1.746-2.028-2.688-1.188c-2.968,2.647-5.68,5.916-8.574,8.725c-0.055,0.053-0.11,0.105-0.164,0.158
		C9.011,6.145,5.984,3.079,2.632,0.36C1.148-0.845-0.989,1.264,0.511,2.481c3.335,2.706,6.349,5.755,9.316,8.848
		c-3.2,3.046-6.399,6.065-9.204,9.498c-1.21,1.481,0.898,3.618,2.121,2.122c3.424-3.564,6.258-6.404,9.262-9.348
		c2.918,3.055,5.85,6.086,9.054,8.808C22.521,23.65,24.655,21.539,23.181,20.287z"/>
</g>
</svg>
