<?xml version="1.0" encoding="utf-8"?>
<!-- Generator: Adobe Illustrator 17.0.0, SVG Export Plug-In . SVG Version: 6.00 Build 0)  -->
<!DOCTYPE svg PUBLIC "-//W3C//DTD SVG 1.1//EN" "http://www.w3.org/Graphics/SVG/1.1/DTD/svg11.dtd">
<svg version="1.1" id="Layer_1" xmlns="http://www.w3.org/2000/svg" xmlns:xlink="http://www.w3.org/1999/xlink" x="0px" y="0px"
	 width="16.575px" height="16.42px" viewBox="0 0 16.575 16.42" enable-background="new 0 0 16.575 16.42" xml:space="preserve">
<g>
	<g>
		<path fill="#C2C2C2" d="M16.227,14.201c-2.237-1.9-4.284-4.015-6.32-6.147c0.05-0.048,0.097-0.095,0.147-0.143
			c1.898-1.841,3.717-3.932,5.649-5.714c0.396-0.152,0.685-0.537,0.689-0.976c0-0.043,0.001-0.086,0.001-0.129
			c0.008-0.952-1.222-1.419-1.881-0.831c-2.078,1.853-3.976,4.141-6.002,6.107C8.471,6.404,8.433,6.44,8.394,6.477
			C6.308,4.302,4.188,2.155,1.843,0.252C0.804-0.592-0.692,0.885,0.358,1.736c2.334,1.894,4.443,4.028,6.52,6.193
			c-2.24,2.132-4.478,4.247-6.442,6.65c-0.847,1.037,0.629,2.533,1.485,1.485c2.397-2.495,4.38-4.483,6.483-6.544
			c2.042,2.138,4.095,4.26,6.338,6.166C15.765,16.555,17.259,15.077,16.227,14.201z"/>
	</g>
	<g>
		<path fill="#C2C2C2" d="M16.227,14.201c-2.237-1.9-4.284-4.015-6.32-6.147c0.05-0.048,0.097-0.095,0.147-0.143
			c1.898-1.841,3.717-3.932,5.649-5.714c0.396-0.152,0.685-0.537,0.689-0.976c0-0.043,0.001-0.086,0.001-0.129
			c0.008-0.952-1.222-1.419-1.881-0.831c-2.078,1.853-3.976,4.141-6.002,6.107C8.471,6.404,8.433,6.44,8.394,6.477
			C6.308,4.302,4.188,2.155,1.843,0.252C0.804-0.592-0.692,0.885,0.358,1.736c2.334,1.894,4.443,4.028,6.52,6.193
			c-2.24,2.132-4.478,4.247-6.442,6.65c-0.847,1.037,0.629,2.533,1.485,1.485c2.397-2.495,4.38-4.483,6.483-6.544
			c2.042,2.138,4.095,4.26,6.338,6.166C15.765,16.555,17.259,15.077,16.227,14.201z"/>
	</g>
</g>
</svg>
