<?xml version="1.0" encoding="utf-8"?>
<!-- Generator: Adobe Illustrator 17.0.0, SVG Export Plug-In . SVG Version: 6.00 Build 0)  -->
<!DOCTYPE svg PUBLIC "-//W3C//DTD SVG 1.1//EN" "http://www.w3.org/Graphics/SVG/1.1/DTD/svg11.dtd">
<svg version="1.1" id="Layer_1" xmlns="http://www.w3.org/2000/svg" xmlns:xlink="http://www.w3.org/1999/xlink" x="0px" y="0px"
	 width="36px" height="46px" viewBox="0 0 36 46" enable-background="new 0 0 36 46" xml:space="preserve">
<path fill="#F15A29" d="M35.166,0H0.833L0,0.839v44.32L0.833,46h34.333L36,45.159V0.839L35.166,0z M34.437,44.199H1.639V1.647
	h32.798V44.199z M28.753,8.839c-7.042-1.308-14.12,0.738-21.08-0.437c-1.858-0.313-2.654,2.55-0.783,2.865
	c6.991,1.18,14.048-0.869,21.08,0.437C29.827,12.049,30.62,9.185,28.753,8.839z M24.072,19.466c1.852,0.41,2.639-2.454,0.783-2.865
	c-5.69-1.261-11.361,0.942-17.038-0.146c-1.856-0.356-2.648,2.508-0.783,2.866C12.727,20.411,18.433,18.216,24.072,19.466z
	 M28.095,25.822c-1.931-1.276-5.285-0.706-7.452-0.658c-3.935,0.087-8.121,1.644-11.959,0.363c-1.809-0.604-2.578,2.266-0.783,2.865
	c3.51,1.172,7.177,0.25,10.744-0.169c1.898-0.223,6.36-0.895,7.963,0.165C28.202,29.442,29.677,26.868,28.095,25.822z"/>
</svg>
