<?xml version="1.0" encoding="utf-8"?>
<!-- Generator: Adobe Illustrator 17.0.0, SVG Export Plug-In . SVG Version: 6.00 Build 0)  -->
<!DOCTYPE svg PUBLIC "-//W3C//DTD SVG 1.1//EN" "http://www.w3.org/Graphics/SVG/1.1/DTD/svg11.dtd">
<svg version="1.1" id="Layer_1" xmlns="http://www.w3.org/2000/svg" xmlns:xlink="http://www.w3.org/1999/xlink" x="0px" y="0px"
	 width="86px" height="52px" viewBox="0 0 86 52" enable-background="new 0 0 86 52" xml:space="preserve">
<path fill="#F15A29" d="M85.05,5.547C82.285,1.05,72.603-1.289,70.111,4.676c-1.965,4.679,3.048,10.756,7.768,7.403
	c1.772-1.266,2.552-3.909,1.013-5.59c-1.924-2.157-3.241,1.013-3.838,2.572c-0.577,1.296-2.137,1.377-3.241,0.122
	c-0.93-1.843-0.459-4.085,1.134-5.398c2.826-1.955,7.383-0.405,9.712,1.691c4.74,4.335-1.013,10.351-5.347,11.697
	c-3.484,1.074-7.363,0.861-10.938,0.608c-4.885-0.332-9.747-0.937-14.564-1.813c-8.477-1.55-16.265-5.439-24.479-7.829
	C21.195,6.316,13.305,5.121,7.229,7.775c-4.659,2.036-7.97,6.461-6.978,11.708c0.891,4.74,6.127,5.489,9.915,4.274
	c3.362-1.074,5.489-3.96,4.355-7.494s-5.044-2.856-6.806-0.385c-0.132,0.182-0.932,2.107,1.924,3.2
	c0.689,0.243,1.428,0.354,2.127,0.577l0.172,0.081c0,0.385-0.061,0.547-0.415,1.114c-0.315,0.601-0.788,1.105-1.367,1.458
	c-3.038,1.357-6.998,0.851-8.376-2.562c-1.266-3.119,0.557-6.715,2.775-8.811c3.18-3.038,8.011-3.281,12.153-3.15
	c8.639,0.263,16.741,3.98,24.762,6.856s16.458,4.051,24.955,4.72c5.742,0.446,13.45,0.638,17.491-4.335
	C86.052,12.292,86.974,8.676,85.05,5.547z"/>
<path fill="#FFFFFF" d="M85.05,31.473c-2.765-4.497-12.447-6.836-14.938-0.871c-1.965,4.679,3.048,10.756,7.768,7.403
	c1.772-1.266,2.552-3.909,1.013-5.59c-1.924-2.157-3.241,1.013-3.838,2.572c-0.577,1.296-2.137,1.377-3.241,0.122
	c-0.93-1.843-0.459-4.085,1.134-5.398c2.826-1.955,7.383-0.405,9.712,1.691c4.74,4.335-1.013,10.351-5.347,11.697
	c-3.484,1.074-7.363,0.861-10.938,0.608c-4.885-0.332-9.747-0.937-14.564-1.813c-8.477-1.55-16.265-5.439-24.479-7.829
	c-6.137-1.823-14.027-3.018-20.103-0.365c-4.659,2.036-7.97,6.461-6.978,11.708c0.891,4.74,6.127,5.489,9.915,4.274
	c3.362-1.074,5.489-3.96,4.355-7.494s-5.044-2.856-6.806-0.385c-0.132,0.182-0.932,2.107,1.924,3.2
	c0.689,0.243,1.428,0.354,2.127,0.577l0.172,0.081c0,0.385-0.061,0.547-0.415,1.114c-0.315,0.601-0.788,1.105-1.367,1.458
	c-3.038,1.357-6.998,0.851-8.376-2.562c-1.266-3.119,0.557-6.715,2.775-8.811c3.18-3.038,8.011-3.281,12.153-3.15
	c8.639,0.263,16.741,3.98,24.762,6.856c8.021,2.876,16.458,4.051,24.955,4.72c5.742,0.446,13.45,0.638,17.491-4.335
	C86.052,38.218,86.974,34.603,85.05,31.473z"/>
</svg>
