<svg id="Слой_1" data-name="Слой 1" xmlns="http://www.w3.org/2000/svg" viewBox="0 0 28.79 28.64"><defs><style>.cls-1{fill:#f15a29;}</style></defs><title>2</title><path class="cls-1" d="M28.77,4l0-1.07v-1l0-.14a.62.62,0,0,0,0-.08l0-.11-.07-.22,0-.11,0-.09L28.4,1a1.75,1.75,0,0,0-.24-.32,1.66,1.66,0,0,0-.3-.27,1.58,1.58,0,0,0-.34-.21L27.35.14,27.15.09,27,0l-.2,0h-.35L21.85.18c-3.1.12-6.31.21-9.56.19L9.83.36,7.36.32,4.89.25,2.36.17,2,.19a3.13,3.13,0,0,0-.44.12,2.77,2.77,0,0,0-.36.2A2.1,2.1,0,0,0,.93.78a2,2,0,0,0-.44.7,1.53,1.53,0,0,0-.1.41l0,.21c0,.07,0,.11,0,.16L.28,4.74.21,7.21q0,1.23,0,2.45L0,19.22q0,2.33,0,4.57Q0,24.91,0,26v.24s0,.2,0,.13l0,.27a3.82,3.82,0,0,0,.14.5,3.33,3.33,0,0,0,.2.39,2.4,2.4,0,0,0,1.34,1l.21.06.21,0,.21,0H4.08l2,0c1.34,0,2.63-.07,3.87-.12,2.48-.09,4.76-.23,6.77-.34L19.58,28,22,27.9c1.45,0,2.58-.06,3.36-.06h1.2l.3,0a1.69,1.69,0,0,0,.82-.44,3,3,0,0,0,.2-.25l.09-.15,0-.08,0-.09.06-.19a1.75,1.75,0,0,0,0-.2,3.12,3.12,0,0,0,0-.41c0-.56,0-1.21,0-1.93s0-1.53.09-2.4.08-1.82.13-2.82l.17-3.21c0-1.13.11-2.32.15-3.56C28.78,9.58,28.81,6.89,28.77,4Zm-.86,22.33a1.53,1.53,0,0,1,0,.18l0,.16,0,.08,0,.07-.07.14c-.05.09-.12.15-.18.23a1.54,1.54,0,0,1-.71.4l-.3,0H25.34c-.78,0-1.91,0-3.36-.06l-2.36-.09V17.25h3.52l.53-4.09H19.62V10.54c0-1.18.33-2,2-2h2.17V4.89a29,29,0,0,0-3.16-.16c-3.12,0-5.26,1.91-5.26,5.41v3H11.86v4.09h3.53v10c-1.66-.09-3.47-.19-5.41-.26-1.24,0-2.53-.1-3.87-.12l-2,0H2.29l0,0a.6.6,0,0,1-.33-.26s0-.07,0-.09,0,0,0,0l0-.24h0V26q0-1.09,0-2.21,0-2.24,0-4.57L1.66,9.66l0-2.45L1.55,4.74,1.46,2.26s0-.11,0-.15V2a.58.58,0,0,1,0-.2.92.92,0,0,1,.18-.36c0-.06.1-.09.15-.15s.12-.07.17-.11l.15-.07.3,0L4.89,1,7.36,1l2.47,0,2.45,0c3.26,0,6.46.07,9.56.19l4.57.18h.29l.07,0,.07,0,.07,0a.42.42,0,0,1,.12.09.45.45,0,0,1,.1.11.48.48,0,0,1,.08.13s.06.1,0,.12V1.9a.25.25,0,0,1,0,.06v.2h0V3l0,1.07c0,2.84,0,5.53.07,8,0,1.24.1,2.43.15,3.56l.17,3.21c.05,1,.1,2,.13,2.82s.07,1.67.09,2.4,0,1.37,0,1.93A2.93,2.93,0,0,1,27.91,26.38Z"/></svg>