<?xml version="1.0" encoding="utf-8"?>
<!-- Generator: Adobe Illustrator 17.0.0, SVG Export Plug-In . SVG Version: 6.00 Build 0)  -->
<!DOCTYPE svg PUBLIC "-//W3C//DTD SVG 1.1//EN" "http://www.w3.org/Graphics/SVG/1.1/DTD/svg11.dtd">
<svg version="1.1" id="Layer_1" xmlns="http://www.w3.org/2000/svg" xmlns:xlink="http://www.w3.org/1999/xlink" x="0px" y="0px"
	 width="318.567px" height="204.65px" viewBox="0 0 318.567 204.65" enable-background="new 0 0 318.567 204.65"
	 xml:space="preserve">
<g>
	<g>
		<path fill="#F15A29" d="M187.431,4.642C143.634-8.827,94.746,7.621,69.486,46.133c-25.234,38.473-19.941,89.208,10.235,123.216
			c30.356,34.211,82.441,44.82,123.952,26.247c36.175-16.186,59.022-52.881,59.297-92.218
			C262.648,57.303,230.927,18.019,187.431,4.642z M251.248,101.381c-0.324,46.431-34.253,87.395-80.078,95.465
			c-46.136,8.124-89.56-22.084-102.463-66.255c-13.094-44.826,9.074-93.72,50.612-114.357c20.446-10.158,44.477-12.416,66.388-6.005
			c21.191,6.201,39.034,20.867,50.809,39.35C246.342,65.003,251.121,83.166,251.248,101.381z M208.475,38.605
			c0.548,0.464,1.259,2.509,2.171,3.28c22.939,19.421,31.561,50.346,24.32,79.2c-5.377,21.429-20.119,39.664-39.252,50.398
			c-20.235,11.352-45.022,12.802-66.713,4.968c-23.993-8.665-41.923-28.739-48.118-53.427c-6.091-24.273,0.21-50.315,15.684-69.748
			c15.122-18.992,38.587-29.734,62.692-29.94c-0.478,0.004-1.355-3.345-2.344-3.336c-46.459,0.397-83.224,40.033-80.456,86.386
			c2.497,41.816,38.503,76.552,79.999,78.325c35.002,1.495,67.12-21.213,78.902-53.891C247.292,97.727,234.76,60.859,208.475,38.605
			z M132.588,104.186c-1.101-0.151-2.752-0.275-4.953-0.376c0.15-2.754,0.312-8.049,0.488-15.889
			c0.175-7.836,0.312-12.932,0.413-15.286c-2.702-0.651-4.829-0.976-6.38-0.976c-5.154,6.811-11.909,17.252-20.265,31.324
			c0,0.351,0.012,0.864,0.037,1.541c0.025,0.675,0.038,1.164,0.038,1.464c0,0.451-0.05,1.277-0.15,2.479
			c1.201-0.1,2.151-0.15,2.852-0.15c1.451,0,3.74,0.088,6.868,0.262c3.126,0.176,5.441,0.263,6.942,0.263
			c0.95,0,2.226-0.05,3.828-0.15c-0.3,8.663-0.477,13.772-0.525,15.323c0.199,1.053,0.725,1.954,1.576,2.705
			c0.85,0.751,1.726,1.127,2.627,1.127c1.25,0,2.102-0.778,2.552-2.329c-0.05-2.254-0.163-5.132-0.338-8.638
			c-0.176-3.505-0.313-6.41-0.413-8.714c1.1-0.1,2.952-0.301,5.554-0.601L132.588,104.186z M122.906,90.965
			c-0.15,5.61-0.3,9.841-0.45,12.695l-15.086-0.45c0.8-1.152,3.139-5.071,7.018-11.756c3.877-6.685,6.842-11.081,8.894-13.184
			C123.18,81.125,123.056,85.357,122.906,90.965z M145.185,77.631c-2.747,4.784-4.144,12.583-4.194,23.399
			c0,18.38,5.791,27.57,17.373,27.57c2.995,0,5.703-1.541,8.125-4.62c2.421-3.079,4.219-6.685,5.391-10.817
			c1.173-4.131,1.76-8.174,1.76-12.132c-0.101-2.903-0.287-5.644-0.562-8.225c-0.274-2.579-0.787-5.308-1.535-8.188
			c-0.749-2.88-1.685-5.359-2.809-7.437c-1.124-2.078-2.633-3.794-4.53-5.146c-1.898-1.353-4.069-2.029-6.515-2.029
			C152.099,70.308,147.931,72.85,145.185,77.631z M168.012,102.984c0,4.407-1.013,8.764-3.04,13.071
			c-2.027,4.307-4.591,6.46-7.693,6.46c-2.052-0.2-3.803-1.001-5.254-2.404c-1.452-1.402-2.514-3.23-3.19-5.484
			c-0.675-2.254-1.138-4.42-1.388-6.498c-0.251-2.078-0.375-4.269-0.375-6.574c0.1-1.151,0.188-2.641,0.262-4.47
			c0.075-1.827,0.138-3.305,0.188-4.432c0.049-1.127,0.162-2.465,0.338-4.019c0.175-1.551,0.375-2.817,0.6-3.794
			c0.225-0.976,0.563-2.04,1.014-3.193c0.45-1.15,0.987-2.077,1.614-2.778c0.625-0.701,1.413-1.327,2.364-1.878
			c0.95-0.551,2.027-0.951,3.227-1.202C164.233,75.992,168.012,85.056,168.012,102.984z M182.719,108.319
			c1.451,0,3.74,0.088,6.868,0.262c3.126,0.176,5.442,0.263,6.943,0.263c0.949,0,2.225-0.05,3.827-0.15
			c-0.3,8.663-0.476,13.772-0.526,15.323c0.199,1.053,0.725,1.954,1.576,2.705c0.85,0.751,1.726,1.127,2.627,1.127
			c1.25,0,2.101-0.778,2.552-2.329c-0.051-2.254-0.163-5.132-0.338-8.638c-0.176-3.505-0.313-6.41-0.412-8.714
			c1.099-0.1,2.952-0.301,5.554-0.601l-0.751-3.381c-1.101-0.151-2.752-0.275-4.953-0.376c0.151-2.754,0.312-8.049,0.488-15.889
			c0.175-7.836,0.312-12.932,0.413-15.286c-2.703-0.651-4.829-0.976-6.38-0.976c-5.154,6.811-11.909,17.252-20.265,31.324
			c0,0.351,0.012,0.864,0.037,1.541c0.025,0.675,0.038,1.164,0.038,1.464c0,0.451-0.05,1.277-0.15,2.479
			C181.068,108.368,182.018,108.319,182.719,108.319z M192.439,91.454c3.877-6.685,6.841-11.081,8.894-13.184
			c-0.101,2.854-0.225,7.087-0.375,12.695c-0.149,5.61-0.3,9.841-0.451,12.695l-15.086-0.45
			C186.222,102.058,188.561,98.139,192.439,91.454z M315.983,21.641c0.167-0.369,0.267-0.588,0.283-0.623l-3.638-1.673
			c-1.291,2.813-31.566,69.141-25.903,90.585c4.26,16.135,16.685,18.469,23.514,18.468c0.78,0,1.477-0.032,2.091-0.076v53.453
			c0,2.279,1.416,4.64,2.972,6.214c0.761,0.77,3.264,2.413,3.264,0.103V27.431C318.567,25.345,317.378,23.198,315.983,21.641z
			 M312.33,124.335c-4.684,0.459-17.6,0.229-21.734-15.429c-4.128-15.631,13.567-59.837,21.734-78.928V124.335z M29.957,25.944
			c0.218,13.066-0.04,26.147-0.233,39.212c-0.085,5.736,0.567,12.162-0.629,17.799c-0.64,3.018-2.429,5.714-4.645,7.795
			c-3.878,3.641-5.711-0.834-6.063-4.394c-0.035-0.353-0.178-0.612-0.381-0.803c1.283-6.526,0.8-14.545,0.815-18.134
			c0.052-13.147,0.295-26.346,0-39.487c-0.058-2.589-4.145-2.023-4.094,0.232c0.258,11.506-0.223,23.018-0.038,34.525
			c0.083,5.139,0.045,10.28-0.299,15.41c-0.219,3.27-0.134,11.22-3.225,13.389c-2.825,1.982-5.304-7.481-5.541-8.594
			c-1.38-6.476-1.471-13.271-1.544-19.862C3.947,50.916,5.054,38.788,4.714,26.679c-0.073-2.587-4.158-2.022-4.094,0.232
			c0.4,14.247-1.051,28.487-0.488,42.748C0.364,75.537,0.25,96.99,11.061,95.231c0.722-0.117,1.371-0.359,1.967-0.686
			c0.118,31.219-2.423,62.528,0.323,93.691c0.358,4.06,7.333,4.736,6.915-0.009c-2.722-30.897-0.065-61.983-0.235-92.938
			c1.255,0.15,2.702-0.1,4.355-0.886c6.166-2.933,9.089-10.033,9.222-16.476c0.361-17.582,0.76-35.201,0.466-52.786
			C34.037,22.975,29.925,24.034,29.957,25.944z"/>
	</g>
</g>
</svg>
