<svg id="Слой_1" data-name="Слой 1" xmlns="http://www.w3.org/2000/svg" viewBox="0 0 97.88 97.88"><defs><style>.cls-1{fill:#fff;}</style></defs><title>1</title><path class="cls-1" d="M0,12.29v-1a.5.5,0,0,1,.5-.5H52.12a3.49,3.49,0,1,0-3.49-3.49.5.5,0,0,1-.5.5h-1a.5.5,0,0,1-.5-.5,5.49,5.49,0,1,1,5.49,5.49H.5A.5.5,0,0,1,0,12.29Zm56.61-5h0Zm5,0a7.31,7.31,0,1,1,7.31,7.3.5.5,0,0,1-.5-.5v-1a.5.5,0,0,1,.5-.5,5.3,5.3,0,1,0-5.31-5.3c0,3.19,1,5.84,2.76,7.47A8.36,8.36,0,0,0,73,16.63c5.22-.46,10.79-4.56,14.55-7.92A63.83,63.83,0,0,1,94.44,2a.5.5,0,0,1,.7.08l.63.78a.5.5,0,0,1-.08.7c-.14.11-13.58,11.07-14.45,20.84a8.32,8.32,0,0,0,1.85,6.64c1.63,1.78,4.28,2.76,7.48,2.76a5.3,5.3,0,1,0-5.31-5.3.5.5,0,0,1-.5.5h-1a.5.5,0,0,1-.5-.5,7.31,7.31,0,1,1,7.31,7.3c-3.76,0-6.94-1.21-9-3.4a10.23,10.23,0,0,1-2.37-8.16,21.59,21.59,0,0,1,3.57-9.38,21.93,21.93,0,0,1-9.66,3.74q-.69.06-1.34.06A9.76,9.76,0,0,1,65,16.25C62.79,14.24,61.58,11.06,61.58,7.31Zm1,0h0Zm0,.1h0ZM83.19,32.53a8,8,0,0,1-.84-.79,7.8,7.8,0,0,1-.52-.64,7.79,7.79,0,0,0,.52.64A7.93,7.93,0,0,0,83.19,32.53Zm13.69-4h0ZM81.31,1.79a1.79,1.79,0,0,1,.28-1A2,2,0,0,1,83.27,0a1.84,1.84,0,0,1,1.64.71c.86,1.14.68,3.59-.55,7.28a.77.77,0,0,1-.82.53.78.78,0,0,1-.7-.69h0A16.22,16.22,0,0,0,82,4.57,9.68,9.68,0,0,1,81.31,1.79Zm2,6h0Zm.5-.06h0Zm1.23,89.67V45.81a5.49,5.49,0,1,1,5.49,5.49.5.5,0,0,1-.5-.5v-1a.5.5,0,0,1,.5-.5,3.49,3.49,0,1,0-3.49-3.49V97.38a.5.5,0,0,1-.5.5h-1A.5.5,0,0,1,85.08,97.38Zm4.27-83a.77.77,0,0,1,.53-.74c3.7-1.22,6.15-1.41,7.29-.55a1.81,1.81,0,0,1,.71,1.64,2,2,0,0,1-.75,1.68c-.88.6-2.25.14-3.83-.4A16.25,16.25,0,0,0,90,15.12h0a.79.79,0,0,1-.7-.78Zm.76.28h0Zm.06-.5h0Z"/></svg>