<svg id="Слой_1" data-name="Слой 1" xmlns="http://www.w3.org/2000/svg" viewBox="0 0 97.88 97.88"><defs><style>.cls-1{fill:#fff;}</style></defs><title>1</title><path class="cls-1" d="M97.88,85.59v1a.5.5,0,0,1-.5.5H45.76a3.49,3.49,0,1,0,3.49,3.49.5.5,0,0,1,.5-.5h1a.5.5,0,0,1,.5.5,5.49,5.49,0,1,1-5.49-5.49H97.38A.5.5,0,0,1,97.88,85.59Zm-56.61,5h0Zm-5,0A7.31,7.31,0,1,1,29,83.27a.5.5,0,0,1,.5.5v1a.5.5,0,0,1-.5.5,5.3,5.3,0,1,0,5.31,5.3c0-3.19-1-5.84-2.76-7.47a8.36,8.36,0,0,0-6.64-1.85c-5.22.46-10.79,4.56-14.55,7.92a63.83,63.83,0,0,1-6.9,6.67.5.5,0,0,1-.7-.08L2.12,95a.5.5,0,0,1,.08-.7c.14-.11,13.58-11.07,14.45-20.84a8.32,8.32,0,0,0-1.85-6.64c-1.63-1.78-4.28-2.76-7.48-2.76a5.3,5.3,0,1,0,5.31,5.3.5.5,0,0,1,.5-.5h1a.5.5,0,0,1,.5.5,7.31,7.31,0,1,1-7.31-7.3c3.76,0,6.94,1.21,9,3.4a10.23,10.23,0,0,1,2.37,8.16A21.59,21.59,0,0,1,15.06,83a21.93,21.93,0,0,1,9.66-3.74q.69-.06,1.34-.06a9.76,9.76,0,0,1,6.82,2.43C35.09,83.64,36.3,86.82,36.3,90.58Zm-1,0h0Zm0-.1h0ZM14.69,65.35a8,8,0,0,1,.84.79,7.8,7.8,0,0,1,.52.64,7.79,7.79,0,0,0-.52-.64A7.93,7.93,0,0,0,14.69,65.35ZM1,69.36H1ZM16.58,96.1a1.79,1.79,0,0,1-.28,1,2,2,0,0,1-1.68.75A1.84,1.84,0,0,1,13,97.17c-.86-1.14-.68-3.59.55-7.28a.77.77,0,0,1,.82-.53.78.78,0,0,1,.7.69h0a16.22,16.22,0,0,0,.86,3.26A9.68,9.68,0,0,1,16.58,96.1Zm-2-6h0Zm-.5.06h0ZM12.81.5V52.07a5.49,5.49,0,1,1-5.49-5.49.5.5,0,0,1,.5.5v1a.5.5,0,0,1-.5.5,3.49,3.49,0,1,0,3.49,3.49V.5a.5.5,0,0,1,.5-.5h1A.5.5,0,0,1,12.81.5Zm-4.27,83a.77.77,0,0,1-.53.74c-3.7,1.22-6.15,1.41-7.29.55A1.81,1.81,0,0,1,0,83.18,2,2,0,0,1,.75,81.5c.88-.6,2.25-.14,3.83.4a16.25,16.25,0,0,0,3.26.86h0a.79.79,0,0,1,.7.78Zm-.76-.28h0Zm-.06.5h0Z"/></svg>