<svg id="Слой_1" data-name="Слой 1" xmlns="http://www.w3.org/2000/svg" viewBox="0 0 97.88 97.88"><defs><style>.cls-1{fill:#fff;}</style></defs><title>1</title><path class="cls-1" d="M12.29,97.88h-1a.5.5,0,0,1-.5-.5V45.76a3.49,3.49,0,1,0-3.49,3.49.5.5,0,0,1,.5.5v1a.5.5,0,0,1-.5.5,5.49,5.49,0,1,1,5.49-5.49V97.38A.5.5,0,0,1,12.29,97.88Zm-5-56.61h0Zm0-5A7.31,7.31,0,1,1,14.61,29a.5.5,0,0,1-.5.5h-1a.5.5,0,0,1-.5-.5,5.3,5.3,0,1,0-5.3,5.31c3.19,0,5.84-1,7.47-2.76a8.36,8.36,0,0,0,1.85-6.64c-.46-5.22-4.56-10.79-7.92-14.55A63.83,63.83,0,0,1,2,3.45a.5.5,0,0,1,.08-.7l.78-.63a.5.5,0,0,1,.7.08c.11.14,11.07,13.58,20.84,14.45a8.32,8.32,0,0,0,6.64-1.85c1.78-1.63,2.76-4.28,2.76-7.48a5.3,5.3,0,1,0-5.3,5.31.5.5,0,0,1,.5.5v1a.5.5,0,0,1-.5.5,7.31,7.31,0,1,1,7.3-7.31c0,3.76-1.21,6.94-3.4,9a10.23,10.23,0,0,1-8.16,2.37,21.59,21.59,0,0,1-9.38-3.57,21.93,21.93,0,0,1,3.74,9.66q.06.69.06,1.34a9.76,9.76,0,0,1-2.43,6.82C14.24,35.09,11.06,36.3,7.31,36.3Zm0-1h0Zm.1,0h0ZM32.53,14.69a8,8,0,0,1-.79.84,7.8,7.8,0,0,1-.64.52,7.79,7.79,0,0,0,.64-.52A7.93,7.93,0,0,0,32.53,14.69ZM28.52,1h0ZM1.79,16.58a1.79,1.79,0,0,1-1-.28A2,2,0,0,1,0,14.61,1.84,1.84,0,0,1,.71,13c1.14-.86,3.59-.68,7.28.55a.77.77,0,0,1,.53.82.78.78,0,0,1-.69.7h0a16.22,16.22,0,0,0-3.26.86A9.68,9.68,0,0,1,1.79,16.58Zm6-2h0ZM7.72,14h0Zm89.67-1.23H45.81A5.49,5.49,0,1,1,51.3,7.31a.5.5,0,0,1-.5.5h-1a.5.5,0,0,1-.5-.5,3.49,3.49,0,1,0-3.49,3.49H97.38a.5.5,0,0,1,.5.5v1A.5.5,0,0,1,97.38,12.81Zm-83-4.27A.77.77,0,0,1,13.61,8C12.38,4.3,12.2,1.85,13.06.71A1.81,1.81,0,0,1,14.7,0a2,2,0,0,1,1.68.75c.6.88.14,2.25-.4,3.83a16.25,16.25,0,0,0-.86,3.26h0a.78.78,0,0,1-.7.69Zm.28-.76h0Zm-.5-.06h0Z"/></svg>