<?xml version="1.0" encoding="utf-8"?>
<!-- Generator: Adobe Illustrator 17.0.0, SVG Export Plug-In . SVG Version: 6.00 Build 0)  -->
<!DOCTYPE svg PUBLIC "-//W3C//DTD SVG 1.1//EN" "http://www.w3.org/Graphics/SVG/1.1/DTD/svg11.dtd">
<svg version="1.1" id="Слой_1" xmlns="http://www.w3.org/2000/svg" xmlns:xlink="http://www.w3.org/1999/xlink" x="0px" y="0px"
	 width="249.969px" height="249.969px" viewBox="324 55 249.969 249.969" enable-background="new 324 55 249.969 249.969"
	 xml:space="preserve">
<g>
	<path fill="#FFFFFF" d="M565.974,68.516c-0.35,0.116-0.567,0.452-0.529,0.817c0.038,0.369,0.324,0.657,0.695,0.7
		c1.088,0.123,2.24,0.514,3.256,0.859c1.079,0.367,2.011,0.684,2.782,0.684c0,0,0,0,0,0c0.775,0,1.715-0.341,1.788-1.965
		c0.026-0.593-0.139-1.081-0.492-1.45c-0.459-0.48-1.221-0.723-2.265-0.723C569.572,67.438,567.459,68.024,565.974,68.516z"/>
	<path fill="#FFFFFF" d="M528.154,56.819c-3.026,0-5.489,2.465-5.489,5.494c0,0.276,0.224,0.5,0.5,0.5h0.999
		c0.276,0,0.5-0.224,0.5-0.5c0-1.927,1.565-3.494,3.49-3.494c1.924,0,3.489,1.567,3.489,3.494c0,1.926-1.565,3.493-3.488,3.493
		h-51.57c-0.276,0-0.5,0.224-0.5,0.5v1c0,0.276,0.224,0.5,0.5,0.5h51.57c3.026,0,5.488-2.464,5.488-5.493
		C533.643,59.284,531.181,56.819,528.154,56.819z"/>
	<path fill="#FFFFFF" d="M558.846,62.836c0.045,0.405,0.374,0.699,0.781,0.7c0.339,0,0.628-0.21,0.736-0.535
		c1.211-3.663,1.403-6.104,0.571-7.256c-0.352-0.487-0.887-0.745-1.546-0.745c-0.007,0-0.113,0.002-0.121,0.003
		c-0.811,0.037-1.359,0.281-1.679,0.749c-0.601,0.88-0.138,2.246,0.398,3.827C558.332,60.595,558.724,61.748,558.846,62.836z"/>
	<path fill="#FFFFFF" d="M573.966,83.991c0-4.03-3.276-7.31-7.303-7.31c-4.027,0-7.304,3.279-7.304,7.31c0,0.276,0.224,0.5,0.5,0.5
		h0.999c0.276,0,0.5-0.224,0.5-0.5c0-2.928,2.38-5.31,5.305-5.31s5.304,2.382,5.304,5.31c0,2.928-2.379,5.31-5.304,5.31
		c-3.191,0-5.843-0.979-7.469-2.757c-1.475-1.614-2.098-3.849-1.852-6.643c0.462-5.216,4.562-10.793,7.879-14.512
		c3.828-3.408,6.425-6.591,6.708-6.943c0.083-0.104,0.122-0.235,0.108-0.367s-0.08-0.253-0.183-0.336l-0.778-0.627
		c-0.216-0.174-0.53-0.139-0.702,0.074c-0.11,0.136-11.122,13.59-20.841,14.452c-2.781,0.247-5.024-0.377-6.635-1.854
		c-1.777-1.628-2.755-4.283-2.755-7.476c0-2.928,2.38-5.311,5.305-5.311s5.305,2.382,5.305,5.311c0,2.927-2.38,5.309-5.305,5.309
		c-0.276,0-0.5,0.224-0.5,0.5v1c0,0.276,0.224,0.5,0.5,0.5c4.027,0,7.304-3.279,7.304-7.309c0-4.031-3.276-7.311-7.304-7.311
		s-7.304,3.279-7.304,7.311c0,3.761,1.209,6.94,3.404,8.951c2.04,1.868,4.791,2.668,8.162,2.371c2.873-0.255,6.021-1.454,9.383-3.57
		c-2.224,3.469-3.48,6.71-3.742,9.661c-0.041,0.46-0.061,0.909-0.061,1.345c0,2.765,0.817,5.061,2.429,6.824
		c2.009,2.197,5.186,3.407,8.944,3.407C570.69,91.301,573.966,88.022,573.966,83.991z"/>
	<path fill="#FFFFFF" d="M566.662,95.271c-3.026,0-5.488,2.464-5.488,5.493v51.618c0,0.276,0.224,0.5,0.5,0.5h0.999
		c0.276,0,0.5-0.224,0.5-0.5v-51.618c0-1.926,1.565-3.492,3.489-3.492c1.924,0,3.49,1.567,3.49,3.493
		c0,1.926-1.565,3.493-3.49,3.493c-0.276,0-0.5,0.224-0.5,0.5v1c0,0.276,0.224,0.5,0.5,0.5c3.027,0,5.489-2.464,5.489-5.493
		C572.152,97.735,569.689,95.271,566.662,95.271z"/>
</g>
<g>
	<path fill="#FFFFFF" d="M331.995,68.516c0.35,0.116,0.567,0.452,0.529,0.817c-0.038,0.369-0.324,0.657-0.695,0.7
		c-1.088,0.123-2.24,0.514-3.256,0.859c-1.079,0.367-2.011,0.684-2.782,0.684c0,0,0,0,0,0c-0.775,0-1.715-0.341-1.788-1.965
		c-0.026-0.593,0.139-1.081,0.492-1.45c0.459-0.48,1.221-0.723,2.265-0.723C328.397,67.438,330.51,68.024,331.995,68.516z"/>
	<path fill="#FFFFFF" d="M369.814,56.819c3.026,0,5.489,2.465,5.489,5.494c0,0.276-0.224,0.5-0.5,0.5h-0.999
		c-0.276,0-0.5-0.224-0.5-0.5c0-1.927-1.565-3.494-3.49-3.494c-1.924,0-3.489,1.567-3.489,3.494c0,1.926,1.565,3.493,3.488,3.493
		h51.57c0.276,0,0.5,0.224,0.5,0.5v1c0,0.276-0.224,0.5-0.5,0.5h-51.57c-3.026,0-5.488-2.464-5.488-5.493
		C364.325,59.284,366.788,56.819,369.814,56.819z"/>
	<path fill="#FFFFFF" d="M339.122,62.836c-0.045,0.405-0.374,0.699-0.781,0.7c-0.339,0-0.628-0.21-0.736-0.535
		c-1.211-3.663-1.403-6.104-0.571-7.256c0.352-0.487,0.887-0.745,1.546-0.745c0.007,0,0.113,0.002,0.121,0.003
		c0.811,0.037,1.359,0.281,1.679,0.749c0.601,0.88,0.138,2.246-0.398,3.827C339.637,60.595,339.245,61.748,339.122,62.836z"/>
	<path fill="#FFFFFF" d="M324.002,83.991c0-4.03,3.276-7.31,7.303-7.31c4.027,0,7.304,3.279,7.304,7.31c0,0.276-0.224,0.5-0.5,0.5
		h-0.999c-0.276,0-0.5-0.224-0.5-0.5c0-2.928-2.38-5.31-5.305-5.31s-5.304,2.382-5.304,5.31c0,2.928,2.379,5.31,5.304,5.31
		c3.191,0,5.843-0.979,7.469-2.757c1.475-1.614,2.098-3.849,1.852-6.643c-0.462-5.216-4.562-10.793-7.879-14.512
		c-3.828-3.408-6.425-6.591-6.708-6.943c-0.083-0.104-0.122-0.235-0.108-0.367s0.08-0.253,0.183-0.336l0.778-0.627
		c0.216-0.174,0.53-0.139,0.702,0.074c0.11,0.136,11.122,13.59,20.841,14.452c2.781,0.247,5.024-0.377,6.635-1.854
		c1.777-1.628,2.755-4.283,2.755-7.476c0-2.928-2.38-5.311-5.305-5.311s-5.305,2.382-5.305,5.311c0,2.927,2.38,5.309,5.305,5.309
		c0.276,0,0.5,0.224,0.5,0.5v1c0,0.276-0.224,0.5-0.5,0.5c-4.027,0-7.304-3.279-7.304-7.309c0-4.031,3.276-7.311,7.304-7.311
		s7.304,3.279,7.304,7.311c0,3.761-1.209,6.94-3.404,8.951c-2.04,1.868-4.791,2.668-8.162,2.371
		c-2.873-0.255-6.021-1.454-9.383-3.57c2.224,3.469,3.48,6.71,3.742,9.661c0.041,0.46,0.061,0.909,0.061,1.345
		c0,2.765-0.817,5.061-2.429,6.824c-2.009,2.197-5.186,3.407-8.944,3.407C327.279,91.301,324.002,88.022,324.002,83.991z"/>
	<path fill="#FFFFFF" d="M331.306,95.271c3.026,0,5.488,2.464,5.488,5.493v51.618c0,0.276-0.224,0.5-0.5,0.5h-0.999
		c-0.276,0-0.5-0.224-0.5-0.5v-51.618c0-1.926-1.565-3.492-3.489-3.492c-1.924,0-3.49,1.567-3.49,3.493
		c0,1.926,1.565,3.493,3.49,3.493c0.276,0,0.5,0.224,0.5,0.5v1c0,0.276-0.224,0.5-0.5,0.5c-3.027,0-5.489-2.464-5.489-5.493
		C325.817,97.735,328.28,95.271,331.306,95.271z"/>
</g>
<g>
	<path fill="#FFFFFF" d="M565.974,291.453c-0.35-0.116-0.567-0.452-0.529-0.817c0.038-0.369,0.324-0.657,0.695-0.7
		c1.088-0.123,2.24-0.514,3.256-0.859c1.079-0.367,2.011-0.684,2.782-0.684c0,0,0,0,0,0c0.775,0,1.715,0.341,1.788,1.965
		c0.026,0.593-0.139,1.081-0.492,1.45c-0.459,0.48-1.221,0.723-2.265,0.723C569.572,292.53,567.459,291.944,565.974,291.453z"/>
	<path fill="#FFFFFF" d="M528.154,303.15c-3.026,0-5.489-2.465-5.489-5.494c0-0.276,0.224-0.5,0.5-0.5h0.999
		c0.276,0,0.5,0.224,0.5,0.5c0,1.927,1.565,3.494,3.49,3.494c1.924,0,3.489-1.567,3.489-3.494c0-1.926-1.565-3.493-3.488-3.493
		h-51.57c-0.276,0-0.5-0.224-0.5-0.5v-1c0-0.276,0.224-0.5,0.5-0.5h51.57c3.026,0,5.488,2.464,5.488,5.493
		C533.643,300.685,531.181,303.15,528.154,303.15z"/>
	<path fill="#FFFFFF" d="M558.846,297.132c0.045-0.405,0.374-0.699,0.781-0.7c0.339,0,0.628,0.21,0.736,0.535
		c1.211,3.663,1.403,6.104,0.571,7.256c-0.352,0.487-0.887,0.745-1.546,0.745c-0.007,0-0.113-0.002-0.121-0.003
		c-0.811-0.037-1.359-0.281-1.679-0.749c-0.601-0.88-0.138-2.246,0.398-3.827C558.332,299.374,558.724,298.221,558.846,297.132z"/>
	<path fill="#FFFFFF" d="M573.966,275.978c0,4.03-3.276,7.31-7.303,7.31c-4.027,0-7.304-3.279-7.304-7.31c0-0.276,0.224-0.5,0.5-0.5
		h0.999c0.276,0,0.5,0.224,0.5,0.5c0,2.928,2.38,5.31,5.305,5.31s5.304-2.382,5.304-5.31c0-2.928-2.379-5.31-5.304-5.31
		c-3.191,0-5.843,0.979-7.469,2.757c-1.475,1.614-2.098,3.849-1.852,6.643c0.462,5.216,4.562,10.793,7.879,14.512
		c3.828,3.408,6.425,6.591,6.708,6.943c0.083,0.104,0.122,0.235,0.108,0.367s-0.08,0.253-0.183,0.336l-0.778,0.627
		c-0.216,0.174-0.53,0.139-0.702-0.074c-0.11-0.136-11.122-13.59-20.841-14.452c-2.781-0.247-5.024,0.377-6.635,1.854
		c-1.777,1.628-2.755,4.283-2.755,7.476c0,2.928,2.38,5.311,5.305,5.311s5.305-2.382,5.305-5.311c0-2.927-2.38-5.309-5.305-5.309
		c-0.276,0-0.5-0.224-0.5-0.5v-1c0-0.276,0.224-0.5,0.5-0.5c4.027,0,7.304,3.279,7.304,7.309c0,4.031-3.276,7.311-7.304,7.311
		s-7.304-3.279-7.304-7.311c0-3.761,1.209-6.94,3.404-8.951c2.04-1.868,4.791-2.668,8.162-2.371c2.873,0.255,6.021,1.454,9.383,3.57
		c-2.224-3.469-3.48-6.71-3.742-9.661c-0.041-0.46-0.061-0.909-0.061-1.345c0-2.765,0.817-5.061,2.429-6.824
		c2.009-2.197,5.186-3.407,8.944-3.407C570.69,268.667,573.966,271.947,573.966,275.978z"/>
	<path fill="#FFFFFF" d="M566.662,264.698c-3.026,0-5.488-2.464-5.488-5.493v-51.618c0-0.276,0.224-0.5,0.5-0.5h0.999
		c0.276,0,0.5,0.224,0.5,0.5v51.618c0,1.926,1.565,3.492,3.489,3.492c1.924,0,3.49-1.567,3.49-3.493c0-1.926-1.565-3.493-3.49-3.493
		c-0.276,0-0.5-0.224-0.5-0.5v-1c0-0.276,0.224-0.5,0.5-0.5c3.027,0,5.489,2.464,5.489,5.493
		C572.152,262.234,569.689,264.698,566.662,264.698z"/>
</g>
<g>
	<path fill="#FFFFFF" d="M332.024,291.453c0.35-0.116,0.567-0.452,0.529-0.817c-0.038-0.369-0.324-0.657-0.695-0.7
		c-1.088-0.123-2.24-0.514-3.256-0.859c-1.079-0.367-2.011-0.684-2.782-0.684c0,0,0,0,0,0c-0.775,0-1.715,0.341-1.788,1.965
		c-0.026,0.593,0.139,1.081,0.492,1.45c0.459,0.48,1.221,0.723,2.265,0.723C328.425,292.53,330.539,291.944,332.024,291.453z"/>
	<path fill="#FFFFFF" d="M369.843,303.15c3.026,0,5.489-2.465,5.489-5.494c0-0.276-0.224-0.5-0.5-0.5h-0.999
		c-0.276,0-0.5,0.224-0.5,0.5c0,1.927-1.565,3.494-3.49,3.494c-1.924,0-3.489-1.567-3.489-3.494c0-1.926,1.565-3.493,3.488-3.493
		h51.57c0.276,0,0.5-0.224,0.5-0.5v-1c0-0.276-0.224-0.5-0.5-0.5h-51.57c-3.026,0-5.488,2.464-5.488,5.493
		C364.354,300.685,366.817,303.15,369.843,303.15z"/>
	<path fill="#FFFFFF" d="M339.151,297.132c-0.045-0.405-0.374-0.699-0.781-0.7c-0.339,0-0.628,0.21-0.736,0.535
		c-1.211,3.663-1.403,6.104-0.571,7.256c0.352,0.487,0.887,0.745,1.546,0.745c0.007,0,0.113-0.002,0.121-0.003
		c0.811-0.037,1.359-0.281,1.679-0.749c0.601-0.88,0.138-2.246-0.398-3.827C339.665,299.374,339.274,298.221,339.151,297.132z"/>
	<path fill="#FFFFFF" d="M324.031,275.978c0,4.03,3.276,7.31,7.303,7.31c4.027,0,7.304-3.279,7.304-7.31c0-0.276-0.224-0.5-0.5-0.5
		h-0.999c-0.276,0-0.5,0.224-0.5,0.5c0,2.928-2.38,5.31-5.305,5.31s-5.304-2.382-5.304-5.31c0-2.928,2.379-5.31,5.304-5.31
		c3.191,0,5.843,0.979,7.469,2.757c1.475,1.614,2.098,3.849,1.852,6.643c-0.462,5.216-4.562,10.793-7.879,14.512
		c-3.828,3.408-6.425,6.591-6.708,6.943c-0.083,0.104-0.122,0.235-0.108,0.367s0.08,0.253,0.183,0.336l0.778,0.627
		c0.216,0.174,0.53,0.139,0.702-0.074c0.11-0.136,11.122-13.59,20.841-14.452c2.781-0.247,5.024,0.377,6.635,1.854
		c1.777,1.628,2.755,4.283,2.755,7.476c0,2.928-2.38,5.311-5.305,5.311s-5.305-2.382-5.305-5.311c0-2.927,2.38-5.309,5.305-5.309
		c0.276,0,0.5-0.224,0.5-0.5v-1c0-0.276-0.224-0.5-0.5-0.5c-4.027,0-7.304,3.279-7.304,7.309c0,4.031,3.276,7.311,7.304,7.311
		s7.304-3.279,7.304-7.311c0-3.761-1.209-6.94-3.404-8.951c-2.04-1.868-4.791-2.668-8.162-2.371
		c-2.873,0.255-6.021,1.454-9.383,3.57c2.224-3.469,3.48-6.71,3.742-9.661c0.041-0.46,0.061-0.909,0.061-1.345
		c0-2.765-0.817-5.061-2.429-6.824c-2.009-2.197-5.186-3.407-8.944-3.407C327.307,268.667,324.031,271.947,324.031,275.978z"/>
	<path fill="#FFFFFF" d="M331.335,264.698c3.026,0,5.488-2.464,5.488-5.493v-51.618c0-0.276-0.224-0.5-0.5-0.5h-0.999
		c-0.276,0-0.5,0.224-0.5,0.5v51.618c0,1.926-1.565,3.492-3.489,3.492c-1.924,0-3.49-1.567-3.49-3.493
		c0-1.926,1.565-3.493,3.49-3.493c0.276,0,0.5-0.224,0.5-0.5v-1c0-0.276-0.224-0.5-0.5-0.5c-3.027,0-5.489,2.464-5.489,5.493
		C325.846,262.234,328.308,264.698,331.335,264.698z"/>
</g>
</svg>
