<svg id="Слой_1" data-name="Слой 1" xmlns="http://www.w3.org/2000/svg" viewBox="0 0 97.88 97.88"><defs><style>.cls-1{fill:#fff;}</style></defs><title>1</title><path class="cls-1" d="M85.59,0h1a.5.5,0,0,1,.5.5V52.12a3.49,3.49,0,1,0,3.49-3.49.5.5,0,0,1-.5-.5v-1a.5.5,0,0,1,.5-.5,5.49,5.49,0,1,1-5.49,5.49V.5A.5.5,0,0,1,85.59,0Zm5,56.61h0Zm0,5a7.31,7.31,0,1,1-7.3,7.31.5.5,0,0,1,.5-.5h1a.5.5,0,0,1,.5.5,5.3,5.3,0,1,0,5.3-5.31c-3.19,0-5.84,1-7.47,2.76A8.36,8.36,0,0,0,81.26,73c.46,5.22,4.56,10.79,7.92,14.55a63.83,63.83,0,0,1,6.67,6.9.5.5,0,0,1-.08.7l-.78.63a.5.5,0,0,1-.7-.08c-.11-.14-11.07-13.58-20.84-14.45a8.32,8.32,0,0,0-6.64,1.85c-1.78,1.63-2.76,4.28-2.76,7.48a5.3,5.3,0,1,0,5.3-5.31.5.5,0,0,1-.5-.5v-1a.5.5,0,0,1,.5-.5,7.31,7.31,0,1,1-7.3,7.31c0-3.76,1.21-6.94,3.4-9a10.23,10.23,0,0,1,8.16-2.37A21.59,21.59,0,0,1,83,82.82a21.93,21.93,0,0,1-3.74-9.66q-.06-.69-.06-1.34A9.76,9.76,0,0,1,81.63,65C83.64,62.79,86.82,61.58,90.58,61.58Zm0,1h0Zm-.1,0h0ZM65.35,83.19a8,8,0,0,1,.79-.84,7.8,7.8,0,0,1,.64-.52,7.79,7.79,0,0,0-.64.52A7.93,7.93,0,0,0,65.35,83.19Zm4,13.69h0ZM96.1,81.31a1.79,1.79,0,0,1,1,.28,2,2,0,0,1,.75,1.68,1.84,1.84,0,0,1-.71,1.64c-1.14.86-3.59.68-7.28-.55a.77.77,0,0,1-.53-.82.78.78,0,0,1,.69-.7h0A16.22,16.22,0,0,0,93.31,82,9.68,9.68,0,0,1,96.1,81.31Zm-6,2h0Zm.06.5h0ZM.5,85.08H52.07a5.49,5.49,0,1,1-5.49,5.49.5.5,0,0,1,.5-.5h1a.5.5,0,0,1,.5.5,3.49,3.49,0,1,0,3.49-3.49H.5a.5.5,0,0,1-.5-.5v-1A.5.5,0,0,1,.5,85.08Zm83,4.27a.77.77,0,0,1,.74.53c1.22,3.7,1.41,6.15.55,7.29a1.81,1.81,0,0,1-1.64.71,2,2,0,0,1-1.68-.75c-.6-.88-.14-2.25.4-3.83A16.25,16.25,0,0,0,82.76,90h0a.78.78,0,0,1,.7-.69Zm-.28.76h0Zm.5.06h0Z"/></svg>