<svg id="Слой_1" data-name="Слой 1" xmlns="http://www.w3.org/2000/svg" viewBox="0 0 24.18 25.49"><defs><style>.cls-1{fill:#fcd9c5;}</style></defs><title>2</title><path class="cls-1" d="M23.38,11.1C20.9,5.81,11.65,4.83,7,7c-1.76.81-.23,3.43,1.52,2.62C11.9,8,20.21,9.08,21,13.57c.83,4.93-4.72,7.6-8.35,9.16-1.77.76-.24,3.38,1.52,2.62C19.4,23.08,26.59,17.95,23.38,11.1ZM4.59,8.64l7.3-6.12C13.38,1.27,11.25-.86,9.77.37L.44,8.18a1.53,1.53,0,0,0,.66,2.54,11.34,11.34,0,0,1,6.33,3.59c1.31,1.44,3.43-.71,2.12-2.15A14.09,14.09,0,0,0,4.59,8.64Z"/></svg>