<svg id="Слой_1" data-name="Слой 1" xmlns="http://www.w3.org/2000/svg" viewBox="0 0 228.35 65.19"><defs><style>.cls-1{fill:#fcd9c5;}</style></defs><title>1</title><path class="cls-1" d="M225.32,54.32c-.76,11.16-12.71,9.88-20.38,9.88H13.51C-.28,64.19,3.33,46.38,3.33,37.27V15.71C3.33,10.23,3,2.14,11,2.14H214.33c12.32,0,10.18,12.85,10.18,21.3,0,10.86.81,20.78.81,31.64,0,.53,2.92.07,2.92-.8,0-12.5.08-25,.08-37.47,0-5.88.66-11.41-4.92-15.19C221.12.07,218.46.19,215.83.19H21.89c-5,0-12.06-1.07-16.4,1.86C.18,5.65.33,10.51.33,16.18V39C.33,48.17-2.9,65.19,11,65.19H216.2c6.53,0,12.15-4,12-11.69C228.23,53,225.38,53.42,225.32,54.32Z"/></svg>