<svg id="Слой_1" data-name="Слой 1" xmlns="http://www.w3.org/2000/svg" viewBox="0 0 119.56 89.01"><defs><style>.cls-1{fill:#fff;}</style></defs><title>1</title><path class="cls-1" d="M119.28,74.82c.33-.29.47-.7-.1-.86l-.27-.07c-1.1-5.29.43-11.86.53-17.25.11-6-.33-12-.48-18-.16-6.18-.57-12.33-.85-18.51s1-12.23.13-18.23c.64-.44,1.1-1.08.11-1.24C105.7-1.45,92.44,2.13,80.08,4.53,72.71,6,64.6,8.38,60,14.58,55.37,7.74,46.58,5.7,38.8,4.2,26.81,1.88,14.22-1.23,2,.6,1,.74,0,2.06,1.29,2.25c-.86,6,.3,12.26.14,18.32S.69,32.92.58,39.11c-.11,6-.53,12-.48,18.07C.14,62.47,1.59,68.74.74,74c-.61.26-1.2,1-.19,1.13,0,.44.36.65.86.69.67,3.26,2.11,6.63,2.1,10,0,1.06,1.46,1.12,2.19.82,9.17-3.78,20.19-4.27,30-3.55a111.24,111.24,0,0,1,12.21,2c2,.37,8,.86,8.93,3a1.41,1.41,0,0,0,1.42.69,1.3,1.3,0,0,0,1.36.16c18.5-7.21,36.82-7.59,56-2.58,1.15.3,3.13-.5,3-1.9C118.17,81.65,120.14,77.56,119.28,74.82Zm-78.4,6.13C30.21,79.3,17.4,79.88,7,83.63c-.31-2.46-1.12-6.18-2.5-8.23,8.91.36,17.83-.53,26.79.62,2.24.29,4.44.65,6.6,1.11a64.53,64.53,0,0,0-8-.58c-5.18-.1-10.38-.25-15.56-.32-2.69,0-5.32.51-7.11,2.57-.71.82.59,1,1.13.87,7.56-1.86,16.38-.92,24.16-.62a35.46,35.46,0,0,1,11.1,2.33Zm17.66.94c-7.38-5.12-16.41-7-25.23-8.25-9.14-1.29-19.67-2-29-.37.73-4.71-.46-10.12-.58-14.81-.16-6.62.13-13.24.26-19.86C4.2,26.45,5,14.44,3.38,2.36c4.62.15,9.17,0,13.81.61,5.38.76,10.71,1.82,16,2.92C41.54,7.62,52.65,9,57.15,17.28a1.06,1.06,0,0,0,.1.14c-1.31,9.75.1,20.39.16,30.18,0,6.82.08,13.65.21,20.47C57.71,72.56,58.71,77.32,58.54,81.89Zm2,4.57-.11.05-.07-.13a3.51,3.51,0,0,0,.48-.23ZM114.7,83c-13.42-3.16-27.88-4.24-41.35-1.09a68.83,68.83,0,0,1,11.3-2.64c8.8-1.4,18.69-1.93,27.51-.54,1.34.21,4.19-1.88,2-2.36-9.21-2-20-.68-29.26.67-7.35,1.07-17.28,3.23-23.3,8.4a1.13,1.13,0,0,0,.15-.34c0-.08,0-.16,0-.24,8.13-5.76,17.39-7.84,27.18-9.1,8.87-1.14,17.69-.17,26.52-.5C115.58,77.89,114.88,80.46,114.7,83Zm.93-42.11c.12,6,.32,12,.23,18.08-.07,4.49-1.14,9.5-.68,14.06-9-1.55-19.11-.53-27.82.55s-17.74,3.15-25.16,8c.18-4.06-.65-8.21-.73-12.24Q61.26,58.18,61.19,47c0-9.52.43-19.73-.86-29.24a2.83,2.83,0,0,0,2-1.07C66.62,8.83,77.28,7.56,85.21,5.91c4.74-1,9.49-1.89,14.27-2.65,5.62-.89,11.12-.71,16.74-.94C114.47,15.19,115.36,28,115.63,40.92ZM52,28.18c-2.58-1.47-4.14-3.56-7-4.74a68.34,68.34,0,0,0-11.52-3.25,79.73,79.73,0,0,0-10.8-1.35c-4.33-.35-8.73-1.56-13-.61-.53.12-1.52.88-.56,1.2,6.92,2.37,15.17,1.7,22.34,3.2,3.28.69,6.49,1.73,9.7,2.7,3.37,1,5,3.81,8.1,5C50.48,30.79,53.85,29.23,52,28.18Zm0,9.51c-2.58-1.47-4.14-3.57-7-4.74A68.31,68.31,0,0,0,33.55,29.7a79.7,79.7,0,0,0-10.8-1.35c-4.33-.35-8.73-1.56-13-.61-.53.12-1.52.88-.56,1.2,6.92,2.37,15.17,1.7,22.34,3.2,3.28.69,6.49,1.73,9.7,2.7,3.37,1,5,3.81,8.1,5C50.48,40.3,53.85,38.74,52,37.69Zm0,9.86c-2.58-1.47-4.14-3.57-7-4.74a68.33,68.33,0,0,0-11.52-3.25,79.67,79.67,0,0,0-10.8-1.35c-4.33-.35-8.73-1.56-13-.61-.53.12-1.52.88-.56,1.2,6.92,2.37,15.17,1.7,22.34,3.2,3.28.69,6.49,1.73,9.7,2.7,3.37,1,5,3.81,8.1,5C50.48,50.16,53.85,48.6,52,47.55Zm0,9.36c-2.58-1.47-4.14-3.56-7-4.74a68.33,68.33,0,0,0-11.52-3.25,79.7,79.7,0,0,0-10.8-1.35C18.41,47.22,14,46,9.72,47c-.53.12-1.52.88-.56,1.2,6.92,2.37,15.17,1.7,22.34,3.2,3.28.69,6.49,1.73,9.7,2.7,3.37,1,5,3.81,8.1,5C50.48,59.52,53.85,58,52,56.92Zm0,9.43c-2.58-1.47-4.14-3.56-7-4.74a68.32,68.32,0,0,0-11.52-3.25A79.67,79.67,0,0,0,22.74,57c-4.33-.35-8.73-1.56-13-.61-.53.12-1.52.88-.56,1.2,6.92,2.37,15.17,1.7,22.34,3.2,3.28.69,6.49,1.73,9.7,2.7,3.37,1,5,3.81,8.1,5C50.48,68.95,53.85,67.39,52,66.34Zm45-38.21A101.87,101.87,0,0,0,82,28.84c-3.87.5-11.85,1.84-13.29,6.19-.22.67.18,1,.74,1,.21,4.94.67,9.81.67,14.77,0,2.94-.36,5.79,1.52,8.23s6.61,2.46,9.35,2.58a99.32,99.32,0,0,0,11.19-.23c4.57-.33,11.87-1,14.64-5.3,1.7-2.65.74-5.87.22-8.77-1.06-6-.26-11.67-.7-17.64,0-.63-.57-.88-1.18-.87a3.26,3.26,0,0,0-.34-.21,8.16,8.16,0,0,0-4-.62c1.32-3.46,2.05-7.22,3.24-10.77a.77.77,0,0,0,.2.46,1.59,1.59,0,0,0,2.53-.69,10.58,10.58,0,0,0,.05-1.6,10.11,10.11,0,0,0-.17-2.12,2.16,2.16,0,0,0-.54-1c0-.64-1-.78-1.91-.56l-.09,0a2.37,2.37,0,0,0-1.48.9,44.2,44.2,0,0,0-3.75,9.53C98.31,24.1,97.62,26.11,97.05,28.13Zm-25.52,7c1.3-3.13,7.29-3.82,10.24-4.33,4.92-.84,9.84-.65,14.78-.7-.08.34-.15.67-.22,1-2.42.13-4.86.62-7.21.91-5.25.65-10.49,1.39-15.74,2.06a2.47,2.47,0,0,0-1.53,1.13l-.36,0ZM96,33l-.1.16a.73.73,0,0,0,0,.09l-.92.19a1.43,1.43,0,0,0,.41-.33Zm8,17.13c.78,4,.21,6.2-3.74,7.62a30.76,30.76,0,0,1-8.38,1.34c-5.1.32-17,2.17-18.53-4s.44-12.46-1.73-18.51c7.34,2,15.43.06,22.73-1.17A50.17,50.17,0,0,0,103,32.3,71.5,71.5,0,0,0,104,50.17ZM99.94,30c3-.11,2.37.63.84,1.44a12.68,12.68,0,0,0-1.45-.26Q99.66,30.58,99.94,30Z"/></svg>