<svg id="Слой_1" data-name="Слой 1" xmlns="http://www.w3.org/2000/svg" viewBox="0 0 129.02 94.32"><defs><style>.cls-1{fill:#f15a29;}</style></defs><title>2</title><path class="cls-1" d="M53.28,18.64a1.08,1.08,0,0,0,.47-.21c4.44,0,8.87.07,13.31.09s8.81,1,12.8-1.37A7,7,0,0,0,82.64,8.7c-1.39-4.19-7.18-6.34-11-7.42C64.1-.86,53.94-.7,47.78,4.7S45,19.47,53.28,18.64Zm.84-15.29c5.76-2.09,13.52-.94,19,1.32,3,1.23,6.13,3.65,6.49,7,.6,5.61-7.21,4.3-10.33,4.29-5.26,0-10.53-.1-15.79-.11a2.84,2.84,0,0,0-1.95,1C45.17,14.14,47.5,5.75,54.13,3.34Zm31.23,39c-.19-6.14,1.83-15.9-6.83-17.24a1.53,1.53,0,0,0-.5,0c-.08-.88-.31-1.79-.44-2.63-.15-1,.08-2.48-.32-3.4-.22-.49-1-.27-1.31,0a3.94,3.94,0,0,0-1.19,3.28,17.9,17.9,0,0,0,.46,4.47c.15.55.76.64,1.38.49l.07,0C84.86,28.6,81.76,40.4,82.19,46c.56,7.15.3,14.32.62,21.48.29,6.6,3.19,14.47.76,20.83-1.27,3.34-6.46,3.17-9.32,3.36-4.2.28-8.37.35-12.58.24-5.68-.15-14.36.67-17.71-5s-.39-16.19-.1-22.44c.33-7,.25-14.14,1.11-21.14.34-2.76.88-5.46,1.09-8.24.23-3.12.08-7.39,3.39-9-.11.29,0,.58.55.64,6.54.75,13-1,19.48,0,1.35.21,4.09-1.94,1.94-2.32a35.31,35.31,0,0,0-10-.22c-3.11.33-6.27.31-9.33.9A7.43,7.43,0,0,0,52,22.24c-.17-1.2-.27-2.64-1.61-3.05a.91.91,0,0,0-.86.29c-.85,1-.4,2.26-.29,3.43,0,.46,0,1,0,1.57-4.5,1.44-5.65,5.32-6.07,9.91-.9,9.64-2.45,19.1-2.95,28.8-.26,5.12-.35,10.22-.14,15.35.13,3.18-.06,7.65,2,10.35C46.23,94.43,54.5,93.7,60.69,94c6.36.27,15.45,1.18,21.5-1.65,7.16-3.35,5.3-11.87,4.61-18.38C85.67,63.47,85.68,52.83,85.35,42.31ZM55.6,7.38a5.47,5.47,0,0,0,1.72-.93,1.65,1.65,0,0,0,.31-.21l.07,0c.51-.33.57-1.15-.15-1.26a3.93,3.93,0,0,0-2.65.32c-.37.2-.87.63-.77,1.11a.64.64,0,0,0,0,.23v.22C54.11,7.59,55.08,7.52,55.6,7.38ZM56,5h0C55.88,5,55.56,5,56,5Zm6,.57,0,0,.39.1a.36.36,0,0,0,.06.14,1.37,1.37,0,0,0,.58.3,4.37,4.37,0,0,0,1.32.21,1.72,1.72,0,0,0,1.33-.56.79.79,0,0,0,.15-.32,1.6,1.6,0,0,0,1-.75c.28-.59-.32-.85-.8-.9s-1.13-.22-1.72-.26a6.05,6.05,0,0,0-2,.25c-.46.13-1.05.53-1.1,1S61.58,5.5,62,5.55Zm7.87,2.52a1.87,1.87,0,0,0,2-.43,1.84,1.84,0,0,0,.23-.14c.32-.25.55-.72.27-1h0l0,0v0l-.05,0,0,0,.08,0A1.06,1.06,0,0,0,72.19,6a.85.85,0,0,0-.38-.25h0s0,0,0-.09A.94.94,0,0,0,71,5.37l-.26-.18a1.12,1.12,0,0,0-.77-.08c.1,0,.14,0,0,0h0l-.11,0h0c-.26.06-.17,0,0,0a1.61,1.61,0,0,0-.76.48l0-.08,0,.06a1.41,1.41,0,0,0-.11.2c-.41.3-.85.86-.42,1.29A5.82,5.82,0,0,0,69.84,8.07ZM65,56.07c-3.15-3.86-8.39-4-11.46,1-4.95,8,7.37,12.73,8.35,19.5.08.57,1.26.15,1.39-.22s.13-.45.18-.66A3.82,3.82,0,0,0,65.56,75c4-4.11,12-11.41,8.54-17.77C71.93,53.24,67.68,53.61,65,56.07ZM71.05,59c1,1.91.35,3.84-.59,5.6-1.77,3.28-4.81,5.67-6.95,8.67-.59-3.19-3.93-5.39-6-8.08a7.62,7.62,0,0,1-.95-8c2-4,5.38-.38,6.51,2.05.56,1.2,2.7.45,3.15-.49C67.65,55.59,69.82,56.61,71.05,59ZM13.19,24.31a3.12,3.12,0,0,0,2.43-1.13.69.69,0,0,0-.13-1.12,2.7,2.7,0,0,0-1.25-.22,2,2,0,0,0-2.3,1.08A1.19,1.19,0,0,0,13.19,24.31Zm4.24-.37a2.25,2.25,0,0,0,1.74-.74L19.3,23q.1-.14.19-.29l0,0a1,1,0,0,0,.15-.3,1.65,1.65,0,0,0,.19-.31.63.63,0,0,0-.36-.79,2.24,2.24,0,0,0-1.6,0,2.2,2.2,0,0,0-1.59,1.56C16.14,23.55,16.84,23.92,17.43,23.94Zm4.13-.09a2,2,0,0,0,1.69.35c.61-.07,1.45-.49,1.52-1.18q0-.44,0-.11a.67.67,0,0,0,0-.2.87.87,0,0,0,0-.15c0-.17-.13-.31-.14-.48-.07-.6-1.1-.63-1.5-.56a3,3,0,0,0-.54.14,2.49,2.49,0,0,0-.61.22c-.5.27-1.09,1-.63,1.45A.75.75,0,0,0,21.57,23.85Zm14,30.47c-.47-3.27-.19-6.81-1.19-10-.85-2.7-1.87-6.7-5.32-6.47a3.68,3.68,0,0,0,.39-2c0-.79.19-1.57.19-2.36,0-.57-.49-.85-1-.89,3-.34,5.1-1.69,4.73-6.64-.61-8.29-13.26-7.82-18.83-6.9-7,1.16-12.33,4.36-10,12.2.16.51.69.7,1.29.68a5.07,5.07,0,0,0,1.95,1.08,1,1,0,0,0-.49.52,4.93,4.93,0,0,0,0,2c0,.39,0,.79,0,1.18C3,38,3.61,42.18,3,46.3,1.88,54.48.93,62.64.24,70.87c-.46,5.46-.78,11.68,4.05,15.18,4.65,3.38,12.92,2,18.17,1.86,3.43-.1,10.38.12,12.68-3.22,3.59-5.2,1.74-14,1.27-19.88C36.13,61.32,36.08,57.8,35.57,54.32ZM11.07,22A29.47,29.47,0,0,1,19,20.78a13.5,13.5,0,0,1,9.45,2.87c1.44,1.23,3.72,7.32-.6,7.24-3.83-.07-7.47-.1-11.32.11-2.91.16-5.83.68-8.39-.59a.84.84,0,0,0-.06-.28C6.81,26.86,6.4,23.66,11.07,22ZM9.83,33.48c4.05.48,9.43-.58,11.64-.72s4.38.06,6.33-.05a1.39,1.39,0,0,0-.21.05c-.51.22-1.36.61-1.36,1.29s-.07,1.63-.09,2.44c-5.29,0-10.65-.39-15.87.54C10.3,36,10.46,34.38,9.83,33.48ZM20,85.59c-4.37.05-9.17.56-13.13-1.58-4.77-2.58-3.4-10.88-3-15.29.39-4.6.84-9.21,1.36-13.79.2-1.72,1.28-15.82,2.43-16.09a2.27,2.27,0,0,0,.49-.18c1.88.91,4.18.36,6.21.14,3.51-.38,7.15.08,10.67.12a2.51,2.51,0,0,0,1.57-.66,1.62,1.62,0,0,0,.7.39,1.51,1.51,0,0,0,1.14-.2c0,.09.07.17.25.2,3.41.6,3.55,7.79,3.61,10.12.11,4.9.9,9.78,1.27,14.68s.82,9.59.73,14.43C34.15,86.23,26.27,85.51,20,85.59Zm95.72-61.39a1.72,1.72,0,0,0,1.4-1.93c-.12-.49-.87-.53-1.25-.47l-.19,0a2.83,2.83,0,0,0-1.3.19c-.5.21-1.59.87-1,1.54A2.17,2.17,0,0,0,115.74,24.19Zm-6.23-1.09.07.08,0,0a1.82,1.82,0,0,0,.23.35,1.18,1.18,0,0,0,.91.38c.73,0,2.09-.47,2.08-1.43,0-1.65-2.24-1.58-3.2-.82-.33.26-.6.79-.27,1.1A.7.7,0,0,0,109.52,23.1Zm-3.68,1.12a2.7,2.7,0,0,0,1.34-.57,1.94,1.94,0,0,0,.56-.81c.28-.37.39-.81-.15-1.1a1.29,1.29,0,0,0-.24-.09,1.93,1.93,0,0,0-1.12-.14c-.71.11-1.63.56-1.75,1.35.07-.45-.12.26-.14.32a.44.44,0,0,0,0,.28.67.67,0,0,0,.61.71q-.49-.19.09,0A2,2,0,0,0,105.83,24.23Zm.09-.38c.08,0,.11,0,0,0Zm21,27.33c-.62-4.13-1.05-8.29-1.77-12.4-.26-1.52-1.51-1.93-2.84-2.19a1.44,1.44,0,0,0-.41,0c0-.49,0-1,0-1.48s.29-1.37,0-1.86a.82.82,0,0,0-.63-.38,5.41,5.41,0,0,0,1.78-1,2,2,0,0,0,1.5-1.07c2.59-8.44-3.34-10.72-10.57-11.92-6.63-1.1-16.17.73-18.16,8.31-1.12,4.26,1.08,5.7,4.17,6.08a1.11,1.11,0,0,0-.45.83c0,1.08.21,2.14.22,3.22a1.81,1.81,0,0,0,0,.38,1.67,1.67,0,0,0-.13.22c-2.41.25-3.48,2.92-4.28,5a20.58,20.58,0,0,0-1.21,7.42c0,3.73-.92,7.56-1.15,11.3-.42,6.85-2.59,15.89.22,22.41,1.73,4,8.88,3.7,12.33,3.88,5.32.28,12.82,1.21,17.77-1.47,5.18-2.81,5.71-7.28,5.73-12.82A150.88,150.88,0,0,0,126.87,51.18ZM99,29.66c-3.13-8.27,10.13-9.79,14.78-9,5.35.87,9.58,4.08,7.31,10v0c-2.46,1.15-5.78.41-8.32.27C110.63,30.84,100,32.21,99,29.66Zm19.84,7.2c-5.17-.94-10.66-.47-15.89-.39a23.94,23.94,0,0,0-.07-3,1,1,0,0,0,0-.19c2.68-.07,5.46-.47,7.19-.35,2.34.17,6.72.9,10,.19C118.88,34,118.8,35.48,118.83,36.87Zm5,46.35c-3,4.06-12.85,2.42-17.16,2.29-5.19-.16-11.07.21-11.73-6.26-.55-5.37.18-10.89.62-16.24.36-4.37,1-8.74,1.27-13.11.16-2.31-.38-10.19,3-11.18a1.57,1.57,0,0,0,.84.18c3.1,0,6.2-.13,9.3-.19,3.37-.07,6.9.89,10.17,0a1.93,1.93,0,0,0,.3.1c2.73.66,2.67,11.14,3,13.52.83,5.62,1.23,11.28,1.82,16.92C125.68,73.46,126.46,79.58,123.81,83.22ZM12.72,71.4a1.48,1.48,0,0,1-1.17-.63,3.92,3.92,0,0,1-.72-1.36,4.73,4.73,0,0,1-.21-1.3q0-.59,0-1a8,8,0,0,1,.15-1,3.55,3.55,0,0,1,.33-1,1.88,1.88,0,0,1,.63-.67,1.74,1.74,0,0,1,1-.28,3,3,0,0,1,1.77.67l.46-.53a4.74,4.74,0,0,0-1.22-.57,4.48,4.48,0,0,0-1.38-.23,2.09,2.09,0,0,0-1.33.44A2.63,2.63,0,0,0,10.22,65a7.06,7.06,0,0,0-.39,1.42,9,9,0,0,0-.11,1.45,5.86,5.86,0,0,0,.19,1.43,6.88,6.88,0,0,0,.54,1.44,3.18,3.18,0,0,0,1,1.14,2.22,2.22,0,0,0,1.34.45,4.72,4.72,0,0,0,2.58-1,5.88,5.88,0,0,0-.39-.72A5.68,5.68,0,0,1,12.72,71.4ZM19.67,70a4.91,4.91,0,0,0,.11-1,3.88,3.88,0,0,0-.67-2.21,2,2,0,0,0-1.77-1,1.21,1.21,0,0,0-.91.41,2.63,2.63,0,0,0-.59,1,9.2,9.2,0,0,0-.29,1.18,6,6,0,0,0-.1,1A3,3,0,0,0,16,71.26a2.32,2.32,0,0,0,1.63.9,1.87,1.87,0,0,0,1-.37,2.16,2.16,0,0,0,.66-.82A4.7,4.7,0,0,0,19.67,70Zm-.74-.47a4.69,4.69,0,0,1-.25.82,2,2,0,0,1-.45.68.91.91,0,0,1-.64.28,1.11,1.11,0,0,1-.89-.55,2,2,0,0,1-.4-1.19,9.41,9.41,0,0,1,.08-1.14,5.39,5.39,0,0,1,.36-1.34q.28-.69.68-.74a1.55,1.55,0,0,1,1.18.79A3.11,3.11,0,0,1,19,68.77,3.65,3.65,0,0,1,18.93,69.5Zm4.13-3.73a4.36,4.36,0,0,0-1.78.17,1.58,1.58,0,0,0-.13.84q0,.49,0,.79t0,.88q0,.59-.1,1t-.2.92a3.76,3.76,0,0,1-.33.88,3.35,3.35,0,0,1-.5.67,1.89,1.89,0,0,1-.68.47l.18.49a2.6,2.6,0,0,0,1.9-1.42,4.84,4.84,0,0,0,.36-1.22,9.12,9.12,0,0,0,.14-1.29l0-1.32q0-.75.06-1.13l.67,0a6.8,6.8,0,0,0,1-.09q0,.41,0,1.24,0,.45,0,1.33t0,1.32q0,.89,0,1.34a.69.69,0,0,0,.23.39.57.57,0,0,0,.38.16q.29,0,.4-.34-.09-1.39-.11-6.05Zm5.76,2.9a2.28,2.28,0,0,0-.72-.5,2.23,2.23,0,0,0-.92-.19,3,3,0,0,0-.87.14L26.18,67q-.05-.49-.07-.86L25.59,66q0,.59,0,1.23,0,.21,0,.56t0,.78q0,.42,0,.88t0,.87q0,.41,0,.75t0,.53.25.2a3.85,3.85,0,0,0,.55.11L27,72h.36a2.43,2.43,0,0,0,.8-.13,2.16,2.16,0,0,0,.67-.37,1.79,1.79,0,0,0,.46-.57,1.58,1.58,0,0,0,.17-.74,2,2,0,0,0-.17-.81A2.37,2.37,0,0,0,28.82,68.66Zm-.32,1.83a1.32,1.32,0,0,1-.29.41,1.39,1.39,0,0,1-.45.29,1.56,1.56,0,0,1-.59.11,2.65,2.65,0,0,1-.87-.16l.1-2.3.33,0,.27,0a2.15,2.15,0,0,1,.67.1,1.5,1.5,0,0,1,.5.27,1.1,1.1,0,0,1,.41.87A1.17,1.17,0,0,1,28.5,70.49Zm73.65-7.06h-4Q98,64.83,98,67.67t-.06,3.84a.73.73,0,0,0,.24.41.59.59,0,0,0,.4.17q.3,0,.4-.36,0-.75-.11-4.08t-.09-3.37l.85,0,.91,0,.82,0q0,.62.06,3.48t.06,3.79a.73.73,0,0,0,.24.41.59.59,0,0,0,.4.17q.3,0,.4-.36-.06-.93-.11-3.81A43.83,43.83,0,0,0,102.14,63.43Zm5.45,7.36-1.06.15a8.35,8.35,0,0,1-1,.07,1.32,1.32,0,0,1-.6-.13,1.11,1.11,0,0,1-.4-.32,1.49,1.49,0,0,1-.23-.48,3.24,3.24,0,0,1-.11-.55q0-.25,0-.59l.62-.1.77-.13a6.73,6.73,0,0,0,.74-.18,3.32,3.32,0,0,0,.69-.28,1.45,1.45,0,0,0,.46-.42,1,1,0,0,0,.19-.61,1.28,1.28,0,0,0-.47-1,1.64,1.64,0,0,0-1.09-.4q-2.6,0-2.6,2.87a5.77,5.77,0,0,0,.09,1,6,6,0,0,0,.27,1,2,2,0,0,0,.55.84,1.26,1.26,0,0,0,.86.33,7.46,7.46,0,0,0,1.48-.22,13.19,13.19,0,0,0,1.5-.41l-.11-.51Zm-2.75-3.72a1.91,1.91,0,0,1,1.27-.48.5.5,0,0,1,.41.17,1.34,1.34,0,0,1,.22.55,15.61,15.61,0,0,1-2.56.94A1.82,1.82,0,0,1,104.85,67.08Zm5.88-1.22a2.36,2.36,0,0,0-1.28.4c0-.08,0-.2,0-.36l-.64-.11-.14,8.81a.71.71,0,0,0,.24.41.59.59,0,0,0,.4.17q.3,0,.4-.36,0-1-.08-3a2.33,2.33,0,0,0,1.17.32,1.82,1.82,0,0,0,1.1-.33,1.94,1.94,0,0,0,.67-.87,5.13,5.13,0,0,0,.3-1.07,6.74,6.74,0,0,0,.09-1.1,3.63,3.63,0,0,0-.59-2A1.85,1.85,0,0,0,110.73,65.86Zm1.3,3.53a6.23,6.23,0,0,1-.18.89,1.57,1.57,0,0,1-.45.76,1.1,1.1,0,0,1-.76.29,1.24,1.24,0,0,1-.63-.17,1,1,0,0,1-.43-.44l0-3.7c0-.14.19-.25.43-.33a2.47,2.47,0,0,1,.79-.12q1.32,0,1.32,1.95A7,7,0,0,1,112,69.39Zm6,1.41L117,71a8.35,8.35,0,0,1-1,.07,1.32,1.32,0,0,1-.6-.13,1.11,1.11,0,0,1-.4-.32,1.49,1.49,0,0,1-.23-.48,3.26,3.26,0,0,1-.11-.55q0-.25,0-.59l.62-.1.77-.13a6.73,6.73,0,0,0,.74-.18,3.33,3.33,0,0,0,.69-.28,1.45,1.45,0,0,0,.46-.42,1,1,0,0,0,.19-.61,1.28,1.28,0,0,0-.47-1,1.64,1.64,0,0,0-1.09-.4q-2.6,0-2.6,2.87a5.77,5.77,0,0,0,.09,1,6,6,0,0,0,.27,1,2,2,0,0,0,.55.84,1.25,1.25,0,0,0,.86.33,7.46,7.46,0,0,0,1.48-.22,13.19,13.19,0,0,0,1.5-.41l-.11-.51Zm-2.75-3.72a1.91,1.91,0,0,1,1.27-.48.5.5,0,0,1,.41.17,1.34,1.34,0,0,1,.22.55,15.61,15.61,0,0,1-2.56.94A1.82,1.82,0,0,1,115.27,67.08Zm7.82,1.73q0-1.94-.05-2.84l-.52-.11q0,.86-.09,2.66T122.35,71H119.9q0-.18-.05-2.21t-.12-2.94l-.52-.11q-.08.9-.09,3.19t0,2.92q.78,0,1.76,0,.74,0,2.23,0l.23,1.54.55.09q0-.43.06-1.29T124,71h-.86Q123.1,70.75,123.09,68.81Z"/></svg>