<svg id="Слой_1" data-name="Слой 1" xmlns="http://www.w3.org/2000/svg" viewBox="0 0 204.86 96.06"><defs><style>.cls-1{fill:#f15a29;}</style></defs><title>2</title><path class="cls-1" d="M181.81,92.9h0l-14.9.28a67,67,0,0,0,.52-13.35c0-1.58-.09-3.15-.09-4.69s0-3.17.07-4.78A76.52,76.52,0,0,0,167,57.9a26.22,26.22,0,0,1,4.27-10.84c1.42-2.27,3-4.42,4.62-6.61.25-.34.54-.69.83-1a8,8,0,0,0,1.88-3.08c0-.13,0-.19,0-.2s-.15-.1-.47-.1a4,4,0,0,0-1.71.44c-3,2.26-5.49,6.59-7.51,10.08-.38.65-.74,1.29-1.1,1.88-.19.32-.42.7-.67,1.14.26-3.14.64-6.33,1.23-9.54l.22-1.19a89.34,89.34,0,0,0,1.78-13.12c0-.21-.06-.27-.08-.29a.76.76,0,0,0-.52-.14,2.72,2.72,0,0,0-1.75.67c-1.56,2.13-1.77,5.82-1.95,9.08-.08,1.38-.15,2.68-.32,3.77s-.36,2.19-.55,3.32c-.29,1.69-.59,3.45-.83,5.22a43.48,43.48,0,0,0-3.62-4.17c-.81-.85-1.57-1.66-2.26-2.47l0,0,0-.05c-.15-.29-.58-.34-.82-.34a2.62,2.62,0,0,0-2.1,1,.54.54,0,0,0,0,.61A34.85,34.85,0,0,0,159,45.93a23,23,0,0,1,4.93,6.78,26.87,26.87,0,0,0,.28,4.73l0,.15c-.24,1.71-.44,3.21.36,4.44-.17,3-.12,6-.07,9,0,1.57.06,3.12.05,4.66s-.06,3.23-.11,4.83a63,63,0,0,0,.43,12.66c-12.8.22-26,.39-39.6.51a1.1,1.1,0,0,0,.4-.47,37,37,0,0,0,.87-9.31c2.49,0,5,.08,7.68.16s5.7.17,8.57.17a67,67,0,0,0,15-1.36c1-.23,1.68-1.15,1.62-1.63,0-.07,0-.26-.52-.26a2.77,2.77,0,0,0-.6.08,64.71,64.71,0,0,1-14.62,1.33c-2.65,0-5.32-.08-7.91-.15s-5-.14-7.43-.14h-1.78c0-.34,0-.68,0-1,0-1.42-.05-2.9,0-4.3,0-.54,0-1.09.06-1.64h1.17c2.83,0,5.78.07,8.62.14s5.9.14,8.84.14a99.32,99.32,0,0,0,13.41-.76c.63-.09,1.79-1.08,1.79-1.54,0-.08-.22-.17-.52-.22a27.63,27.63,0,0,0-4-.26c-1.33,0-2.68.06-4,.12-1.1,0-2.2.1-3.27.11l-20.76.27h-1.17c.14-3.22.2-6.51-.91-9.41a.29.29,0,0,0-.15,0,1,1,0,0,0-.67.28,30.27,30.27,0,0,0-1.18,9.19c-7,.08-13.3.12-19.2.13-.93,0-1.92,0-2.94-.1,0-2.89,0-5.81-.27-8.68,0-.11,0-.43-.68-.43s-1.54.47-1.56.9c-.08,2.37-.23,4.79-.39,7.34l0,.69c-1.54-.1-3.11-.19-4.64-.19a18.92,18.92,0,0,0-6.8,1,1.36,1.36,0,0,0-.67.51.32.32,0,0,0,.1.09,6,6,0,0,0,3.35.73l1,0,1,0h.33c2.09,0,4.18.07,6.19.09-.13,2.23-.24,4.47-.28,6.7-1.05-.05-2.11-.09-3.16-.09a18.69,18.69,0,0,0-7,1,1.33,1.33,0,0,0-.45.32c1.26.77,3.31,1.14,6.25,1.14,1.41,0,2.9-.08,4.29-.18a55.85,55.85,0,0,0,.79,9.73l-8.13,0h-3.1l-5.48,0c1-5,.7-10.6.41-16-.12-2.37-.24-4.6-.26-6.79,0-1.8,0-3.66.05-5.47A90.82,90.82,0,0,0,82,52.74l.79,0a54,54,0,0,0,5.75-.38,2.81,2.81,0,0,0,1.73-1,.51.51,0,0,0,.07-.48,146.48,146.48,0,0,0-8.18-18.87c-.5-1-1-2.08-1.54-3.26-1.82-4-4.06-8.86-7.36-10.91,0-.05,0-.12-.11-.23-2.51-2.7-6.25-4.29-9.86-5.83-1-.43-2-.85-2.94-1.29a55.15,55.15,0,0,1-5.28-2.93A40.35,40.35,0,0,0,48,4a.75.75,0,0,0-.25,0,3,3,0,0,0-1.44.5,2.12,2.12,0,0,0-.65.2c-5.46,2.85-9.84,5.22-13.77,7.44l-1.88,1a48.88,48.88,0,0,0-7.14,4.49,2.06,2.06,0,0,0-1.43.49C18.07,23.26,15.59,29,13.2,34.64l-.11.26c-.91,2.13-1.81,4.27-2.71,6.41L8.8,45.08c-.28.66-.63,1.33-1,2C7,48.68,6.13,50.36,6.23,52a1.28,1.28,0,0,0-.61.82c0,.13.31.19.6.19l.35,0a26.44,26.44,0,0,1,2.85-.13c.67,0,1.35,0,2,0s1.33,0,2,0h1.5v.52c-.13,7.78-.12,14.27,0,20.43.06,2.17,0,4.43,0,6.62a90.35,90.35,0,0,0,.45,12.76c-4.76.06-9.24.16-13.54.32a2.65,2.65,0,0,0-1.76,1c-.13.2-.14.31-.13.33s.18.15.7.17c22,.87,44.05,1,60.78,1q12.89,0,25.77-.07l4.44,0q12.7,0,25.4-.14l21.17-.12h1.15q6.92,0,13.85,0l8,0,2.62,0c1.27,0,2.55,0,3.83,0a48.82,48.82,0,0,0,13.72-1.53,1.4,1.4,0,0,0,1-1.13C182.4,92.91,182,92.9,181.81,92.9ZM38.2,69.71c.16,7.71.33,15.68,0,23.52,0,0,0,0,0,0q-6-.08-11.89-.09A49.6,49.6,0,0,0,26.69,82c-.05-1.2-.11-2.39-.13-3.55,0-1.72-.08-3.43-.13-5.15-.09-3.12-.18-6.34-.2-9.52v-.5h.5c1,0,1.89-.06,2.82-.1,1.09-.05,2.22-.1,3.34-.1a22,22,0,0,1,5.62.64,1.78,1.78,0,0,0-.15.12.74.74,0,0,0-.25.52Q38.14,67,38.2,69.71Zm41.3-17.18a.39.39,0,0,0,0,.09,111,111,0,0,0-.15,12.73c.05,2.09.11,4.25.11,6.35,0,2.34-.14,4.75-.28,7.3-.28,5-.56,10.23.21,14.91-7.8-.07-15.63-.21-23.27-.35-5-.09-10.07-.19-15.16-.26a1.11,1.11,0,0,0,.55-.77c.32-8.39.21-17.54-.35-28.81,0-.35-.26-.55-.71-.6a1.6,1.6,0,0,0,.7-.81c0-.2-.37-.33-.55-.38A20,20,0,0,0,35,61.21c-1.35,0-2.66.1-4,.2s-2.94.22-4.54.22l-1,0a2.88,2.88,0,0,0-1.75.67.51.51,0,0,0-.18.39c.19,4.69.19,9.42.19,14V79c0,1.35,0,2.75-.09,4.12a48,48,0,0,0,.36,10.06c-2.58,0-5.08,0-7.5,0a88.41,88.41,0,0,0,.34-13.09c-.05-2.21-.11-4.48-.07-6.68,0-2.66.07-5.32.09-8,0-4.39.08-8.92.2-13.39,0-.1,0-.13,0-.14a.94.94,0,0,0-.61-.14H16.1c-.5,0-1,.06-1.51.06-1,0-2.08-.07-3.09-.14s-2-.14-3-.14c-.38,0-.76,0-1.15,0l-.31,0C9.82,49,11.5,44.44,13,40.39c.54-1.46,1-2.84,1.58-4.09a139.77,139.77,0,0,1,8.6-17.54A61.47,61.47,0,0,0,30,15c1.05-.63,2.11-1.26,3.17-1.86C37.43,10.81,41.64,8.58,46.6,6A90.38,90.38,0,0,1,57.88,12a76,76,0,0,0,13.27,6.82.62.62,0,0,0,.19,0,2.89,2.89,0,0,0,1.16-.31c-.08,3.23,2.3,7.15,4.44,10.64.82,1.34,1.59,2.6,2.15,3.71a154.44,154.44,0,0,1,7.39,17.13l.23.64-1.94.08c-1.38,0-2.81.1-4.2.25-.81.09-1.49.79-1.49,1.19C79.08,52.38,79.29,52.47,79.49,52.53Zm22,41.37a78.59,78.59,0,0,0,0-8.66c0-.42,0-.86,0-1.29.65,0,1.25-.06,1.79-.06h.12q9.36.06,18.72.06h1a35.35,35.35,0,0,0,.31,9.79Q112.67,93.84,101.47,93.9Zm22.1-16.44c-.05,1.47-.18,3-.3,4.53v.19q-7.68,0-15.35.07h-3.38c-1,0-2,0-3.09-.11,0-.78,0-1.56,0-2.33,0-1.07,0-2.13,0-3.2,0-.44,0-.89,0-1.33h5.36c5.66,0,11.35,0,16.78-.08C123.61,76,123.61,76.72,123.58,77.46Zm60.94-4.72a16.38,16.38,0,0,0-2.29.23c-.39.06-.73.11-1,.13-2,.15-4,.29-6,.29-.64,0-1.27,0-1.94,0a3.13,3.13,0,0,0-1.95,1.18c-.17.23-.18.36-.17.38s.13.12.48.17a26.61,26.61,0,0,0,3.71.23c1.47,0,3-.09,4.31-.16l1.18,0c1.65,0,3.53-.09,4.72-.93a1.06,1.06,0,0,0,.45-.63.5.5,0,0,0-.1-.39C185.87,73,185.5,72.73,184.52,72.73Zm.5,8.56a2.87,2.87,0,0,0-2,.64l-.24-.21-.25.07a4.94,4.94,0,0,1-.89.21c-1,.11-1.94.15-2.85.18-.64,0-1.29,0-1.93,0a30.71,30.71,0,0,0-3.85.19c-.51.07-1.39.86-1.38,1.12,0,0,.07.08.36.13a26.41,26.41,0,0,0,4.53.33c1.08,0,2.15,0,3.2-.08,2.22-.08,4.7-.29,6-1.81.28-.32.29-.49.28-.52S185.7,81.3,185,81.3ZM50,42a17.54,17.54,0,0,0,3.14-.22l.1,0a.93.93,0,0,0,.47.11c1,0,2.24-.71,2.39-1.33a24.34,24.34,0,0,0,.32-6.4c0-.51,0-1,0-1.5,0-.26,0-.53,0-.82,0-1.85,0-3.94-1.4-4.93a.43.43,0,0,0,.05-.12c0-.08-.13-.17-.22-.21a8.7,8.7,0,0,0-3.91-.68H47.37a16.34,16.34,0,0,0-4.55.49,1.24,1.24,0,0,0-.84-.28,2.34,2.34,0,0,0-2.17,1.4,12.44,12.44,0,0,0,0,3.71c.07.7.14,1.35.15,2,0,.87,0,1.79-.05,2.69a20.64,20.64,0,0,0,.34,6c0,.09.09.34.66.34a2.86,2.86,0,0,0,1.24-.33h1.23l2.63,0,2.68,0ZM46.9,39.75c-.76-.05-1.54-.11-2.31-.11a11.28,11.28,0,0,0-1.34.08,27.49,27.49,0,0,0,.17-5.53c0-.57,0-1.14-.05-1.69s0-.92,0-1.47a17.68,17.68,0,0,0-.07-3.4,10.71,10.71,0,0,0,1.1.06l1,0,1,0h.23c.81,0,1.63.07,2.46.12s1.86.12,2.78.12a15.09,15.09,0,0,0,1.66-.08,1.24,1.24,0,0,0,.31-.09,18.33,18.33,0,0,0-.27,4.22c0,.64,0,1.28,0,1.91,0,1.53-.18,3.07-.31,4.56,0,.5-.08,1-.12,1.51H53c-1.49,0-3,0-4.57-.09C48,39.82,47.44,39.79,46.9,39.75Zm3.61,29.67.05-.57a21.46,21.46,0,0,0-.06-6.92c2.6-.13,5.3-.2,8.09-.2,3.67,0,7.45.11,11.25.34h0A2.26,2.26,0,0,0,71,61.42l-.06,0a10,10,0,0,0-4.3-.79c-1.19,0-2.41.11-3.59.22-.66.06-1.32.12-2,.16S60,61,59.38,61s-1.4,0-2.1,0-1.37,0-2.06,0a16.63,16.63,0,0,0-4.83.59c-.05-.18-.1-.37-.17-.54s-.31-.22-.5-.22c-.65,0-1.33.44-1.35.75-.08,1.32-.05,2.68,0,4s.05,3-.05,4.46c0,.42-.11.91-.19,1.45-.27,1.67-.6,3.74.51,4.39h0a.32.32,0,0,0,.16-.06c1.39-1.11,1.52-3.15,1.64-5.13C50.45,70.23,50.48,69.81,50.51,69.41Zm20-7c-1.42,3.34-1.35,7.87-1.29,11.51v.31a14.89,14.89,0,0,0-1.69-.1c-1.06,0-2.16.09-3.23.17s-2.18.17-3.24.17l-.9,0a30.88,30.88,0,0,1-3.09-.37,24.57,24.57,0,0,0-3.67-.38,7.86,7.86,0,0,0-3,.54,1.38,1.38,0,0,0-.82.87s.09.09.46.1c1.93,0,3.88.17,5.78.29,2.28.15,4.63.3,6.94.3h0a33.65,33.65,0,0,0,8-.83,1.43,1.43,0,0,0,.54-.3l-.56-.16a1.74,1.74,0,0,0,.63-.38.48.48,0,0,0,.17-.33c-.06-2.2,0-4.48.09-6.32l0-.52A9.23,9.23,0,0,0,71,62.2.63.63,0,0,0,70.52,62.4ZM204.83,32.3a7.6,7.6,0,0,0-1-3.05l-.23-.46c-.46-.93,0-2.46.4-3.8a13.08,13.08,0,0,0,.38-1.42c.33-2-2.83-2.83-5.83-3.4-.45-.09-.85-.16-1.14-.24-.47-.12-.64-.63-1.24-3a15.45,15.45,0,0,0-.66-2.22c-1-1.69-3.18-3-5.07-4.2l-1-.66a32.26,32.26,0,0,1-6.72-5.49L182,3.62C180.8,2.25,179.45.69,177.73.29a11,11,0,0,0-2.5-.29,13.77,13.77,0,0,0-4.66.91A14.62,14.62,0,0,0,168,2.21l-.83.48a6.52,6.52,0,0,1-3.08.52H163a9.82,9.82,0,0,0-1.35.07,2,2,0,0,0-1.45.95,13.46,13.46,0,0,0-3.28-.42,13,13,0,0,0-11.75,6.78c-1.65,3.28-4.07,5.34-6.41,7.34a31.64,31.64,0,0,0-4.8,4.73C131.3,26.1,131,30,130.74,34.22c0,.55-.08,1.1-.12,1.66a11.53,11.53,0,0,1-2.33,5.57c-1.34,2-2.49,3.8-1.75,6.59s3.4,4.26,6,5.77a22.74,22.74,0,0,1,3.62,2.41c.86.76,1.2,2.48,1.5,4a12.79,12.79,0,0,0,.42,1.74A6.93,6.93,0,0,0,141,65.06a9.74,9.74,0,0,0,5.6,1.31c1.52,0,3.07-.15,4.57-.3,1.08-.11,2.11-.21,3-.24a2.54,2.54,0,0,0,2-1.53c0-.07-.23-.18-.75-.18h0c-1.21,0-2.44.08-3.63.14s-2.72.14-4.09.14l-1.24,0c-4.46-.16-5.37-3.24-6.26-6.22a24.67,24.67,0,0,0-.83-2.49c-.48-1.14-2.07-2-3.35-2.63-.35-.18-.68-.35-1-.52a14.78,14.78,0,0,1-5.6-5.41c-1.39-2.4.19-4.37,1.47-5.95a12.78,12.78,0,0,0,1.08-1.47c1.41-2.42,1.5-5.07,1.59-7.88,0-.48,0-1,.05-1.44.22-4.75,2.6-8.66,7.49-12.31,2.58-1.92,4.31-3.57,5.52-6.34,2.78-6.36,7.47-6.89,12-6.89l1.38,0a.93.93,0,0,0,.64.18,3,3,0,0,0,.43,0,24.46,24.46,0,0,1,3-.19c.71,0,1.45,0,2.15-.1a7,7,0,0,0,3.31-1.48,6.94,6.94,0,0,1,4-1.59,6.57,6.57,0,0,1,2.82.71A12.75,12.75,0,0,1,180.26,6a23.07,23.07,0,0,0,1.56,1.8,22.71,22.71,0,0,0,3.84,2.84l.35.22a39.81,39.81,0,0,1,5.93,4.32,3.48,3.48,0,0,1,1,3.24,3.61,3.61,0,0,0,.06,1.47c.5,1.45,2.57,1.84,4.24,2.16.37.07.73.14,1,.21a3.53,3.53,0,0,1,2.41,1.31,3.25,3.25,0,0,1-.06,2.57,14.77,14.77,0,0,0-.36,1.58,6.85,6.85,0,0,0,.63,3.54,10.6,10.6,0,0,1,.8,3.25c.28,6.07-3.94,8.79-8,11.41-1,.64-2,1.31-3,2-2,1.47-1.93,3.52-1.66,5.85.5,4.32.31,10.22-7,11.56a20,20,0,0,1-3.55.29,32.31,32.31,0,0,1-6.34-.66,2.14,2.14,0,0,0-1.14.49.53.53,0,0,0,.21.11,24,24,0,0,0,8,1.48c4.34,0,8-1.4,10.3-4s3.17-5.93,2.72-10.22c-.4-3.81,2.83-6,5.95-8.12,1.93-1.31,3.92-2.66,5-4.37C204.45,38.41,205,35.77,204.83,32.3ZM151.77,22.08c.05,0,.12-.08,0-.08S151.69,22.08,151.77,22.08Z"/></svg>