<svg id="Слой_1" data-name="Слой 1" xmlns="http://www.w3.org/2000/svg" viewBox="0 0 84.94 22.93"><defs><style>.cls-1{fill:#f15a29;}</style></defs><title>1</title><path class="cls-1" d="M84.36,4.24C81.63-.2,72.07-2.51,69.61,3.38,67.67,8,72.62,14,77.28,10.69c1.75-1.25,2.52-3.86,1-5.52-1.9-2.13-3.2,1-3.79,2.54-.57,1.28-2.11,1.36-3.2.12A4.36,4.36,0,0,1,72.41,2.5C75.2.57,79.7,2.1,82,4.17c4.68,4.28-1,10.22-5.28,11.55-3.44,1.06-7.27.85-10.8.6a129.32,129.32,0,0,1-14.38-1.79C43.17,13,35.48,9.16,27.37,6.8,21.31,5,13.52,3.82,7.52,6.44,2.92,8.45-.35,12.82.63,18c.88,4.68,6.05,5.42,9.79,4.22,3.32-1.06,5.42-3.91,4.3-7.4S9.74,12,8,14.44c-.13.18-.92,2.08,1.9,3.16.68.24,1.41.35,2.1.57l.17.08c0,.38-.06.54-.41,1.1a3.7,3.7,0,0,1-1.35,1.44c-3,1.34-6.91.84-8.27-2.53-1.25-3.08.55-6.63,2.74-8.7,3.14-3,7.91-3.24,12-3.11,8.53.26,16.53,3.93,24.45,6.77s16.25,4,24.64,4.66c5.67.44,13.28.63,17.27-4.28C85.35,10.9,86.26,7.33,84.36,4.24Z"/></svg>