<svg id="Слой_1" data-name="Слой 1" xmlns="http://www.w3.org/2000/svg" viewBox="0 0 84.94 22.93"><defs><style>.cls-1{fill:#fff;}</style></defs><title>1</title><path class="cls-1" d="M83.9,4.39C81.18,0,71.62-2.36,69.16,3.53c-1.94,4.65,3,10.65,7.66,7.31,1.75-1.25,2.52-3.86,1-5.52-1.9-2.13-3.2,1-3.79,2.54C73.49,9.14,72,9.22,70.87,8A4.36,4.36,0,0,1,72,2.66c2.79-1.93,7.29-.4,9.56,1.67,4.68,4.28-1,10.22-5.28,11.55-3.44,1.06-7.27.85-10.8.6a129.32,129.32,0,0,1-14.38-1.79C42.72,13.16,35,9.32,26.92,7,20.86,5.18,13.07,4,7.06,6.6,2.47,8.6-.81,13,.17,18.2c.88,4.68,6.05,5.42,9.79,4.22,3.32-1.06,5.42-3.91,4.3-7.4s-5-2.85-6.75-.43c-.13.18-.92,2.08,1.9,3.16.68.24,1.41.35,2.1.57l.17.07c0,.38-.06.54-.41,1.1a3.7,3.7,0,0,1-1.35,1.44c-3,1.34-6.91.84-8.27-2.53-1.25-3.08.55-6.63,2.74-8.7,3.14-3,7.91-3.24,12-3.11,8.53.26,16.53,3.93,24.45,6.77S57,17.38,65.44,18c5.67.44,13.28.63,17.27-4.28C84.89,11.05,85.81,7.48,83.9,4.39Z"/></svg>