<svg id="Слой_1" data-name="Слой 1" xmlns="http://www.w3.org/2000/svg" viewBox="0 0 101.98 41.01"><defs><style>.cls-1{fill:#fff;}</style></defs><title>1</title><path class="cls-1" d="M79.45,18.19C54.52,18.15,29.6,18,4.67,18,2,18-2.7,22,2,22c24.93,0,49.85.15,74.78.19C79.41,22.16,84.14,18.2,79.45,18.19Zm22.18.49C94.45,8.73,80.36,7,70.62.44c-2.48-1.66-8.6,1.74-5.36,3.9C74,10.17,86.72,12,93.88,20,86.79,24.24,78.67,30.5,72.1,35.65c-3.46,2.71-2.35,7.15,1.24,4.59,8.49-6.06,18.35-13.63,26.62-18.1C101.17,21.49,102.67,20.12,101.63,18.68Z"/></svg>