<svg id="Слой_1" data-name="Слой 1" xmlns="http://www.w3.org/2000/svg" viewBox="0 0 29.35 28.96"><defs><style>.cls-1{fill:#fff;}</style></defs><title>1</title><path class="cls-1" d="M29.35,5.33V5.05l0-.32a5.22,5.22,0,0,0-.08-.64,5.16,5.16,0,0,0-.4-1.2A5,5,0,0,0,27.28,1,5,5,0,0,0,25.1.07l-.31,0-.15,0H24L23,0,21.18.1c-2.42.09-4.64.23-6.61.34L11.81.57,9.47.66C8.06.7,6.95.72,6.19.73H4.73a2.47,2.47,0,0,0-.37,0l-.24,0L3.86.89a4.46,4.46,0,0,0-2.63,2A5,5,0,0,0,1,3.35a4.86,4.86,0,0,0-.21.56c0,.1-.06.2-.09.3L.6,4.53a2.49,2.49,0,0,0,0,.31V5s0,0,0,.09v.08C.5,6,.46,6.94.4,7.93L.24,11.06c0,1.1-.11,2.26-.15,3.48C0,17,0,19.58,0,22.36l0,1v.79l0,.31a4.86,4.86,0,0,0,.25,1.22,5.12,5.12,0,0,0,.25.58l.15.28.17.26a5.13,5.13,0,0,0,.38.5,5.31,5.31,0,0,0,.45.44A4.71,4.71,0,0,0,4,28.87a5.44,5.44,0,0,0,.64.08H5.2c3-.12,6.16-.21,9.34-.19s6.41.09,9.64.21a5.06,5.06,0,0,0,1.34-.15,4.74,4.74,0,0,0,1.25-.52,4.85,4.85,0,0,0,1.85-2,2.32,2.32,0,0,0,.14-.32c0-.11.09-.21.12-.33A4.91,4.91,0,0,0,29,25a5.24,5.24,0,0,0,.07-.65l0-.64,0-2.39.13-9.34q0-2.27,0-4.46Q29.35,6.39,29.35,5.33ZM27.72,24.79a3.63,3.63,0,0,1-.09.48c0,.08-.05.16-.08.24a1.43,1.43,0,0,1-.09.24,3.7,3.7,0,0,1-2.23,2.07,4.09,4.09,0,0,1-1.05.2c-3.23.12-6.46.21-9.64.21S8.23,28.16,5.2,28H4.94l-.28,0a4.56,4.56,0,0,1-.47-.1,3.88,3.88,0,0,1-.9-.38A3.76,3.76,0,0,1,2,26.16L1.85,26l-.09-.21a3.82,3.82,0,0,1-.15-.43,3.77,3.77,0,0,1-.13-.89v-1l0-1c0-2.78,0-5.4-.07-7.82,0-1.21-.1-2.37-.15-3.48L1.13,7.93C1.08,6.94,1,6,1,5.17V5.09S1,5,1,5V4.86a2.24,2.24,0,0,1,0-.3l0-.28c0-.09,0-.19.06-.28a4.46,4.46,0,0,1,.16-.53A4.63,4.63,0,0,1,1.48,3,4,4,0,0,1,3.91,1.07L4.16,1l.23,0a2.32,2.32,0,0,1,.35,0L5,.91H6.19c.76,0,1.87,0,3.28.06l2.34.09,2.76.14c2,.1,4.19.24,6.61.34L23,1.61l1,0h.2l.24,0h.12l.09,0,.17,0a3.44,3.44,0,0,1,2.41,1.94,3.35,3.35,0,0,1,.25.78,3.41,3.41,0,0,1,0,.41v.47q0,1.07,0,2.16,0,2.19,0,4.46l.13,9.34,0,2.39,0,.57A3.9,3.9,0,0,1,27.72,24.79Zm-10-18.05H11.53a4.64,4.64,0,0,0-4.64,4.63v6.55a4.65,4.65,0,0,0,4.64,4.64h6.14a4.65,4.65,0,0,0,4.64-4.64V11.37A4.64,4.64,0,0,0,17.67,6.74Zm3,11.19a3,3,0,0,1-3,3H11.53a3,3,0,0,1-3-3V11.37a3,3,0,0,1,3-3h6.14a3,3,0,0,1,3,3Zm-6-7.7h-.12a4.36,4.36,0,0,0-4.3,4.4,4.4,4.4,0,0,0,8.8,0A4.18,4.18,0,0,0,14.63,10.23Zm0,6.75a2.35,2.35,0,0,1-2.35-2.35,2.32,2.32,0,0,1,2.32-2.35h0A2.15,2.15,0,0,1,17,14.6,2.37,2.37,0,0,1,14.6,17Zm4.16-7.47a.95.95,0,1,0,.95.95A.95.95,0,0,0,18.76,9.51Z"/></svg>