<svg id="Слой_1" data-name="Слой 1" xmlns="http://www.w3.org/2000/svg" viewBox="0 0 213 97"><defs><style>.cls-1{fill:#f15a29;}</style></defs><title>1</title><path class="cls-1" d="M116.2,53.4c-2.52-.22-5.2-.08-7.25,1.48-.13-.61-.27-1.23-.43-1.83a.48.48,0,0,0-.64-.3,13.51,13.51,0,0,0-4.15-1.62,7.27,7.27,0,0,0,2.81-.44,7,7,0,0,0,3.51-3.32c1.27-2.53-.22-8.45,2.75-9.64,2.71-1.09,6.11.63,9-.44a11,11,0,0,0,4.7-3.42c2.8-3.46,2.76-7.84,1.05-11.79-3.87-8.94-14.68-14.88-24.28-12.67-3.69.85-7.42,3.07-8.75,6.81A8.87,8.87,0,0,0,98,26.52l.12,0c2.6,3.76,5.51,6.88,4.78,11.94a46.24,46.24,0,0,1-.48,5c-.58,1.77-2.26,2.36-3.72,2.82-2.23.7-4.44.85-5.56,3.29l-.05.13a12.55,12.55,0,0,0-3.87-.54c4.17-2.7,7.84-6.45,7.93-11.2a.25.25,0,0,0-.17-.24c-1-4-8.86-5-12.11-5.21a32.38,32.38,0,0,0-13.62,2.36,3.13,3.13,0,0,0-.67-1,3,3,0,0,0-3.52-.45c-1,.44-2.43,1.13-1.93,2.46a4,4,0,0,0,1,1.4C61.35,39.77,56.47,43,53.74,47.7c-1.25,2.15-3.85,8.3-.86,10a.53.53,0,0,0,.57.5c1.08,0,2.16-.06,3.24-.12a.49.49,0,0,0,.1.41.52.52,0,0,0-.07.27c0,.15,0,.3,0,.45-3.26-1.91-14-1.76-11.81,4.37.9,2.55,3.93,3.65,6.37,4,1.13.17,4.35.25,5.78-.82.56,6.92,2,14.17,5.6,19.57,5.15,7.7,16.25,7,24.42,6.57s17.44-.82,20.94-9.47c1.84-4.54,2-9.84,2.06-14.66,0-1.93,0-3.88-.1-5.83,3.9.79,13.64-.65,11.95-6.68C121.22,53.82,118.38,53.58,116.2,53.4Zm-9.33-.32a25.63,25.63,0,0,1-9,4.89c-.28-2-2.06-4.85-1-5.75a4.16,4.16,0,0,1,.84-.55c1.66.23,3.34.18,5,.45C104.1,52.34,105.47,52.78,106.87,53.08ZM97.93,47.6c2.14-.44,4.75.52,5.87-1.85.29-.62-.34-3.36-.34-3.43a30.09,30.09,0,0,1,.71-4.19,10.51,10.51,0,0,0-.34-4.58,16.83,16.83,0,0,0-5.37-7.69c-5.09-5-3.56-12.11,3.06-14.69,4.71-1.83,10-1.13,14.55,1A21.17,21.17,0,0,1,126.32,22c3.06,6.43-.12,14.5-7.87,14.79-2.6.1-6.17-1.12-8.19,1.29-.93,1.11-.86,2.1-.85,3.46a28.48,28.48,0,0,1,.18,2.9c-.25,3.5-2.5,5.16-5.86,5.74-2.7.46-5.5-1-7.65,1.41-2.44,2.71.64,4,1.24,6.52-1.1.33-2.22.61-3.35.86C95.17,54.93,91.93,48.85,97.93,47.6Zm-7.67,2.71a17.84,17.84,0,0,1,2.63.15c-.73,2.84,1.08,5.9-.18,8.72,0,0,0,0,0,.06a87.81,87.81,0,0,1-9.53,1.12A77.35,77.35,0,0,1,58.37,58a78.81,78.81,0,0,0,24.15-5.32A43.89,43.89,0,0,0,87,50.58,31.36,31.36,0,0,0,90.25,50.31ZM56.89,64.24c-2.12.76-5.54,1.57-7.29-.23a1.78,1.78,0,0,1,.87-2.87,7.5,7.5,0,0,1,2-.29,9.43,9.43,0,0,1,3.89.82.48.48,0,0,0,.37,0C56.8,62.52,56.84,63.37,56.89,64.24Zm-9.94.15C42.28,59,53.75,59,56.28,60.28a.56.56,0,0,0,.45,0c0,.07,0,.14,0,.21h0c-2.24-1-9.6-1.87-8.87,2.57.65,3.94,6.38,3.27,9.06,1.82,0,.36,0,.72.06,1.08C53.89,67,49.25,67.05,46.95,64.39ZM54,57a.62.62,0,0,0-.28-.23c-2.6-1,.72-7.68,1.51-8.93a20.53,20.53,0,0,1,4.3-4.72,42.66,42.66,0,0,1,7.7-5,6.6,6.6,0,0,0,.82.43c.84.36,2.14.69,2.86-.05a.43.43,0,0,0,.49-.37,8.43,8.43,0,0,0,.14-2,32,32,0,0,1,12-2.42c3.29,0,11.44.81,13,4.5C94,45.91,86.32,50.07,79.2,52.53A85.15,85.15,0,0,1,54,57Zm53.8,22.08c-1,5.06-3.48,9.38-8.67,10.93-4.07,1.21-8.61,1.41-12.83,1.57-8.61.34-19.25.87-23.66-8C59,76.18,58.11,67,57.82,58.94c9.36,3,19.49,3.35,29.19,2.24,7-.79,15.89-1.77,20.64-7.61C108.36,62.06,109.5,70.6,107.81,79.07Zm1.6-21.6h0a31.34,31.34,0,0,1,3.8-1,10,10,0,0,1,2.41-.16,6.64,6.64,0,0,1,1.73.34q0,.7,0,1.41c-.58,1-2.44,1.43-3.48,1.65a14.37,14.37,0,0,1-4.17.19Q109.6,58.66,109.42,57.46ZM116,61.57a12.19,12.19,0,0,1-5.87.18.65.65,0,0,0-.28,0c0-.41-.07-.82-.1-1.24,2.64.5,8.77.41,9.14-3.23.4-3.91-8-1.49-9.69-.91,0-.27-.09-.55-.15-.82,2.71-1.28,7.09-1.88,9.81-.52C123.78,57.5,118.29,60.9,116,61.57ZM32.11,33.41a4,4,0,0,1-.24.68,3.34,3.34,0,0,1-.35.6.79.79,0,0,1-.47.33c-.36.08-.85-.44-1.46-1.54a36,36,0,0,1-2.09-4.93Q26.32,25.27,25,20.42T22.23,9.21Q21.37,5.29,20.41.47c-1-.22-1.53-.31-2.54-.47-.35,10.13-.67,20.25-1.15,30.38Q12.05,19.28,7.19,8.25A22.78,22.78,0,0,0,4,9q.3.78.56,1.72t.5,2c.39,1.73.75,3.67,1.05,5.8s.55,4.3.73,6.5.28,4.35.3,6.42A50.16,50.16,0,0,1,7,37a20.21,20.21,0,0,1-.79,4.09A3.85,3.85,0,0,1,4.8,43.27a.49.49,0,0,1-.21.11l-.2,0a1,1,0,0,1-.75-.12A2.05,2.05,0,0,1,3,42.68a4.31,4.31,0,0,1-.49-1,8,8,0,0,1-.33-1.19A6.65,6.65,0,0,1,2.07,39a10.57,10.57,0,0,1,.21-1.75,7.66,7.66,0,0,1,.46-1.52,1.55,1.55,0,0,1,.7-.85q.25-.11.51.37a3.93,3.93,0,0,1,.37,1,2,2,0,0,1,0,.79l1,.52a4.28,4.28,0,0,0-.09-1.69,6.07,6.07,0,0,0-.31-1A3.17,3.17,0,0,0,4.51,34a1.37,1.37,0,0,0-.62-.45,1,1,0,0,0-.76.08A4.15,4.15,0,0,0,1.56,35a8,8,0,0,0-1,2A9.62,9.62,0,0,0,0,39.21a7.05,7.05,0,0,0,.06,2.06,5.27,5.27,0,0,0,.43,1.32,3.59,3.59,0,0,0,.82,1.1,3.22,3.22,0,0,0,1.25.69,3.55,3.55,0,0,0,1.71,0,4.6,4.6,0,0,0,3.1-2.37,15.36,15.36,0,0,0,1.76-5.89,51.81,51.81,0,0,0,.2-9.26,91.14,91.14,0,0,0-1.5-12q4.56,9.88,8.91,19.85l1.1,0c.44-8.42.75-16.85,1.07-25.28,1.12,4.32,2.23,8.64,3.49,12.92a81.89,81.89,0,0,0,3,8.7,16.17,16.17,0,0,0,2.82,4.79,3.14,3.14,0,0,0,2.94,1.13,1.83,1.83,0,0,0,1-.52,4,4,0,0,0,.69-.94,5,5,0,0,0,.43-1.12,4.71,4.71,0,0,0,.16-1l-1.25-.49A2,2,0,0,1,32.11,33.41Zm13.6-1.83A11.11,11.11,0,0,0,47,29.29c.15-.34.3-.71.45-1.09A8.06,8.06,0,0,0,48,29.4a4.35,4.35,0,0,0,1.56,1.74,2.35,2.35,0,0,0,1.56.36,2.87,2.87,0,0,0,1.63-1.15,10.24,10.24,0,0,0,1.45-2.6A24.06,24.06,0,0,0,55.32,24,30.54,30.54,0,0,0,56,19.45q.15.72.33,1.62T56.69,23q.21,1,.47,2t.54,1.78c.41,1.08.77,1.66,1.09,1.74s.72-.24,1.22-1a13.22,13.22,0,0,0,.8-1.51q.4-.87.71-1.69t.55-1.52c.16-.47.28-.82.37-1q.14.88.46,2.15a13.47,13.47,0,0,0,.86,2.42,6.34,6.34,0,0,0,1.31,1.89,2,2,0,0,0,1.78.59A3.56,3.56,0,0,0,69,27.49a14.53,14.53,0,0,0,1.63-2.39,4.38,4.38,0,0,0,1,2.08,2.26,2.26,0,0,0,2,.71,3,3,0,0,0,1.54-.75,7.33,7.33,0,0,0,1.27-1.46,11.23,11.23,0,0,0,1-1.75A12.34,12.34,0,0,0,78,22.21a8.2,8.2,0,0,0,1.49,3.46,2.46,2.46,0,0,0,2.3,1A2.88,2.88,0,0,0,83.23,26a9.36,9.36,0,0,0,1.43-1.49,21.71,21.71,0,0,0,1.39-2c.45-.74.89-1.51,1.29-2.3l-1-.69q-.51.95-1.13,1.87c-.42.62-.83,1.19-1.24,1.7a9.84,9.84,0,0,1-1.18,1.27,1.87,1.87,0,0,1-.93.53.76.76,0,0,1-.64-.27,2.85,2.85,0,0,1-.5-.81,7.81,7.81,0,0,1-.39-1.18q-.17-.66-.28-1.39t-.17-1.3q-.07-.65-.11-1.19t0-.95q0-.41,0-.62l-1.84-.65a9.91,9.91,0,0,1-.13,1.52,18.34,18.34,0,0,1-.4,1.9q-.26,1-.61,2A15.56,15.56,0,0,1,76,23.91a7.51,7.51,0,0,1-.9,1.44,1.56,1.56,0,0,1-1,.64c-.23,0-.41-.12-.56-.44a4.52,4.52,0,0,1-.34-1.26,13.44,13.44,0,0,1,0-4.28,10.19,10.19,0,0,1,1.11-3.32,5.48,5.48,0,0,1,1.82-2,3.12,3.12,0,0,1,2.1-.5L78,12.93a3.54,3.54,0,0,0-.89-.24,4.41,4.41,0,0,0-2.91.54,6.5,6.5,0,0,0-2.35,2.38,11.6,11.6,0,0,0-1.38,3.8,13.13,13.13,0,0,0-.2,3.2c-.27.58-.56,1.14-.85,1.67a9,9,0,0,1-1,1.43,1.65,1.65,0,0,1-1,.65c-.31,0-.59-.15-.84-.58A7.65,7.65,0,0,1,66,24.14q-.31-1-.56-2.22T65,19.57q-.12-.76-.21-1.46c-.06-.46-.11-.87-.13-1.19s0-.4-.06-.58a4.61,4.61,0,0,1-.05-.54L63,15.33a34.46,34.46,0,0,1-1.31,4.35q-.82,2.19-1.74,4.56c-.22.51-.4.63-.56.36a5.29,5.29,0,0,1-.45-1.34c-.29-1.21-.56-2.55-.77-4s-.38-2.8-.51-4.08-.24-2.39-.32-3.32-.14-1.49-.17-1.68c-.91.6-1.37.91-2.27,1.54q.05,1.11.06,2.71t-.11,3.35q-.11,1.75-.36,3.53a29.23,29.23,0,0,1-.64,3.31,10.19,10.19,0,0,1-1,2.58,3,3,0,0,1-1.45,1.35c-.27.1-.58,0-.9-.35a4.63,4.63,0,0,1-.87-1.6A14.78,14.78,0,0,1,49,24c0-.14,0-.29,0-.43.14-.54.28-1.08.41-1.65l-.53-.45c0-.31,0-.61,0-.93l-2.07.32a20.84,20.84,0,0,0,.1,4.8c-.21.55-.42,1.08-.63,1.55a12.63,12.63,0,0,1-1.08,2q-.53.77-.89.84a.7.7,0,0,1-.68-.33,4.47,4.47,0,0,1-.59-1.1,13.78,13.78,0,0,1-.51-1.6q-.24-.9-.43-1.9t-.31-1.79q-.14-.9-.23-1.65t-.14-1.34l-.07-.89-1.92-.34a19,19,0,0,1,0,2.13q0,1.27-.21,2.67t-.41,2.81a22.55,22.55,0,0,1-.6,2.57,9.58,9.58,0,0,1-.77,1.9,1.54,1.54,0,0,1-.94.86q-.34.07-.61-.48a6.3,6.3,0,0,1-.46-1.48A20,20,0,0,1,35,24.86a18,18,0,0,1,.79-4.45,10.31,10.31,0,0,1,1.61-3.2,3.64,3.64,0,0,1,2.05-1.47L39.08,14a2.39,2.39,0,0,0-.91,0,5.16,5.16,0,0,0-2.85,1.88,12.13,12.13,0,0,0-2.09,3.81,19.66,19.66,0,0,0-1,4.94,18.72,18.72,0,0,0,.35,5.38,7.09,7.09,0,0,0,1.53,3.56,2.22,2.22,0,0,0,2,.74,2.62,2.62,0,0,0,1.49-1,7.92,7.92,0,0,0,1.15-1.9,14.82,14.82,0,0,0,.8-2.34A19.5,19.5,0,0,0,40,26.8a13.16,13.16,0,0,0,1.86,4.49,2.46,2.46,0,0,0,2.44,1.31A2.43,2.43,0,0,0,45.71,31.59ZM147,48.69a16.1,16.1,0,0,0-.71-3.73A11.45,11.45,0,0,0,145,42.14a5.62,5.62,0,0,0-1.66-1.7,2.78,2.78,0,0,0-1.78-.46,4.49,4.49,0,0,0-2,.72,8.14,8.14,0,0,0-1.69,1.49,13.31,13.31,0,0,0-1.41,2q-.64,1.08-1.16,2.16a14.07,14.07,0,0,0-.63-1.83,6.5,6.5,0,0,0-.91-1.55,3.82,3.82,0,0,0-1.27-1,3.1,3.1,0,0,0-1.7-.27,6.24,6.24,0,0,0-2.46.79,7.51,7.51,0,0,0-2.11,1.79,9.24,9.24,0,0,0-1.51,2.69,11.58,11.58,0,0,0-.67,3.55q0,.42,0,.79t0,.7a6.46,6.46,0,0,0,.58,2.2,5.8,5.8,0,0,0,1,1.49,4.06,4.06,0,0,0,1.13.86,3.83,3.83,0,0,0,1,.34,2.16,2.16,0,0,0,1.87-.47,4.65,4.65,0,0,0,1.23-1.8,9.6,9.6,0,0,0,.62-2.46,11.8,11.8,0,0,0,.08-2.38,5.55,5.55,0,0,0-.52-2.09,1.22,1.22,0,0,0-1.11-.78,1.54,1.54,0,0,0-.77.23,4.8,4.8,0,0,0-.68.49l.9,1a.41.41,0,0,1,.17-.17.79.79,0,0,1,.35-.13c.14,0,.26.15.35.45a4,4,0,0,1,.18.89,8.65,8.65,0,0,1-.07,1.81,9.92,9.92,0,0,1-.46,2,4.67,4.67,0,0,1-.82,1.51,1.21,1.21,0,0,1-1.13.49.92.92,0,0,1-.56-.35,3.35,3.35,0,0,1-.49-.8,6,6,0,0,1-.37-1.09,8.75,8.75,0,0,1-.21-1.24,12.87,12.87,0,0,1,.53-4.93,9.29,9.29,0,0,1,1-2.16,4.11,4.11,0,0,1,1.46-1.45,1.79,1.79,0,0,1,.74-.26,1.49,1.49,0,0,1,1.12.39A4,4,0,0,1,132,44.7a8.22,8.22,0,0,1,.65,1.86,15.2,15.2,0,0,1,.35,2.26c.1,1.29.17,2.75.21,4.4s.06,3.31.07,5,0,3.32,0,4.91,0,3-.07,4.25-.05,2.26-.08,3,0,1.19-.06,1.25c1,.59,1.49.89,2.49,1.47q.09-2.29.14-5.4t.18-6.47q.13-3.36.42-6.71a46,46,0,0,1,.89-6,16.68,16.68,0,0,1,1.6-4.49,3.27,3.27,0,0,1,2.52-1.93,1.13,1.13,0,0,1,.91.44,4.65,4.65,0,0,1,.83,1.38,13,13,0,0,1,.65,2.13,18.41,18.41,0,0,1,.39,2.64,22,22,0,0,1-.2,5.8,12,12,0,0,1-1.31,3.79,5.24,5.24,0,0,1-1.84,2,3,3,0,0,1-1.83.45,4.58,4.58,0,0,1-.76-.15,6,6,0,0,1-.58-.2l-.47-.21-.21,1.26c.13.07.31.16.53.26a5.38,5.38,0,0,0,.71.23,8.55,8.55,0,0,0,1.08.2,3.68,3.68,0,0,0,1.5-.18,6.3,6.3,0,0,0,1.82-.92,9.16,9.16,0,0,0,1.82-1.76,11.16,11.16,0,0,0,1.54-2.65,15.5,15.5,0,0,0,1-3.51A18.16,18.16,0,0,0,147,48.69Zm29.69,19.1q-.43-2.22-.86-4.15t-.77-3.24q-.34-1.31-.36-1.35a1,1,0,0,0-.42-.07l-.9-.08q-.5,0-1.32-.08a23.5,23.5,0,0,1,.11,2.54q0,1.45-.15,3t-.39,3a20.53,20.53,0,0,1-.61,2.65,7.79,7.79,0,0,1-.83,1.91,1.46,1.46,0,0,1-1,.79.53.53,0,0,1-.5-.29,3.9,3.9,0,0,1-.39-.79,6.23,6.23,0,0,1-.27-1q-.1-.5-.13-.85a22,22,0,0,1,.05-5.08,18.06,18.06,0,0,1,1-4.23,9.91,9.91,0,0,1,1.72-3,3.45,3.45,0,0,1,2.12-1.28l-.11-1.05-.38,0-.38,0A4.84,4.84,0,0,0,169,56.72a11.61,11.61,0,0,0-2.22,3.41,19.17,19.17,0,0,0-1.31,4.42,17.55,17.55,0,0,0-.25,3.84l-.24.47q-.49.93-1,1.74A7.88,7.88,0,0,1,162.85,72a1.61,1.61,0,0,1-1,.55c-.43,0-.84-.35-1.23-1.05a11.86,11.86,0,0,1-1-2.51,21.64,21.64,0,0,1-.63-2.94,10.67,10.67,0,0,1-.13-2.36c-1,0-1.54,0-2.56,0a19,19,0,0,0,.16-2.32,19.36,19.36,0,0,0-.07-2.06A6.81,6.81,0,0,0,156,57.6a3.92,3.92,0,0,0-.58-1.08,2.55,2.55,0,0,0-.73-.64,3.61,3.61,0,0,0-.81-.34,3.34,3.34,0,0,0-2.19.11,3.65,3.65,0,0,0-1.55,1.27,5.11,5.11,0,0,0-.82,2,5.66,5.66,0,0,0,0,2.26,5.78,5.78,0,0,0,.92,2.15,3.8,3.8,0,0,0,3.22,1.85q.58,0,1.21,0A24,24,0,0,1,154,67.7a11.48,11.48,0,0,1-.92,2.19,5.79,5.79,0,0,1-1.22,1.55,2.5,2.5,0,0,1-1.49.63,1.07,1.07,0,0,1-.87-.5,4.07,4.07,0,0,1-.7-1.48,10.61,10.61,0,0,1-.33-2.23,11.46,11.46,0,0,1,.22-2.78l-2.07-.16A12.61,12.61,0,0,0,146.2,69a8.3,8.3,0,0,0,.7,2.88,4.76,4.76,0,0,0,1.37,1.78,3.28,3.28,0,0,0,1.54.71,3,3,0,0,0,1.89-.45,6.07,6.07,0,0,0,1.82-1.77,13.18,13.18,0,0,0,1.52-3,20.26,20.26,0,0,0,1-4.11.38.38,0,0,1,.2,0,.38.38,0,0,0,.2,0,28.27,28.27,0,0,0,.11,3.13,13.91,13.91,0,0,0,.64,3.2,6.87,6.87,0,0,0,1.41,2.5,3.07,3.07,0,0,0,2.37,1,3.34,3.34,0,0,0,2.32-1,11.86,11.86,0,0,0,2-2.45c.09-.15.17-.31.25-.46a8.65,8.65,0,0,0,.81,2.29,2.27,2.27,0,0,0,2.19,1.44,3,3,0,0,0,2.15-1.22,9.17,9.17,0,0,0,1.42-2.76,20.85,20.85,0,0,0,.83-3.51q.28-1.86.39-3.48.35,1.78.8,4.14t.69,4.55a78.45,78.45,0,0,1,.53,9.79,50.64,50.64,0,0,1-.57,7.23,16,16,0,0,1-1.29,4.53c-.53,1-1.08,1.58-1.63,1.63-.31,0-.61-.16-.91-.57a6.52,6.52,0,0,1-.82-1.71,20.61,20.61,0,0,1-.67-2.59q-.3-1.48-.47-3.24a26.68,26.68,0,0,1-.13-2.93,17.31,17.31,0,0,1,.22-2.69,7.2,7.2,0,0,1,.6-2,1.31,1.31,0,0,1,1-.84c.21,0,.41.12.6.43a5,5,0,0,1,.48,1.17,13.39,13.39,0,0,1,.34,1.52c.09.54.15,1,.2,1.42a4.8,4.8,0,0,1,0,1l1.09-.84a3.17,3.17,0,0,0,0-.58c0-.24,0-.52-.06-.84a13.64,13.64,0,0,0-.29-1.68,6,6,0,0,0-.61-1.59,3.9,3.9,0,0,0-1-1.16,1.83,1.83,0,0,0-1.4-.37,2.69,2.69,0,0,0-1.69,1.14A8.29,8.29,0,0,0,167.21,81a15.45,15.45,0,0,0-.68,3.29,18.45,18.45,0,0,0,0,3.65,22.38,22.38,0,0,0,.62,3.56,12.37,12.37,0,0,0,1.16,3,6.18,6.18,0,0,0,1.67,2,3.06,3.06,0,0,0,2.14.6,4,4,0,0,0,2.79-1.84,13.59,13.59,0,0,0,2-4.9,40.12,40.12,0,0,0,.91-7.79,73.13,73.13,0,0,0-.51-10.53Q177.12,70,176.7,67.78Zm-21.78-3.95a3,3,0,0,1-1.9-.54,3.69,3.69,0,0,1-1.16-1.39,4.76,4.76,0,0,1-.46-1.77,4.42,4.42,0,0,1,.2-1.72,2.66,2.66,0,0,1,.85-1.25,1.81,1.81,0,0,1,1.5-.32,1,1,0,0,1,.69.61,5.09,5.09,0,0,1,.4,1.64A18.56,18.56,0,0,1,154.92,63.84ZM186.72,58a1.52,1.52,0,0,0-1.49-.62,2.41,2.41,0,0,0-.84.35,5.25,5.25,0,0,0-.68.53,4,4,0,0,0-.49.54,3.41,3.41,0,0,0-.24.36l.74.89a2.71,2.71,0,0,0,.31-.44,1,1,0,0,1,.62-.5q.25-.05.51.39a4.16,4.16,0,0,1,.39,1.5,19.17,19.17,0,0,1,.1,3.39,20.48,20.48,0,0,1-.43,3.32,12.26,12.26,0,0,1-.83,2.58c-.33.7-.7,1.1-1.12,1.2a.72.72,0,0,1-.79-.3,3.88,3.88,0,0,1-.56-1.09,9.33,9.33,0,0,1-.39-1.51q-.15-.83-.24-1.61a15.15,15.15,0,0,1,0-3.22,16.6,16.6,0,0,1,.64-3.27,11.16,11.16,0,0,1,1.29-2.82,4.77,4.77,0,0,1,1.94-1.79l-.83-2.39a5.77,5.77,0,0,0-2.36,1.86,13,13,0,0,0-1.84,3.23A17.81,17.81,0,0,0,179,62.68a17.19,17.19,0,0,0-.07,4.46,12.45,12.45,0,0,0,.55,2.58,7,7,0,0,0,.94,1.89,3.44,3.44,0,0,0,1.24,1.08,2.06,2.06,0,0,0,1.43.15,4.2,4.2,0,0,0,2.26-1.5,9.54,9.54,0,0,0,1.58-2.85,15,15,0,0,0,.79-3.67,17.86,17.86,0,0,0-.06-4A5.6,5.6,0,0,0,186.72,58Zm25.5-5.46a2.41,2.41,0,0,0-.2.43l-.51,1.23q-.32.76-.72,1.69t-.85,1.82a14.94,14.94,0,0,1-.91,1.59,3,3,0,0,1-.87.94.51.51,0,0,1-.72-.14A3.39,3.39,0,0,1,206.9,59a12.48,12.48,0,0,1-.41-1.63q-.17-.92-.28-1.79-.07-.59-.13-1.13c0-.36-.06-.68-.07-.93s0-.32,0-.46a3.12,3.12,0,0,1,0-.43l-1.39.15a37.9,37.9,0,0,1-1.37,4q-.83,2.08-1.78,4.35c-.22.49-.4.65-.53.47a2.88,2.88,0,0,1-.36-1A28.72,28.72,0,0,1,200,57.5q-.19-1.72-.29-3.28t-.15-2.68q-.06-1.13-.08-1.35L197.33,52q0,.92-.07,2.26T197,57.09q-.19,1.5-.51,3.06a26.64,26.64,0,0,1-.78,2.95,11,11,0,0,1-1.1,2.42A4,4,0,0,1,193.14,67a.72.72,0,0,1-.85-.13,2.7,2.7,0,0,1-.74-1.22,9.67,9.67,0,0,1-.43-2.14,13.63,13.63,0,0,1,.06-2.94l-2,.56a15.49,15.49,0,0,0-.21,4.46,7.15,7.15,0,0,0,.84,2.74,2.68,2.68,0,0,0,1.41,1.24,2.25,2.25,0,0,0,1.5,0,4,4,0,0,0,1.65-1.33,12.22,12.22,0,0,0,1.54-2.55,24.26,24.26,0,0,0,1.26-3.42,26.93,26.93,0,0,0,.83-4q.1.57.23,1.28T198.5,61q.15.79.34,1.56a11.19,11.19,0,0,0,.42,1.36c.33.8.64,1.18.93,1.16s.68-.42,1.17-1.18a17.1,17.1,0,0,0,.8-1.52q.4-.85.72-1.64c.21-.52.4-1,.57-1.45s.29-.77.38-1a14,14,0,0,0,.33,1.63,6.73,6.73,0,0,0,.68,1.71,2.65,2.65,0,0,0,1.1,1.09,1.59,1.59,0,0,0,1.56-.21,6.25,6.25,0,0,0,1.93-2A24.33,24.33,0,0,0,211,57.64q.71-1.5,1.21-2.85c.34-.9.58-1.59.74-2.06Z"/></svg>