<svg id="Слой_1" data-name="Слой 1" xmlns="http://www.w3.org/2000/svg" viewBox="0 0 246.52 112.85"><defs><style>.cls-1{fill:#fff;}</style></defs><title>1</title><path class="cls-1" d="M134.49,62.12c-2.92-.25-6-.09-8.39,1.72-.15-.71-.32-1.43-.5-2.13a.55.55,0,0,0-.74-.35,15.6,15.6,0,0,0-4.81-1.88A8.38,8.38,0,0,0,123.3,59a8.15,8.15,0,0,0,4.06-3.86c1.47-2.94-.25-9.83,3.18-11.22,3.14-1.27,7.07.73,10.47-.51a12.67,12.67,0,0,0,5.44-4c3.24-4,3.19-9.12,1.22-13.71-4.48-10.4-17-17.31-28.1-14.74-4.27,1-8.58,3.57-10.13,7.93a10.35,10.35,0,0,0,4,12,.43.43,0,0,0,.13.05c3,4.38,6.37,8,5.53,13.9-.2,1.38-.16,4.65-.55,5.85-.68,2.06-2.62,2.74-4.3,3.28-2.58.81-5.13,1-6.43,3.82,0,.05,0,.1-.06.15a14.45,14.45,0,0,0-4.48-.62c4.83-3.14,9.08-7.5,9.18-13a.29.29,0,0,0-.19-.28c-1.13-4.66-10.26-5.83-14-6.06A37.29,37.29,0,0,0,82.5,40.65a3.64,3.64,0,0,0-.78-1.22,3.51,3.51,0,0,0-4.07-.52c-1.18.51-2.81,1.32-2.23,2.86a4.62,4.62,0,0,0,1.11,1.62C71,46.27,65.36,50,62.19,55.5c-1.44,2.5-4.45,9.66-1,11.67a.62.62,0,0,0,.65.58c1.25,0,2.5-.07,3.75-.14a.57.57,0,0,0,.11.48.61.61,0,0,0-.08.31c0,.17,0,.35,0,.53C61.87,66.71,49.48,66.89,52,74c1,3,4.55,4.25,7.37,4.68,1.3.2,5,.29,6.69-1,.65,8.05,2.31,16.49,6.49,22.77,6,9,18.81,8.11,28.26,7.64s20.18-1,24.23-11c2.12-5.28,2.31-11.44,2.39-17.06,0-2.24,0-4.51-.12-6.79,4.51.92,15.79-.76,13.82-7.77C140.29,62.62,137,62.34,134.49,62.12Zm-10.8-.37a29.62,29.62,0,0,1-10.45,5.69c-.33-2.33-2.38-5.64-1.17-6.69a4.8,4.8,0,0,1,1-.64c1.92.27,3.87.21,5.8.53C120.48,60.9,122.07,61.41,123.69,61.75Zm-10.36-6.37c2.47-.52,5.5.6,6.8-2.15.34-.72-.39-3.9-.39-4,0-1.62.61-3.28.82-4.88a12.29,12.29,0,0,0-.39-5.32,19.58,19.58,0,0,0-6.21-9C108.07,24.29,109.83,16,117.5,13c5.45-2.13,11.63-1.32,16.83,1.12a24.57,24.57,0,0,1,11.86,11.5c3.54,7.48-.14,16.87-9.1,17.21-3,.12-7.15-1.3-9.48,1.5-1.07,1.29-1,2.45-1,4a33.37,33.37,0,0,1,.21,3.37c-.29,4.08-2.89,6-6.78,6.68-3.12.54-6.37-1.13-8.86,1.65-2.82,3.15.74,4.69,1.43,7.59-1.27.39-2.57.72-3.88,1C110.15,63.9,106.4,56.83,113.33,55.38Zm-8.88,3.16a20.48,20.48,0,0,1,3,.17c-.85,3.3,1.25,6.87-.21,10.15,0,0,0,0,0,.07a101.17,101.17,0,0,1-11,1.31A89.09,89.09,0,0,1,67.56,67.5,90.8,90.8,0,0,0,95.5,61.3a50.69,50.69,0,0,0,5.17-2.46A36.13,36.13,0,0,0,104.46,58.54ZM65.84,74.74c-2.45.88-6.41,1.83-8.44-.27a2.07,2.07,0,0,1,1-3.34,8.61,8.61,0,0,1,2.37-.34,10.87,10.87,0,0,1,4.5,1,.56.56,0,0,0,.43,0C65.74,72.74,65.78,73.73,65.84,74.74Zm-11.5.18c-5.4-6.29,7.88-6.27,10.8-4.78a.64.64,0,0,0,.52,0c0,.08,0,.16,0,.24h0c-2.59-1.11-11.11-2.17-10.27,3,.75,4.58,7.38,3.8,10.48,2.12,0,.42,0,.84.07,1.26C62.37,77.9,57,78,54.34,74.91Zm8.17-8.61a.73.73,0,0,0-.33-.26c-3-1.17.83-8.94,1.75-10.38a23.83,23.83,0,0,1,5-5.49,49.38,49.38,0,0,1,8.91-5.76,7.61,7.61,0,0,0,.95.5c1,.42,2.47.81,3.31-.06a.5.5,0,0,0,.57-.43,9.86,9.86,0,0,0,.17-2.28,36.87,36.87,0,0,1,13.83-2.81c3.81,0,13.24.94,15.06,5.23-2.88,8.87-11.79,13.71-20,16.57A98.08,98.08,0,0,1,62.51,66.3ZM124.78,92c-1.17,5.89-4,10.92-10,12.71-4.71,1.41-10,1.64-14.85,1.83-10,.39-22.28,1-27.39-9.32-4.24-8.58-5.26-19.2-5.59-28.63C77.75,72,89.47,72.47,100.7,71.18c8.05-.92,18.39-2.06,23.88-8.85C125.41,72.2,126.73,82.14,124.78,92Zm1.86-25.13h0a36.06,36.06,0,0,1,4.4-1.19,11.53,11.53,0,0,1,2.79-.18,7.63,7.63,0,0,1,2,.39q0,.82,0,1.64c-.67,1.19-2.82,1.66-4,1.92a16.56,16.56,0,0,1-4.82.23Q126.84,68.25,126.63,66.85Zm7.68,4.78a14,14,0,0,1-6.8.21.75.75,0,0,0-.33,0c0-.48-.08-1-.12-1.44,3,.59,10.14.48,10.57-3.76.46-4.55-9.22-1.74-11.21-1.06-.06-.32-.11-.63-.17-.95,3.14-1.49,8.21-2.19,11.36-.6C143.26,66.89,136.91,70.86,134.31,71.63ZM37.16,38.87a4.62,4.62,0,0,1-.28.79,3.88,3.88,0,0,1-.4.7.91.91,0,0,1-.54.38c-.42.09-1-.51-1.69-1.8a42,42,0,0,1-2.42-5.74q-1.36-3.81-2.93-9.45t-3.17-13q-1-4.57-2.1-10.17C22.44.3,21.86.19,20.69,0c-.41,11.78-.78,23.56-1.33,35.34Q13.95,22.43,8.32,9.6a26.32,26.32,0,0,0-3.66.89q.35.91.65,2t.58,2.34c.46,2,.86,4.27,1.22,6.74s.64,5,.85,7.56.33,5.06.35,7.47a58.63,58.63,0,0,1-.26,6.46,23.59,23.59,0,0,1-.91,4.76,4.49,4.49,0,0,1-1.59,2.51.56.56,0,0,1-.24.13l-.23,0a1.17,1.17,0,0,1-.87-.14,2.39,2.39,0,0,1-.75-.72,5,5,0,0,1-.57-1.13,9.29,9.29,0,0,1-.39-1.38,7.78,7.78,0,0,1-.12-1.81,12.36,12.36,0,0,1,.24-2,8.94,8.94,0,0,1,.53-1.77,1.8,1.8,0,0,1,.81-1q.29-.13.59.43A4.59,4.59,0,0,1,5,42.16a2.28,2.28,0,0,1,.05.92l1.17.6a5,5,0,0,0-.1-2,7.12,7.12,0,0,0-.36-1.17,3.7,3.7,0,0,0-.54-.95,1.59,1.59,0,0,0-.71-.53,1.12,1.12,0,0,0-.88.1,4.8,4.8,0,0,0-1.82,1.6,9.31,9.31,0,0,0-1.18,2.3,11.24,11.24,0,0,0-.57,2.55A8.25,8.25,0,0,0,.12,48a6.16,6.16,0,0,0,.5,1.53,4.17,4.17,0,0,0,.95,1.28A3.72,3.72,0,0,0,3,51.63a4.08,4.08,0,0,0,2,.05,5.33,5.33,0,0,0,3.58-2.76,17.94,17.94,0,0,0,2-6.85,60.59,60.59,0,0,0,.23-10.77,106.58,106.58,0,0,0-1.74-14q5.28,11.5,10.31,23.1l1.27,0c.51-9.8.87-19.61,1.24-29.41,1.29,5,2.58,10.05,4,15a95.63,95.63,0,0,0,3.48,10.12,18.83,18.83,0,0,0,3.26,5.57A3.62,3.62,0,0,0,36.12,43a2.11,2.11,0,0,0,1.1-.6,4.6,4.6,0,0,0,.8-1.1,5.83,5.83,0,0,0,.5-1.3,5.49,5.49,0,0,0,.18-1.16l-1.44-.56A2.32,2.32,0,0,1,37.16,38.87ZM52.9,36.75a12.94,12.94,0,0,0,1.51-2.67c.17-.4.35-.82.52-1.27a9.4,9.4,0,0,0,.61,1.39,5.05,5.05,0,0,0,1.81,2,2.71,2.71,0,0,0,1.81.41A3.32,3.32,0,0,0,61,35.31a11.93,11.93,0,0,0,1.68-3A28.11,28.11,0,0,0,64,28a35.74,35.74,0,0,0,.75-5.32c.11.56.24,1.19.38,1.89s.29,1.44.45,2.22.34,1.55.54,2.32.41,1.46.63,2.07c.47,1.26.89,1.93,1.26,2s.83-.28,1.41-1.12a15.46,15.46,0,0,0,.93-1.75q.46-1,.82-2t.64-1.77c.18-.55.33-1,.43-1.22q.16,1,.53,2.5a15.74,15.74,0,0,0,1,2.82,7.38,7.38,0,0,0,1.52,2.2,2.32,2.32,0,0,0,2.06.68A4.11,4.11,0,0,0,79.87,32a16.89,16.89,0,0,0,1.89-2.79,5.11,5.11,0,0,0,1.18,2.42,2.6,2.6,0,0,0,2.27.83A3.42,3.42,0,0,0,87,31.58a8.51,8.51,0,0,0,1.47-1.7,13.09,13.09,0,0,0,1.11-2,14.39,14.39,0,0,0,.71-2,9.56,9.56,0,0,0,1.73,4A2.84,2.84,0,0,0,94.68,31a3.33,3.33,0,0,0,1.65-.79A10.89,10.89,0,0,0,98,28.51a25.23,25.23,0,0,0,1.61-2.34c.53-.86,1-1.75,1.49-2.67L100,22.69q-.59,1.1-1.31,2.18c-.48.72-1,1.38-1.44,2a11.4,11.4,0,0,1-1.37,1.48,2.17,2.17,0,0,1-1.08.62.88.88,0,0,1-.75-.31,3.31,3.31,0,0,1-.58-.95A9.09,9.09,0,0,1,93,26.32q-.19-.77-.32-1.61t-.2-1.51q-.08-.75-.13-1.38t-.05-1.1q0-.47,0-.72l-2.12-.76A11.6,11.6,0,0,1,90,21a21.43,21.43,0,0,1-.46,2.22q-.3,1.17-.71,2.38a18.1,18.1,0,0,1-.9,2.22,8.73,8.73,0,0,1-1,1.68,1.8,1.8,0,0,1-1.15.74c-.26,0-.48-.14-.65-.51a5.28,5.28,0,0,1-.4-1.46,15.72,15.72,0,0,1,0-5A11.9,11.9,0,0,1,86,19.43a6.37,6.37,0,0,1,2.1-2.32,3.59,3.59,0,0,1,2.43-.58L90.29,15a4.08,4.08,0,0,0-1-.28,5.09,5.09,0,0,0-3.37.62,7.54,7.54,0,0,0-2.72,2.77,13.53,13.53,0,0,0-1.6,4.42,15.35,15.35,0,0,0-.23,3.72c-.32.67-.64,1.32-1,1.94a10.47,10.47,0,0,1-1.13,1.66,1.91,1.91,0,0,1-1.12.76c-.36,0-.68-.18-1-.67a8.92,8.92,0,0,1-.8-1.89Q76,26.93,75.7,25.5t-.49-2.74q-.14-.89-.24-1.7c-.07-.54-.13-1-.16-1.39s0-.47-.07-.68a5.39,5.39,0,0,1-.06-.63l-1.81-.54a40.22,40.22,0,0,1-1.52,5.06q-.94,2.55-2,5.3c-.25.59-.46.73-.65.42a6.18,6.18,0,0,1-.52-1.56c-.33-1.41-.65-3-.89-4.64s-.44-3.26-.59-4.75-.28-2.78-.37-3.86-.16-1.74-.2-2c-1.06.69-1.58,1.05-2.63,1.79q.06,1.29.07,3.16t-.12,3.9q-.13,2-.42,4.11a34.15,34.15,0,0,1-.74,3.85,11.91,11.91,0,0,1-1.17,3,3.43,3.43,0,0,1-1.68,1.57c-.31.12-.67,0-1-.41a5.4,5.4,0,0,1-1-1.87,17.22,17.22,0,0,1-.72-3c0-.15,0-.31-.06-.47.17-.64.33-1.28.49-2l-.64-.55q0-.52,0-1.07l-2.4.37a24.37,24.37,0,0,0,.11,5.58c-.24.64-.48,1.25-.73,1.8A14.71,14.71,0,0,1,52.22,34q-.61.89-1,1a.8.8,0,0,1-.79-.39,5.2,5.2,0,0,1-.68-1.27,16,16,0,0,1-.59-1.86q-.27-1.05-.49-2.21t-.36-2.08q-.16-1-.27-1.92t-.16-1.55l-.08-1-2.22-.39a22.23,22.23,0,0,1,0,2.48q-.05,1.48-.24,3.11t-.48,3.27a26.34,26.34,0,0,1-.69,3,11.17,11.17,0,0,1-.89,2.21,1.79,1.79,0,0,1-1.09,1q-.39.08-.7-.56A7.35,7.35,0,0,1,40.94,35a23.32,23.32,0,0,1-.47-6.08,21,21,0,0,1,.91-5.17A12,12,0,0,1,43.24,20a4.22,4.22,0,0,1,2.38-1.7l-.39-2a2.76,2.76,0,0,0-1.06,0,6,6,0,0,0-3.29,2.19A14.13,14.13,0,0,0,38.47,23,23,23,0,0,0,37.3,28.7,21.89,21.89,0,0,0,37.71,35a8.27,8.27,0,0,0,1.77,4.14,2.56,2.56,0,0,0,2.36.86,3,3,0,0,0,1.72-1.12,9.22,9.22,0,0,0,1.33-2.21,17.33,17.33,0,0,0,.92-2.73,22.76,22.76,0,0,0,.52-2.74,15.35,15.35,0,0,0,2.15,5.23q1.3,1.81,2.82,1.52A2.81,2.81,0,0,0,52.9,36.75Zm117.23,19.9a18.81,18.81,0,0,0-.82-4.34A13.35,13.35,0,0,0,167.8,49a6.52,6.52,0,0,0-1.92-2,3.21,3.21,0,0,0-2.06-.54,5.18,5.18,0,0,0-2.33.83,9.43,9.43,0,0,0-2,1.73,15.5,15.5,0,0,0-1.63,2.28q-.74,1.25-1.34,2.52a16.41,16.41,0,0,0-.73-2.13,7.57,7.57,0,0,0-1.06-1.8,4.43,4.43,0,0,0-1.47-1.2,3.56,3.56,0,0,0-2-.31,7.19,7.19,0,0,0-2.84.92A8.69,8.69,0,0,0,146,51.44a10.76,10.76,0,0,0-1.75,3.13,13.54,13.54,0,0,0-.78,4.12q0,.49,0,.91t0,.81A7.55,7.55,0,0,0,144.2,63a6.76,6.76,0,0,0,1.17,1.73,4.7,4.7,0,0,0,1.31,1,4.41,4.41,0,0,0,1.1.39,2.49,2.49,0,0,0,2.17-.55,5.41,5.41,0,0,0,1.42-2.09,11.23,11.23,0,0,0,.72-2.86,13.81,13.81,0,0,0,.09-2.76,6.49,6.49,0,0,0-.6-2.43,1.41,1.41,0,0,0-1.29-.91,1.77,1.77,0,0,0-.89.27,5.58,5.58,0,0,0-.79.57l1,1.14a.48.48,0,0,1,.19-.19.92.92,0,0,1,.41-.16c.16,0,.3.17.41.52a4.72,4.72,0,0,1,.21,1,10.13,10.13,0,0,1-.09,2.1,11.58,11.58,0,0,1-.53,2.3,5.45,5.45,0,0,1-1,1.76,1.39,1.39,0,0,1-1.3.57,1.07,1.07,0,0,1-.65-.41,3.92,3.92,0,0,1-.56-.93,7.07,7.07,0,0,1-.43-1.27,10.26,10.26,0,0,1-.24-1.44,15.05,15.05,0,0,1,.61-5.74,10.83,10.83,0,0,1,1.14-2.52,4.76,4.76,0,0,1,1.69-1.69,2.05,2.05,0,0,1,.86-.3,1.71,1.71,0,0,1,1.29.45,4.62,4.62,0,0,1,1,1.42,9.61,9.61,0,0,1,.75,2.17,17.82,17.82,0,0,1,.4,2.63c.12,1.5.2,3.21.25,5.12s.07,3.85.08,5.81,0,3.87,0,5.71,0,3.5-.08,4.95-.06,2.62-.09,3.52S154,83.3,154,83.37c1.15.69,1.73,1,2.89,1.71q.1-2.66.16-6.28t.21-7.53q.15-3.91.48-7.81a53.75,53.75,0,0,1,1-7,19.47,19.47,0,0,1,1.85-5.22,3.78,3.78,0,0,1,2.91-2.25,1.3,1.3,0,0,1,1,.51,5.41,5.41,0,0,1,1,1.61,15.21,15.21,0,0,1,.76,2.48,21.49,21.49,0,0,1,.45,3.07,25.66,25.66,0,0,1-.24,6.74A14,14,0,0,1,165,67.77a6.09,6.09,0,0,1-2.13,2.29,3.49,3.49,0,0,1-2.11.53,5.29,5.29,0,0,1-.87-.17,7,7,0,0,1-.67-.23c-.21-.09-.4-.16-.54-.24l-.24,1.46c.15.08.35.19.62.3a6.25,6.25,0,0,0,.83.27,9.9,9.9,0,0,0,1.25.23,4.25,4.25,0,0,0,1.73-.21,7.27,7.27,0,0,0,2.1-1.07,10.6,10.6,0,0,0,2.11-2.05,13,13,0,0,0,1.78-3.08A18.11,18.11,0,0,0,170,61.72,21.24,21.24,0,0,0,170.13,56.65ZM204.5,78.86q-.49-2.58-1-4.83t-.9-3.77q-.39-1.52-.41-1.57a1.2,1.2,0,0,0-.49-.09l-1-.09q-.57-.05-1.53-.09a27.49,27.49,0,0,1,.13,3q0,1.68-.17,3.44t-.45,3.47a24,24,0,0,1-.7,3.08,9.08,9.08,0,0,1-1,2.22,1.7,1.7,0,0,1-1.21.92.62.62,0,0,1-.57-.34,4.54,4.54,0,0,1-.45-.92,7.3,7.3,0,0,1-.32-1.13q-.11-.58-.15-1a25.76,25.76,0,0,1,.06-5.91,21.09,21.09,0,0,1,1.2-4.92,11.55,11.55,0,0,1,2-3.45A4,4,0,0,1,200,65.38l-.13-1.22-.44,0-.43,0a5.59,5.59,0,0,0-3.4,1.83A13.51,13.51,0,0,0,193,70a22.37,22.37,0,0,0-1.52,5.14,20.52,20.52,0,0,0-.29,4.47l-.28.55q-.56,1.08-1.18,2a9.17,9.17,0,0,1-1.26,1.57,1.86,1.86,0,0,1-1.2.64c-.49,0-1-.4-1.43-1.22a13.85,13.85,0,0,1-1.16-2.92,25.36,25.36,0,0,1-.73-3.42,12.47,12.47,0,0,1-.15-2.74c-1.19,0-1.78,0-3,0a22.23,22.23,0,0,0,.19-2.7,22.67,22.67,0,0,0-.08-2.4,8,8,0,0,0-.42-1.92,4.58,4.58,0,0,0-.67-1.26A3,3,0,0,0,179,65a4.19,4.19,0,0,0-.94-.4,3.85,3.85,0,0,0-2.53.12,4.22,4.22,0,0,0-1.79,1.47,6,6,0,0,0-1,2.29,6.62,6.62,0,0,0,0,2.62,6.75,6.75,0,0,0,1.06,2.5,4.39,4.39,0,0,0,3.73,2.15q.67,0,1.4,0a28,28,0,0,1-.75,3,13.4,13.4,0,0,1-1.07,2.55,6.74,6.74,0,0,1-1.41,1.8,2.88,2.88,0,0,1-1.73.73,1.24,1.24,0,0,1-1-.58,4.75,4.75,0,0,1-.81-1.72,12.4,12.4,0,0,1-.38-2.6,13.4,13.4,0,0,1,.25-3.24l-2.39-.18a14.73,14.73,0,0,0-.52,4.74,9.69,9.69,0,0,0,.81,3.34,5.54,5.54,0,0,0,1.59,2.07,3.79,3.79,0,0,0,1.79.82,3.4,3.4,0,0,0,2.18-.52,7,7,0,0,0,2.1-2.06,15.36,15.36,0,0,0,1.76-3.5,23.69,23.69,0,0,0,1.17-4.79.44.44,0,0,1,.24,0,.43.43,0,0,0,.24,0,33,33,0,0,0,.13,3.64,16.24,16.24,0,0,0,.74,3.73,8,8,0,0,0,1.64,2.91A3.54,3.54,0,0,0,186.33,87a3.85,3.85,0,0,0,2.68-1.2A13.77,13.77,0,0,0,191.27,83c.11-.18.19-.36.29-.53a10.09,10.09,0,0,0,.93,2.67A2.63,2.63,0,0,0,195,86.79a3.43,3.43,0,0,0,2.49-1.42,10.7,10.7,0,0,0,1.64-3.21,24.38,24.38,0,0,0,1-4.08q.33-2.16.45-4,.41,2.07.93,4.82t.8,5.3a91.77,91.77,0,0,1,.61,11.39,59.25,59.25,0,0,1-.66,8.42,18.74,18.74,0,0,1-1.5,5.27c-.62,1.21-1.25,1.84-1.88,1.89q-.53,0-1-.66a7.6,7.6,0,0,1-.95-2,24.05,24.05,0,0,1-.78-3q-.34-1.73-.54-3.77a31.28,31.28,0,0,1-.15-3.41,20.24,20.24,0,0,1,.26-3.13,8.41,8.41,0,0,1,.69-2.32,1.51,1.51,0,0,1,1.16-1c.25,0,.48.14.69.5a5.79,5.79,0,0,1,.55,1.36,15.62,15.62,0,0,1,.39,1.77q.15.94.23,1.66a5.61,5.61,0,0,1,0,1.13l1.26-1a3.69,3.69,0,0,0,0-.68c0-.28,0-.6-.06-1a15.89,15.89,0,0,0-.34-2,7,7,0,0,0-.7-1.85,4.53,4.53,0,0,0-1.12-1.35A2.11,2.11,0,0,0,196.9,90a3.11,3.11,0,0,0-2,1.32,9.65,9.65,0,0,0-1.42,2.84,18.06,18.06,0,0,0-.78,3.83,21.57,21.57,0,0,0,0,4.24,26.17,26.17,0,0,0,.72,4.15,14.45,14.45,0,0,0,1.34,3.44,7.17,7.17,0,0,0,1.93,2.3,3.52,3.52,0,0,0,2.48.7,4.62,4.62,0,0,0,3.23-2.15,15.85,15.85,0,0,0,2.34-5.7,46.94,46.94,0,0,0,1.06-9.06,85.53,85.53,0,0,0-.59-12.25Q205,81.44,204.5,78.86Zm-25.2-4.59a3.43,3.43,0,0,1-2.2-.63A4.29,4.29,0,0,1,175.75,72a5.56,5.56,0,0,1-.53-2.06,5.16,5.16,0,0,1,.24-2,3.09,3.09,0,0,1,1-1.45,2.08,2.08,0,0,1,1.74-.37,1.2,1.2,0,0,1,.8.7,5.94,5.94,0,0,1,.47,1.91A21.7,21.7,0,0,1,179.3,74.27Zm36.8-6.82a1.75,1.75,0,0,0-1.73-.72,2.79,2.79,0,0,0-1,.41,6,6,0,0,0-.78.62,4.67,4.67,0,0,0-.56.62,4,4,0,0,0-.28.41l.86,1a3.13,3.13,0,0,0,.36-.51,1.2,1.2,0,0,1,.71-.59q.28-.06.58.45a4.87,4.87,0,0,1,.45,1.74,22.46,22.46,0,0,1,.12,3.94,24,24,0,0,1-.5,3.86,14.3,14.3,0,0,1-1,3c-.38.81-.82,1.28-1.3,1.4a.84.84,0,0,1-.91-.35,4.52,4.52,0,0,1-.65-1.27,10.86,10.86,0,0,1-.45-1.75q-.17-1-.28-1.87a17.72,17.72,0,0,1,0-3.74,19.37,19.37,0,0,1,.74-3.81A13,13,0,0,1,212,67.07,5.52,5.52,0,0,1,214.27,65l-1-2.78a6.68,6.68,0,0,0-2.74,2.16,15.09,15.09,0,0,0-2.13,3.76,20.77,20.77,0,0,0-1.26,4.8,20.09,20.09,0,0,0-.09,5.19,14.54,14.54,0,0,0,.64,3,8.09,8.09,0,0,0,1.09,2.2,4,4,0,0,0,1.43,1.26,2.38,2.38,0,0,0,1.66.18A4.86,4.86,0,0,0,214.53,83a11.11,11.11,0,0,0,1.83-3.32,17.51,17.51,0,0,0,.92-4.27,20.89,20.89,0,0,0-.06-4.6A6.53,6.53,0,0,0,216.1,67.45Zm29.51-6.35a2.85,2.85,0,0,0-.23.51L244.8,63q-.37.89-.84,2t-1,2.12A17.36,17.36,0,0,1,241.93,69a3.44,3.44,0,0,1-1,1.09.59.59,0,0,1-.83-.16,4,4,0,0,1-.63-1.26,14.57,14.57,0,0,1-.47-1.89q-.2-1.07-.33-2.08-.08-.68-.15-1.32c0-.42-.07-.79-.08-1.09s0-.37,0-.54a3.67,3.67,0,0,1,0-.5l-1.6.18a44.32,44.32,0,0,1-1.58,4.68q-1,2.42-2.06,5.06c-.25.57-.46.75-.62.55a3.36,3.36,0,0,1-.41-1.16,33.58,33.58,0,0,1-.61-3.64q-.22-2-.34-3.81T231,60q-.07-1.32-.1-1.58l-2.49,2.1q0,1.07-.08,2.63t-.3,3.3q-.22,1.74-.59,3.56a31.09,31.09,0,0,1-.9,3.43,12.86,12.86,0,0,1-1.27,2.81,4.66,4.66,0,0,1-1.7,1.69.83.83,0,0,1-1-.15,3.14,3.14,0,0,1-.85-1.42,11.28,11.28,0,0,1-.5-2.49,15.94,15.94,0,0,1,.07-3.43l-2.31.65a18.11,18.11,0,0,0-.24,5.18,8.36,8.36,0,0,0,1,3.19,3.11,3.11,0,0,0,1.63,1.44,2.6,2.6,0,0,0,1.73,0A4.65,4.65,0,0,0,225,79.35a14.23,14.23,0,0,0,1.78-3,28.31,28.31,0,0,0,1.45-4,31.5,31.5,0,0,0,1-4.67c.08.44.17.94.27,1.49s.2,1.14.32,1.75.25,1.22.4,1.81a13,13,0,0,0,.49,1.58c.38.93.74,1.38,1.08,1.35s.79-.49,1.36-1.37a19.84,19.84,0,0,0,.93-1.77q.47-1,.84-1.91c.25-.61.47-1.17.65-1.69s.34-.9.44-1.16a16.31,16.31,0,0,0,.38,1.9,7.85,7.85,0,0,0,.79,2A3.07,3.07,0,0,0,238.36,73a1.83,1.83,0,0,0,1.81-.24,7.25,7.25,0,0,0,2.23-2.33,28.28,28.28,0,0,0,1.86-3.35q.82-1.74,1.4-3.32c.39-1.05.68-1.85.86-2.4Z"/></svg>