<svg id="Слой_1" data-name="Слой 1" xmlns="http://www.w3.org/2000/svg" viewBox="0 0 44.63 45.53"><defs><style>.cls-1{fill:#fff;}</style></defs><title>1</title><path class="cls-1" d="M18.5,45.53a30,30,0,0,1-7-.64c-3.45-.83-3.58-4.54-3.7-8.12a29.89,29.89,0,0,0-.22-3.24l.12-.16-.07-.28-.28-.78C6.59,30.09,6,28.49,3.25,27.15a3.73,3.73,0,0,1-1.6-1.67A12.61,12.61,0,0,1,.08,17.69C.5,14,2.16,12.32,6,11.67l.41-.07v-.42C6.48,3.5,14.12,0,21.19,0c4.7,0,8.91,1.53,11.27,4.1a8.15,8.15,0,0,1,2.14,6.43l0,.52.52,0c5.12.2,8.54,3.13,9.4,8,1,6-3.69,8.39-8.27,10.72-.67.34-1.33.68-2,1a1.28,1.28,0,0,1-.47.14l-.47,0v.11l-.3-.42a.2.2,0,0,1,0-.18c0-.05.08-.25.5-.47.61-.33,1.28-.65,2-1,3.79-1.82,8.5-4.07,7.14-9.44-1.28-5-4.16-7.55-8.57-7.55q-.57,0-1.18.06h-.19c-.26,0-.45-.06-.48-.16a.73.73,0,0,1,.34-.63l.17-.13,0-.21a7.94,7.94,0,0,0-2-6.26C28.45,2.39,24.68,1,20.55,1a13.49,13.49,0,0,0-9.64,3.54,9.1,9.1,0,0,0-2.57,6.7l-.07.19.07.26a.57.57,0,0,1-.08.48,1.18,1.18,0,0,1-.92.56C3.65,13,1.81,15.15,2,18.85c.12,2.65.69,6.37,4.21,8,1.85.85,2.4,2.6,3,4.46.14.45.28.89.44,1.33l.12.33h4l-.19-1.14A35.35,35.35,0,0,1,13,26.57a.33.33,0,0,1,.13-.25,1.68,1.68,0,0,1,1.12-.39c.25,0,.68.05.69.41a30.2,30.2,0,0,0,.53,4.57l.15.88a.39.39,0,0,1-.09.31l-.6.83,5-.16-.12-.58a29.79,29.79,0,0,1-.26-7.7c.06-1,.11-2.08.12-3.12a2.7,2.7,0,0,1,1.74-.54h.15c0,.95-.07,1.9-.12,2.86a29.66,29.66,0,0,0,.31,8.11l-1,.88,1.33,0c.92,0,1.84,0,2.75,0H26l.06-.44a24.29,24.29,0,0,1,1.9-6c.43-1,.88-2.14,1.25-3.24a2.45,2.45,0,0,1,1.65-.54h.21c-.34,1-.76,2-1.16,3a24.32,24.32,0,0,0-2,6.45l-.69.78,1,.05q1.31.06,2.62.18l.57.05s0-1,0-1.08a4.34,4.34,0,0,1,1.27-.39l.64-.1v.1a32.7,32.7,0,0,0,.45,3.3c.58,3.4,1.23,7.26-.82,9-1.18,1-3.38,1.55-6.35,1.55h-.46c-1.18,0-2.42,0-3.68.07S19.83,45.53,18.5,45.53Zm4.44-.47h.61l1.22.08c.78.06,1.65.13,2.53.13,2.11,0,3.47-.41,4.26-1.28a3.16,3.16,0,0,0,.72-2.53c-.1-1.07-.22-2.13-.34-3.18-.15-1.28-.29-2.56-.4-3.85l-.06-.72-.65.31a1.26,1.26,0,0,1-.53.13c-2-.18-4-.27-6.34-.27S19.55,34,17.4,34s-4.36.15-6.54.15H9.72l.1.59a19.87,19.87,0,0,1,.4,4.26c0,.15,0,.31,0,.49-.07,1-.17,2.43.51,3.31,1.57,2.06,5.05,2.32,7.91,2.32.86,0,1.71,0,2.5-.05S22.4,45.06,22.94,45.06Z"/></svg>
