<svg id="Слой_1" data-name="Слой 1" xmlns="http://www.w3.org/2000/svg" viewBox="0 0 43.93 43"><defs><style>.cls-1{fill:#f15a29;}</style></defs><title>1</title><path class="cls-1" d="M31.5,30a.5.5,0,0,0-.5.5V42H1V1H31V6.5a.5.5,0,0,0,1,0V.71L31.29,0H.71L0,.71V42.29L.71,43H31.29l.71-.71V30.5A.5.5,0,0,0,31.5,30ZM25.63,7.29H25.4l-1.15,0c-2.13,0-4.3-.18-6.41-.36s-4.24-.35-6.34-.35a23.94,23.94,0,0,0-6.42.76c-.56.15-.76.42-.75.53s.15.16.44.16A1.85,1.85,0,0,0,5.25,8,21.82,21.82,0,0,1,11,7.29c2.07,0,4.19.2,6.24.39s4.08.38,6.06.38h0l.94,0A2.36,2.36,0,0,0,25.63,7.29Zm-5.21,9.6a19,19,0,0,1,2,.1,2,2,0,0,0,1.27-.6,1.64,1.64,0,0,0-.33-.06,20.15,20.15,0,0,0-2.19-.11,45,45,0,0,0-5.33.41,30.48,30.48,0,0,1-3.67.19c-1.13,0-2.25,0-3.38-.08-.9,0-1.81-.07-2.72-.08a2.32,2.32,0,0,0-1.32.64h.21c1,0,1.95.05,2.92.09,1.14,0,2.31.1,3.46.1l1.26,0c1.17,0,2.35-.17,3.49-.29A41.09,41.09,0,0,1,20.41,16.9ZM13.81,26a3,3,0,0,0,1.49-.6h0a6.82,6.82,0,0,0-1.46-.15,9.91,9.91,0,0,0-2.19.27,12,12,0,0,1-2.76.28c-.55,0-1.09,0-1.65,0L6,25.67a2.31,2.31,0,0,0-1.32.63l.23,0c.51,0,1,.06,1.53.1s1.17.1,1.74.1l.57,0a11.33,11.33,0,0,0,1.71-.3,10.33,10.33,0,0,1,2.26-.34,5.45,5.45,0,0,1,1,.11Zm-3.6,9.1a24.9,24.9,0,0,0-2.54.18c-.77.08-1.57.17-2.36.18a1,1,0,0,0-1,.78c0,.32.49.36.69.36H5a18.79,18.79,0,0,0,2-.19,18.53,18.53,0,0,1,2.38-.21,6.08,6.08,0,0,1,2.13.34.79.79,0,0,0,.27,0,1.62,1.62,0,0,0,1.37-.83c0-.11-.26-.22-.32-.24A7.4,7.4,0,0,0,10.21,35.07ZM41.76,13c-.21-.28-.41-.53-.57-.71a10.81,10.81,0,0,0-.82-.78c-.24-.21-.47-.42-.69-.64l-.18-.19a4.31,4.31,0,0,0-1.89-1.36,1.24,1.24,0,0,0-.32,0,3.39,3.39,0,0,0-1.37.37,1.59,1.59,0,0,0-.3.2l-.07.06-.08,0a1,1,0,0,0-.22.11c-1.08,1.08-2.19,2.11-3.24,3.07l-.06.06-.08,0a5,5,0,0,0-.55.31h0v.23l-.86.78c-1.79,1.62-3.64,3.3-5.36,5.05-.9.92-1.8,1.87-2.7,2.83-1.7,1.8-3.45,3.66-5.28,5.32l-.33.45a33.62,33.62,0,0,1-1.93,8.13l-.09.29H15a3.19,3.19,0,0,0,1.49-.38l.1-.06h.27a11.07,11.07,0,0,0,1.52-.46,10.27,10.27,0,0,1,1.94-.55c1.49-.22,3-.45,4.52-.8a1.05,1.05,0,0,0,.69-.4.27.27,0,0,0,0-.22l-.09-.26.17-.21a.38.38,0,0,0,.09-.16l0-.18.14-.12a64.58,64.58,0,0,0,4.72-4.56c.78-.8,1.55-1.6,2.32-2.36l2.88-2.85c2.62-2.6,5.33-5.28,8.15-7.88A7.39,7.39,0,0,1,41.76,13ZM19.19,26.72c2.12-1.93,4.18-4.12,6.17-6.24L27,18.72c1.51-1.59,3.17-3.1,4.6-4.4L32,14l.34.3c.57.52,1.13,1,1.67,1.59l.23.23-.12.31A3.67,3.67,0,0,1,32.41,18c-.22.13-.44.26-.62.4a17.82,17.82,0,0,0-2.48,2.45c-.45.51-.9,1-1.36,1.47l-1.76,1.75c-1.53,1.51-3.06,3-4.56,4.56l-.37.38L20.12,27.8a.88.88,0,0,0-.6-.2l-1.26,0Zm3.4,7.17c-.79.13-1.59.26-2.39.37a10.78,10.78,0,0,0-1.93.54l-1.37.46.3-.94a36.24,36.24,0,0,0,1.2-4.52l.18-1,.68.73A33.33,33.33,0,0,0,22.82,33l.87.7ZM37.93,19.84,34.41,23.3l-2.2,2.17c-.88.87-1.76,1.78-2.64,2.7-1.34,1.4-2.72,2.84-4.17,4.16l-.31.28-.33-.25a24.3,24.3,0,0,1-2.7-2.49l-.33-.34.33-.35c2.07-2.18,4.83-5,7.81-7.81.64-.6,1.26-1.26,1.86-1.9s1.32-1.41,2-2.07a5,5,0,0,1,.69-.51l.31-.2.28.24c.46.39.94.74,1.45,1.11s.91.66,1.34,1h0l.47.39Zm3.91-3.73q-1,1-2.07,1.94l-.3.29-.88-.64a15.89,15.89,0,0,1-2.05-1.64l-.23-.23c-.86-.86-1.76-1.75-2.7-2.54l-.45-.37.43-.39c.84-.76,1.66-1.53,2.47-2.3l.33-.31.34.3a10.92,10.92,0,0,1,.83.83l.36.38c.2.2.4.38.6.56a11.65,11.65,0,0,1,.85.83c.18.2.38.45.6.72a7,7,0,0,0,1.76,1.76l.61.33Z"/></svg>