<svg id="Слой_1" data-name="Слой 1" xmlns="http://www.w3.org/2000/svg" viewBox="0 0 46.69 43.33"><defs><style>.cls-1{fill:#fff;}</style></defs><title>1</title><path class="cls-1" d="M46.44,17c-.28-1.11-1-3.38-2.31-3.57a43.66,43.66,0,0,0-7.45-.29.38.38,0,0,0-.23-.18c-.64-.26-1.12-2.42-1.4-3-.52-1.12-1.38-2.05-2-3.15a3.81,3.81,0,0,0,1.52-1.33c1.06-1.64,1.14-4.28-.94-5.14a4.6,4.6,0,0,0-5.61,1.92.94.94,0,0,0-.09.24,2.65,2.65,0,0,0,1,4.3,4.67,4.67,0,0,0,1.44.43c.65,1.35,1.72,2.46,2.32,3.84a22.41,22.41,0,0,0,.86,2.18c-1,0-1.95.05-2.9.05q-8.94,0-17.87,0h0a12.47,12.47,0,0,1,1-3.06,22.12,22.12,0,0,1,1.4-3A4.17,4.17,0,0,0,19,5.44C20.1,3.8,20.17,1.16,18.1.31a4.6,4.6,0,0,0-5.61,1.92.94.94,0,0,0-.09.24,2.61,2.61,0,0,0,.78,4.15A17.34,17.34,0,0,0,11.54,10a18.5,18.5,0,0,0-1.16,3.32c-3-.08-7.72-.66-9.79,1.39a.93.93,0,0,0-.38.44.37.37,0,0,0-.06.34c-.26,2.52-.54,7.3,2.22,7.67a.63.63,0,0,0,0,.25C3.83,26.77,4,30.83,5,34.4,5.52,36.48,6,41,8,42.35c1.52,1,4.08.6,5.77.61,4.48,0,8.94-.23,13.43-.08,2.77.09,10.4,1.71,11.94-1.79,2.49-5.67,2.2-12.21,4.89-17.85a.6.6,0,0,0,0-.71l.5-.19C46.73,21.32,47,19.15,46.44,17ZM30.08,3.16a.81.81,0,0,0,.19-.43.9.9,0,0,0,.18-.23,1.26,1.26,0,0,1,1.69-.56c1,.53.7,2.05.3,2.87C31.66,6.44,28.86,4.59,30.08,3.16Zm-15.2-.66a1.26,1.26,0,0,1,1.69-.56c1,.53.7,2.05.3,2.87-.79,1.64-3.58-.21-2.37-1.64a.81.81,0,0,0,.19-.43A.9.9,0,0,0,14.88,2.49ZM9.37,39.95C7.07,34.57,7.15,28.37,5.06,23H6.37l4.78,0c-.05.07-.07.13,0,.19,1.22,2.1,1.32,5.15,1.72,7.51.61,3.51,1.59,7.07,2.08,10.59C12.6,41.46,10,41.42,9.37,39.95ZM17.49,41c-.43-3.26-1.42-6.5-1.93-9.77-.4-2.53-.53-5.9-1.7-8.29h.34l7.07,0a52.33,52.33,0,0,0,0,8.69c.15,3.1,0,6.22.07,9.33-1,0-2.09,0-3.14,0Zm9,0c-.87,0-1.74,0-2.61-.05v0c-.25-5.75-.78-12.29-.12-18L33,22.87A.45.45,0,0,0,33,23C32,29.14,30.3,35,28.83,41.07,28,41.06,27.26,41,26.48,41Zm12-6.45c-.38,2.82-.82,6.76-4.27,6.6-1,0-2-.06-3-.08,1.46-6.07,3.22-12,4.2-18.19a43.89,43.89,0,0,0,6.15.1A40.32,40.32,0,0,0,38.48,34.57Zm4.67-13.32-25.63.14-11.9.07a8.83,8.83,0,0,0-2.12.08c-.42.11-.24.14-.67-.83-.75-1.66-.34-3.85-.14-5.61,1.06-1.06,8.26-.26,9.38-.27q8,0,16,0c4.41,0,8.83,0,13.24.08l1.36,0h.09a.23.23,0,0,0,0,.1C43.4,16.08,45.61,21.24,43.15,21.25Z"/></svg>