<svg id="Слой_1" data-name="Слой 1" xmlns="http://www.w3.org/2000/svg" viewBox="0 0 29.15 42.75"><defs><style>.cls-1{fill:#f15a29;}</style></defs><title>1</title><path class="cls-1" d="M25.34,4.49A15.51,15.51,0,0,0,14.24,0H14A14.29,14.29,0,0,0,0,13.23c-.63,9.05,5.09,17.61,10.14,25.15,1,1.47,1.94,2.9,2.82,4.29a.62.62,0,0,0,.35.07,2,2,0,0,0,1.52-.62l-.13-.49.49-.12a1.7,1.7,0,0,0,.91-.44c1.22-1.94,2.58-3.84,3.9-5.68,4.37-6.12,8.88-12.45,9.1-21A13.38,13.38,0,0,0,25.34,4.49Zm-.27,19.94c-1.3,3.23-2.78,6.89-5,9.61-1.08,1.31-1.9,2.51-2.69,3.66S15.88,39.87,14.95,41l-.44.54-1.17-1.83C9.11,33.11,5.11,26.86,2.82,19.08c-1.34-4.54-1.1-8.8.69-12.34A11.27,11.27,0,0,1,13.87.68a13.34,13.34,0,0,1,7.74,2.46c6.89,5,6.4,14,3.65,20.84ZM14.59,5.81c-5,0-8.92,3.44-9.19,8a9.54,9.54,0,0,0,2.35,6.92,6.07,6.07,0,0,0,4.51,2l.63,0c5.54-.09,8.4-2.23,8.75-6.56.27-3.39-.57-6.5-2.25-8.33A6.23,6.23,0,0,0,14.59,5.81Zm4.48,14c-.81,2-2.68,2.35-4.58,2.41h-.14l-.37,0H13.6a5.68,5.68,0,0,1-5-3.12A10.87,10.87,0,0,1,8.43,9a5.23,5.23,0,0,1,4.72-2.79l.47,0c5.13.37,6,6,6.13,8.46A11.84,11.84,0,0,1,19.07,19.82Z"/></svg>