<svg id="Слой_1" data-name="Слой 1" xmlns="http://www.w3.org/2000/svg" viewBox="0 0 52.83 40.06"><defs><style>.cls-1{fill:#f15a29;}</style></defs><title>1</title><path class="cls-1" d="M50.89,18.24A3.65,3.65,0,0,0,48,17a6.05,6.05,0,0,0-.8.06,2.9,2.9,0,0,1,2.14,1,9.62,9.62,0,0,1,1.73,5.13l-1.47.05c-.54,0-1.08.06-1.62.06-.38,0-.88.29-.92.62a.16.16,0,0,0,0,.14,1,1,0,0,0,.65.19h0c.53,0,1.05,0,1.58-.06s1.17-.06,1.76-.06h.06c.07.86.09,1.74.09,2.62a17.69,17.69,0,0,0-4.82-.51H43.22q-1.79,0-3.59,0c-2.64,0-5.4.06-8.44.18-1,0-2.09.11-3.13.17,0-2.4.13-4.85.23-7.22.26-6.12.53-12.45-.49-18.52,0,0,0,0-.05-.06A.9.9,0,0,0,28,.5a.77.77,0,0,0-.37-.12A38.57,38.57,0,0,0,21.8,0c-1.22,0-2.44,0-3.66.06s-2.46.06-3.7.06H12.8L10.4.1A40.63,40.63,0,0,0,1.84.81c-.47.1-.61.3-.61.38s.17.21.49.21a1.56,1.56,0,0,0,.32,0A35.1,35.1,0,0,1,9.3.74c1,0,1.93,0,2.89,0l2.13,0h.5c1.09,0,2.17,0,3.25-.05S20.24.7,21.33.7a37.44,37.44,0,0,1,5.11.3.89.89,0,0,0-.14.12.26.26,0,0,0-.08.23c1,6.05.74,12.31.48,18.36-.1,2.29-.19,4.65-.22,7l-2.93.21c-3.66.28-7.45.56-11.18.56A53.61,53.61,0,0,1,3,26.71H2.91a.94.94,0,0,0-.28.06c0-.84,0-1.69,0-2.52,0-.15,0-.3,0-.45h.93a12.64,12.64,0,0,0,2.18-.16,2,2,0,0,0,1-.38,1.37,1.37,0,0,0-.28,0H6.29a10.25,10.25,0,0,1-1.84.14H2.63c0-2.18,0-4.4-.09-6.6-.06-1.45-.26-3-.48-4.67-.47-3.57-1-7.26,0-10.4H2a2.66,2.66,0,0,0-1.45.39C-.36,4.78.05,7.94.44,11c.15,1.16.29,2.26.36,3.33C1,17.76,1,21.24,1,24.61c0,2.55,0,5.19.1,7.78h.09A3,3,0,0,0,2.73,32c-.06-1.46-.08-2.93-.09-4.39a57.2,57.2,0,0,0,9.55.74c4.1,0,8.21-.33,12.07-.66l2.52-.19a1,1,0,0,0,.2,0h0a1.66,1.66,0,0,0,.47-.07c3.14-.2,6.5-.32,10.18-.37.85,0,1.78-.05,2.75-.1,1.27-.06,2.59-.12,3.92-.12a18.91,18.91,0,0,1,6.59.9.62.62,0,0,0,.21,0l.14,0c0,1.64-.15,3.2-.28,4.47a9.55,9.55,0,0,0-1.77-.15c-.79,0-1.6.06-2.32.12l-.78.06-.11,0a3.8,3.8,0,0,0-1.06-1.38A6.06,6.06,0,0,0,41,29.58,7.19,7.19,0,0,0,35.6,32a4.09,4.09,0,0,0-1.39,3.94,4.62,4.62,0,0,0,3,3.46,7.2,7.2,0,0,0,2.37.39,6.93,6.93,0,0,0,5.56-2.63,5,5,0,0,0,.88-4.63c.61-.06,1.28-.12,1.95-.12a4.79,4.79,0,0,1,2.86.7l0,.37h.12a3.51,3.51,0,0,0,1.4-.33l0-.32.07,0-.06,0C52.77,29.55,53.63,21.34,50.89,18.24Zm-7,18.84a3.91,3.91,0,0,1-3.42,2A5.26,5.26,0,0,1,35.92,36a3.53,3.53,0,0,1,.83-4l0,0,0,0a.44.44,0,0,0,.1-.08l.12-.13.13-.12,0-.07,0-.05a3.74,3.74,0,0,1,2.83-1.24,6.67,6.67,0,0,1,1.49.19,4.33,4.33,0,0,1,2.49,1.64C45.24,33.66,44.73,35.76,43.94,37.08ZM19,32.9h-.82a1.63,1.63,0,0,0-.62.19A3.76,3.76,0,0,0,16,30.89a5,5,0,0,0-2.73-.79A6.6,6.6,0,0,0,9,31.77l-.1.08-.13,0a2.79,2.79,0,0,0-1.52.88l-.58-.06A27.42,27.42,0,0,0,3.8,32.5a6.55,6.55,0,0,0-3.25.69l-.08.05H.58a2.25,2.25,0,0,0,1-.3l.43.91.15-.52L1.7,33l.16,0,.34-.06H3.3c.89,0,1.79.1,2.66.18l.34,0h.21A2.23,2.23,0,0,0,7,33a3.45,3.45,0,0,0-.36.67,5,5,0,0,0,.51,4.43,5,5,0,0,0,4.2,1.9,7.45,7.45,0,0,0,4.4-1.39,5.51,5.51,0,0,0,2-4.5,4.84,4.84,0,0,0-.14-.93h.48c5.13,0,10.43,0,15.65-.18a2.07,2.07,0,0,0,.84-.32C29.39,32.86,24.12,32.88,19,32.9Zm-3.66,4.66a3.35,3.35,0,0,1-3.07,1.69A4.86,4.86,0,0,1,9.08,38a4.13,4.13,0,0,1-1.17-2.86,6,6,0,0,1,.14-1.35l.08-.32.33-.06a1.27,1.27,0,0,0,.82-.4A3.92,3.92,0,0,1,12.61,31a4.19,4.19,0,0,1,2.26.71C16.75,32.9,16.29,35.85,15.36,37.56ZM41.72,5.92c3,1.79,2.6,4.89,2.27,7.62a12.34,12.34,0,0,0-.06,4.12H44a3.67,3.67,0,0,0,1.55-.43,13.93,13.93,0,0,1-.1-4.85c.27-2.72.5-5.08-2.47-6.87A11.09,11.09,0,0,0,37.15,4.2c-.72,0-1.45,0-2.18.1h.1A12.39,12.39,0,0,1,41.72,5.92ZM33,16.41A1.89,1.89,0,0,0,34.24,16a24.44,24.44,0,0,1-.89-7.9A.62.62,0,0,0,33,8a1.69,1.69,0,0,0-1.18.42v.18a24.11,24.11,0,0,0,.84,7.75A.57.57,0,0,0,33,16.41Zm8.6-1.26c.41-2.68.87-5.71-1.65-7a4.47,4.47,0,0,0-2-.44,8.11,8.11,0,0,0-1.41.14,3.77,3.77,0,0,1,3.11,1.69c1.21,1.74.8,4.17.47,6.11L40,16a20,20,0,0,0-2.67-.22,13.09,13.09,0,0,0-2,.14c.35,0,.7,0,1,.06l.48,0a17.4,17.4,0,0,1,3,.34,1.46,1.46,0,0,0,.31,0,2.59,2.59,0,0,0,1-.21L40.6,16a2.17,2.17,0,0,0,.9-.3Zm-5.92,4.71-.54,0a3.59,3.59,0,0,1,.47.1.86.86,0,0,0,.23,0,2.54,2.54,0,0,0,.79-.16h-.26Zm-23.75,15a1.26,1.26,0,0,0-.26.16l-.05.05-.07,0a1.13,1.13,0,0,0-.28.19l-.1.09v0l0,.05.47.22-.15.43a1,1,0,0,0,0,.18h.05A2.52,2.52,0,0,0,13,35.9a1.82,1.82,0,0,1,.14-.58l0-.13.17-.13a2,2,0,0,1,0-.41c0-.05,0-.1,0-.1h0l-.15,0A3.65,3.65,0,0,0,11.91,34.88ZM40.46,33.5l-.21,0c-.78,0-1.7.58-1.73,1.32s.48.79.82.83a2.4,2.4,0,0,0,.45,0,1.78,1.78,0,0,0,1.69-.92.73.73,0,0,0,0-.67A1.39,1.39,0,0,0,40.46,33.5Z"/></svg>