<svg id="Слой_1" data-name="Слой 1" xmlns="http://www.w3.org/2000/svg" viewBox="0 0 42.34 33.19"><defs><style>.cls-1{fill:#f15a29;}</style></defs><title>2</title><path class="cls-1" d="M41.24,2.06a.75.75,0,0,0-.72-.8C34.41.77,28.3.43,22.17.33,16.34.23,9.51-.52,3.79.64,1.08,1.19.7,2,.3,4.81-.48,10.4.47,16.47.75,22.09c.14,2.89-.49,6.79,2,8.82A12.65,12.65,0,0,0,9,33.13c5.72.34,11.87-.7,17.62-.88,2.7-.09,5.4-.15,8.1,0,2.07.09,4.39.7,6.41.22a.74.74,0,0,0,.52-.53c.9-4.46.29-9.9.54-14.5A53.72,53.72,0,0,0,41.24,2.06ZM39.82,3.14l.13,0c1.12,5.33,1,10.65.64,16.08-.16,2.7,0,5.6-.39,8.26,0,.12,0,.23-.07.35a26.79,26.79,0,0,0-3.3-3.3C34,21.83,30.69,18.69,29,15A137.48,137.48,0,0,0,39.82,3.14ZM38.36,2.6C34.11,8,25.91,20.1,18.7,16c-2.62-1.47-4.93-4.83-7.2-6.85C9,7,6,5.15,3.94,2.49A19.36,19.36,0,0,1,6.69,2C16.88.69,28,1.73,38.36,2.6ZM2,17.47c-.12-2.44-.29-4.88-.36-7.33,0-1.19-.08-2.38,0-3.57.11-1.75.41-2.75,1-3.36C5.28,6.67,9.12,9,12.26,12c.7.66,1.5,1.57,2.37,2.53-2.14,5.79-7.29,9.69-10.38,14.91C1.53,26.38,2.2,21.33,2,17.47ZM34.71,30.7c-4.9-.22-9.83.08-14.73.26-4.13.15-10.88,1.89-14.6-.59,3-5.23,8-9.09,10.35-14.69,1.78,1.87,3.77,3.63,5.79,3.86,2.32.26,4.28-1.57,5.86-3l.48-.46a31.33,31.33,0,0,0,5.15,7c1.19,1.27,2.6,2.35,3.83,3.59.42.42,2.28,2,2.68,3C38.67,31,37.17,30.81,34.71,30.7Z"/></svg>