<svg id="Слой_1" data-name="Слой 1" xmlns="http://www.w3.org/2000/svg" viewBox="0 0 40.98 81.01"><defs><style>.cls-1{fill:#f15a29;}</style></defs><title>2</title><path class="cls-1" d="M16,67.61c.83,1.61,3,1,3.57-.46C22.76,58.53,29.67,52.74,34.44,45c1.32-2.14-2.06-4.09-3.37-2-3.76,6.1-8.48,10.8-12.06,16.58a99.11,99.11,0,0,1-1.23-26.94c.92-9.87,2.42-27,14.46-28.9,2.47-.4,1.42-4.15-1-3.75C19,2,16.65,14.58,14.89,25a101.85,101.85,0,0,0-.33,31.43l-9-17.27c-1.15-2.22-4.52-.26-3.37,2Zm13.67-11.3c-1.5-.07-1.49,2.24,0,2.3,2.3.1,5,.17,6.93,1.56,3.56,2.54,1.66,7,0,10.05-2.7,5-6.77,8.33-12.67,8.48-5.17.13-9.91-2.13-14.07-5a43.37,43.37,0,0,1-5.78-4.54C1.46,66.63,1.63,62.36,5.51,61c1.4-.49.8-2.71-.62-2.22C-.55,60.68-1.57,67,2.42,70.8c5.87,5.66,14.21,10.87,22.7,10.14,7.7-.66,13.27-6.79,15.39-13.89C42.82,59.31,36.19,56.6,29.66,56.31Z"/></svg>