<?xml version="1.0" encoding="utf-8"?>
<!-- Generator: Adobe Illustrator 17.0.0, SVG Export Plug-In . SVG Version: 6.00 Build 0)  -->
<!DOCTYPE svg PUBLIC "-//W3C//DTD SVG 1.1//EN" "http://www.w3.org/Graphics/SVG/1.1/DTD/svg11.dtd">
<svg version="1.1" id="Layer_1" xmlns="http://www.w3.org/2000/svg" xmlns:xlink="http://www.w3.org/1999/xlink" x="0px" y="0px"
	 width="22.743px" height="23.149px" viewBox="0 0 22.743 23.149" enable-background="new 0 0 22.743 23.149" xml:space="preserve">
<g>
	<path fill="#FFFFFF" d="M11.169,18.368c7.215-1.803,9.675-13.889,1.442-17.047C-0.548-3.383-4.796,20.74,10.333,18.836
		L11.169,18.368z"/>
	<path fill="#FFFFFF" d="M11.368,19.091c5.456-1.636,8.856-8.455,6.431-13.793C15.486,0.205,8.868-1.62,4.297,1.617
		c-3.763,2.665-5.081,8.091-3.85,12.369c1.249,4.34,6.979,7.338,11.1,5.03c0.844-0.473,0.088-1.768-0.757-1.295
		c-3.409,1.91-7.739-0.826-8.897-4.133c-1.149-3.282-0.039-7.234,2.195-9.779c3.193-3.637,9.16-2.786,11.804,1.045
		c3.094,4.484-0.035,11.327-4.924,12.792C10.045,17.922,10.439,19.37,11.368,19.091z"/>
</g>
<g>
	<path fill="#FFFFFF" d="M14.931,16.709c1.561,1.436,5.449,3.866,7.074,5.676"/>
	<path fill="#FFFFFF" d="M14.4,17.24c2.255,2.013,5,3.456,7.074,5.676c0.662,0.708,1.72-0.355,1.061-1.061
		c-2.075-2.221-4.82-3.663-7.074-5.676C14.742,15.537,13.677,16.594,14.4,17.24L14.4,17.24z"/>
</g>
</svg>
