<?xml version="1.0" encoding="utf-8"?>
<!-- Generator: Adobe Illustrator 17.0.0, SVG Export Plug-In . SVG Version: 6.00 Build 0)  -->
<!DOCTYPE svg PUBLIC "-//W3C//DTD SVG 1.1//EN" "http://www.w3.org/Graphics/SVG/1.1/DTD/svg11.dtd">
<svg version="1.1" id="Layer_1" xmlns="http://www.w3.org/2000/svg" xmlns:xlink="http://www.w3.org/1999/xlink" x="0px" y="0px"
	 width="30.896px" height="36.656px" viewBox="0 0 30.896 36.656" enable-background="new 0 0 30.896 36.656" xml:space="preserve">
<g>
	<g>
		<path fill="#FFFFFF" d="M28.833,13.034c0.323-0.043,0.641-0.074,0.934-0.219c1.158-0.571,1.506-1.71,0.662-2.72
			c-0.01-0.049-0.027-0.086-0.055-0.143c-0.63-1.246-2.375-1.742-3.636-1.222c-1.348,0.555-1.301,2.335-0.612,3.4
			c0.251,0.388,0.598,0.787,0.988,0.982c-0.384,0.71-0.944,1.31-1.279,2.041c-0.165,0.359-0.437,1.413-0.793,2.39
			c-0.846,0.007-1.885,0.012-3.243-0.01c-0.635,0.019-1.264,0.035-1.879,0.033c-3.863-0.008-7.727-0.001-11.59,0.008
			c0-0.002,0.001-0.003,0.001-0.005c-0.834,0.103-0.417,0.178-1.597,0c-0.235-0.006-0.49-0.025-0.755-0.05
			c-0.164-0.927-0.424-1.764-0.643-2.337c-0.289-0.756-0.62-1.724-1.063-2.402c1.023-0.601,1.305-1.735,0.504-2.694
			c-0.01-0.049-0.027-0.094-0.055-0.151C4.091,8.691,2.346,8.181,1.085,8.7c-1.348,0.556-1.301,2.305-0.612,3.37
			c0.54,0.834,1.503,1.268,2.454,1.219c0.363,0.62,0.641,1.393,0.91,2.065c0.195,0.486,0.406,1.169,0.539,1.997
			c-1.535-0.154-3.126-0.198-3.993,0.66c-0.118,0.08-0.206,0.178-0.244,0.289c-0.053,0.09-0.064,0.165-0.036,0.224
			c-0.171,1.638-0.348,4.749,1.442,4.987c0,0.053,0.006,0.107,0.029,0.163c0.908,2.215,1.014,4.854,1.641,7.175
			c0.366,1.356,0.693,4.312,1.961,5.171c0.987,0.668,2.644,0.39,3.745,0.396c2.908,0.017,5.796-0.151,8.711-0.054
			c1.798,0.06,6.745,1.113,7.742-1.166c1.615-3.691,1.427-7.941,3.17-11.612c0.097-0.205,0.071-0.359-0.028-0.464
			c0.11-0.039,0.218-0.079,0.323-0.126c1.473-0.653,1.637-2.063,1.283-3.469c-0.181-0.721-0.631-1.734-1.499-1.863
			c-0.558-0.083-1.081-0.114-1.705-0.123c0.168-0.863,0.292-1.375,0.413-1.654C27.717,14.99,28.412,13.915,28.833,13.034z
			 M1.876,11.595c-0.254-0.529-0.458-1.522,0.197-1.864C2.479,9.519,2.97,9.699,3.17,10.094c0.029,0.056,0.071,0.106,0.119,0.153
			c0.013,0.094,0.046,0.19,0.122,0.279C4.2,11.455,2.387,12.662,1.876,11.595z M6.078,34.46c-1.492-3.5-1.439-7.529-2.797-11.01
			c0.284-0.002,0.569-0.003,0.854-0.005c1.034-0.006,2.067-0.011,3.101-0.017c-0.034,0.045-0.047,0.087-0.026,0.123
			c0.794,1.367,0.854,3.353,1.118,4.884c0.393,2.281,1.031,4.599,1.352,6.889C8.173,35.441,6.485,35.414,6.078,34.46z
			 M11.813,35.132c-0.131,0.004-0.294,0.017-0.471,0.033c-0.281-2.12-0.923-4.228-1.254-6.353c-0.257-1.645-0.344-3.837-1.104-5.393
			c0.074-0.001,0.148-0.001,0.222-0.001c1.529-0.009,3.058-0.017,4.587-0.026c-0.22,1.889-0.081,3.754,0.011,5.652
			c0.098,2.017-0.013,4.045,0.046,6.067C13.171,35.111,12.492,35.112,11.813,35.132z M17.173,35.156
			c-0.564-0.019-1.127-0.024-1.69-0.034c0-0.004,0.002-0.008,0.001-0.012c-0.159-3.74-0.507-7.992-0.077-11.729
			c2.005-0.011,4.009-0.023,6.014-0.034c-0.007,0.018-0.016,0.036-0.019,0.055c-0.618,4.028-1.751,7.857-2.702,11.784
			C18.191,35.181,17.682,35.173,17.173,35.156z M24.958,30.96c-0.245,1.835-0.534,4.398-2.768,4.292
			c-0.641-0.03-1.283-0.042-1.925-0.049c0.947-3.948,2.09-7.792,2.726-11.831c1.259,0.061,2.688,0.19,3.987,0.065
			C25.9,25.719,25.29,28.469,24.958,30.96z M27.665,18.658c0.023,0.001,0.04,0.001,0.06,0.001c0.002,0.018,0.008,0.038,0.024,0.065
			c0.402,0.668,1.835,3.563,0.237,3.572c-5.54,0.031-11.081,0.063-16.621,0.094c-2.574,0.014-5.147,0.029-7.721,0.043
			c-0.431,0.003-0.954-0.061-1.378,0.053C1.995,22.56,2.113,22.58,1.83,21.949c-0.484-1.077-0.221-2.046-0.091-3.186
			c0.685-0.691,5.358-0.171,6.086-0.173c3.457-0.008,6.913-0.011,10.37-0.007c2.863,0.003,5.727,0.002,8.59,0.052
			C27.078,18.64,27.372,18.648,27.665,18.658z M27.727,9.731c0.406-0.212,0.897-0.032,1.097,0.363
			c0.029,0.056,0.071,0.106,0.119,0.153c0.013,0.094,0.046,0.19,0.122,0.279c0.788,0.93-1.025,2.136-1.535,1.069
			C27.276,11.066,27.071,10.073,27.727,9.731z M2.423,1.655c5.252-0.987,11.749,4.554,11.921,9.805
			c-1.412-1.31-3.108-2.274-4.822-3.215C8.636,7.757,7.846,9.109,8.731,9.596c2.089,1.147,4.299,2.306,5.716,4.287
			c0.418,0.583,1.169,0.455,1.432-0.187c1.31-3.193,1.407-6.894,4.169-9.299c0.763-0.664-0.35-1.767-1.108-1.107
			c-1.918,1.67-2.669,3.864-3.333,6.135c-1.477-5.54-8.016-10.33-13.601-9.28C1.014,0.332,1.435,1.841,2.423,1.655z"/>
	</g>
</g>
</svg>
