<svg id="Слой_1" data-name="Слой 1" xmlns="http://www.w3.org/2000/svg" viewBox="0 0 53.78 41.62"><defs><style>.cls-1{fill:#fff;}</style></defs><title>2</title><path class="cls-1" d="M53.51,31.14l-.34,0a59,59,0,0,1-8.64.64c-.23-6.15-5.63-8.35-10.66-8.35-.47,0-.95,0-1.42.05,4.63.12,9.49,3,10.11,8.28-2.56,0-5.14-.12-7.64-.22-1.51-.06-3.06-.12-4.58-.17a1,1,0,0,0,.18-.16c.1-.12.08-.2.08-.23-.58-2.6-3.22-3.85-6.05-4.56a10.11,10.11,0,0,1,2-1.53A14.55,14.55,0,0,0,24,26.34c-.69-.16-1.39-.28-2.07-.39A12.16,12.16,0,0,0,20,25.79a16.51,16.51,0,0,0-11.22,5,1.05,1.05,0,0,0-.14.16,1.59,1.59,0,0,0,.65.11,1.84,1.84,0,0,0,1.16-.32,12.86,12.86,0,0,1,9.14-4,12.92,12.92,0,0,1,1.41.08c1.55.17,6.61,1,7.6,4.55q-3-.05-6-.05c-3.78,0-7.63.05-11.35.1-3.29,0-6.57.09-9.86.1A2.24,2.24,0,0,0,0,32.27l.28,0,3.92,0a1.73,1.73,0,0,0-.44.3.45.45,0,0,0-.14.21.39.39,0,0,0,.17.14A17.23,17.23,0,0,1,8,36.5c1.49,1.61,2.91,3.13,5.08,3.89a29.44,29.44,0,0,0,9.49,1.22c1.16,0,2.32,0,3.44-.05l2.48,0H30c4.41,0,9,0,13.09-1.64a6.1,6.1,0,0,0,2.59-2.17,20.63,20.63,0,0,1,3.27-3.85c.45-.44.9-.89,1.37-1.39a.68.68,0,0,0,.17-.25c.76-.08,1.49-.18,2.21-.29a1.65,1.65,0,0,0,1.12-.74A.58.58,0,0,0,53.51,31.14ZM47,33.79a10.09,10.09,0,0,0-2.55,3c-1.79,3.33-7.53,3.72-11.69,3.72-1.22,0-2.39,0-3.44-.07-.82,0-1.56,0-2.17,0H24.44c-3.71,0-7.61-.17-11-1.38-1.86-.66-3.19-2.23-4.47-3.74a14.42,14.42,0,0,0-3.16-3l4.4,0c3.77,0,7.66-.1,11.49-.1q3,0,6,0c2.12,0,4.32.13,6.45.21,2.85.12,5.8.24,8.69.24h0c2,0,3.89-.06,5.6-.19C47.92,32.93,47.43,33.38,47,33.79Zm-12.44-14a.83.83,0,0,0,.61.2,1.67,1.67,0,0,0,1.35-.61s0-.09-.06-.22l-.48-.52c-.83-.88-1.85-2-1.77-3.19a2.44,2.44,0,0,1,1-1.72c.27-.22.56-.42.86-.62a4.72,4.72,0,0,0,1.45-1.3c1-1.59.34-3.27-.35-5a16.46,16.46,0,0,1-.74-2.19c-.06-.27-.41-.31-.61-.31a1.68,1.68,0,0,0-1.21.5.4.4,0,0,0-.1.36,15.74,15.74,0,0,0,.76,2.24,19.55,19.55,0,0,1,.71,2c.54,1.94-.83,3-1.94,3.82a8.06,8.06,0,0,0-1.19,1c-1.47,1.67-.2,3.4,1.49,5.32Zm-8-4.28a.84.84,0,0,0,.61.2,1.67,1.67,0,0,0,1.35-.61s0-.09-.06-.21l-.48-.52c-.83-.88-1.85-2-1.77-3.2a2.44,2.44,0,0,1,1-1.72c.27-.22.56-.42.86-.62a4.72,4.72,0,0,0,1.45-1.3c1-1.59.34-3.27-.35-5A16.48,16.48,0,0,1,28.39.31C28.33,0,28,0,27.78,0a1.67,1.67,0,0,0-1.21.5.39.39,0,0,0-.1.36,15.64,15.64,0,0,0,.76,2.24,19.86,19.86,0,0,1,.71,2c.54,1.94-.83,3-1.94,3.82a8.12,8.12,0,0,0-1.19,1c-1.47,1.67-.2,3.4,1.49,5.32Zm-9,6.43a.83.83,0,0,0,.61.2h0a1.66,1.66,0,0,0,1.35-.61s0-.09-.06-.21l-.48-.52c-.83-.88-1.85-2-1.77-3.19a2.43,2.43,0,0,1,1-1.72c.27-.22.57-.42.86-.62A4.73,4.73,0,0,0,20.48,14c1-1.59.34-3.27-.35-5a16.43,16.43,0,0,1-.74-2.19c-.06-.27-.41-.31-.61-.31a1.68,1.68,0,0,0-1.21.5.4.4,0,0,0-.1.36,15.62,15.62,0,0,0,.76,2.24,19.88,19.88,0,0,1,.71,2c.54,1.94-.83,3-1.94,3.82a8.09,8.09,0,0,0-1.19,1c-1.47,1.67-.2,3.4,1.49,5.32Z"/></svg>