<?xml version="1.0" encoding="utf-8"?>
<!-- Generator: Adobe Illustrator 17.0.0, SVG Export Plug-In . SVG Version: 6.00 Build 0)  -->
<!DOCTYPE svg PUBLIC "-//W3C//DTD SVG 1.1//EN" "http://www.w3.org/Graphics/SVG/1.1/DTD/svg11.dtd">
<svg version="1.1" id="Layer_1" xmlns="http://www.w3.org/2000/svg" xmlns:xlink="http://www.w3.org/1999/xlink" x="0px" y="0px"
	 width="32px" height="50px" viewBox="0 0 32 50" enable-background="new 0 0 32 50" xml:space="preserve">
<g>
	<g>
		<path fill="#F15A29" d="M1.861,4.407c9.531-0.991,19.141,0.333,28.621-0.439c1.911-0.155,1.928-3.157,0-3
			c-9.48,0.772-19.09-0.552-28.621,0.439C-0.04,1.605-0.06,4.608,1.861,4.407z M29.223,10.099
			c-8.982,0.049-17.965,0.097-26.947,0.147c-1.93,0.01-1.934,3.01,0,3c8.982-0.049,17.964-0.098,26.947-0.147
			C31.153,13.089,31.157,10.089,29.223,10.099z M30.196,19.049c-3.971-0.227-8.2,0.167-12.232,0.107
			c-5.506-0.082-10.967-0.412-16.452,0.14c-1.903,0.191-1.922,3.193,0,3c6.209-0.124,10.946-0.101,16.452-0.019
			c3.777,0.057,7.727-0.217,11.479-0.066c0.553,0.246,1.234,0.15,1.682-0.29c0.044-0.043,0.088-0.086,0.132-0.13
			C32.226,20.836,31.456,19.122,30.196,19.049z"/>
	</g>
</g>
<g>
	<g>
		<path fill="#FFFFFF" d="M27.517,46.83c-3.195-2.714-6.119-5.736-9.029-8.781c0.071-0.069,0.139-0.135,0.211-0.205
			c2.707-2.627,5.303-5.609,8.058-8.153c0.571-0.213,0.99-0.772,0.995-1.404c0.001-0.062,0.001-0.123,0.002-0.185
			c0.012-1.36-1.746-2.028-2.688-1.188c-2.968,2.647-5.68,5.916-8.574,8.724c-0.055,0.053-0.11,0.105-0.165,0.158
			c-2.981-3.108-6.009-6.174-9.36-8.894c-1.484-1.204-3.621,0.904-2.121,2.121c3.335,2.706,6.349,5.756,9.316,8.848
			c-3.201,3.046-6.399,6.065-9.204,9.498c-1.21,1.481,0.899,3.618,2.121,2.121c3.424-3.564,6.258-6.404,9.262-9.348
			c2.918,3.055,5.85,6.086,9.054,8.808C26.857,50.192,28.991,48.082,27.517,46.83z"/>
	</g>
</g>
</svg>
