<?xml version="1.0" encoding="utf-8"?>
<!-- Generator: Adobe Illustrator 17.0.0, SVG Export Plug-In . SVG Version: 6.00 Build 0)  -->
<!DOCTYPE svg PUBLIC "-//W3C//DTD SVG 1.1//EN" "http://www.w3.org/Graphics/SVG/1.1/DTD/svg11.dtd">
<svg version="1.1" id="Layer_1" xmlns="http://www.w3.org/2000/svg" xmlns:xlink="http://www.w3.org/1999/xlink" x="0px" y="0px"
	 width="18.957px" height="18.957px" viewBox="0 0 18.957 18.957" enable-background="new 0 0 18.957 18.957" xml:space="preserve">
<g>
	<g>
		<path fill="#FFFFFF" d="M18.233,8.693c-2.557-0.451-5.131-0.473-7.711-0.38c-0.133-2.45-0.298-4.902-0.245-7.346
			c0.028-1.29-1.972-1.288-2,0C8.224,3.429,8.414,5.915,8.559,8.399C6.027,8.533,3.493,8.711,0.967,8.657
			c-1.291-0.027-1.288,1.973,0,2c2.547,0.054,5.118-0.151,7.687-0.297c0.1,2.462,0.086,4.917-0.342,7.341
			c-0.222,1.261,1.705,1.8,1.929,0.531c0.465-2.641,0.476-5.299,0.371-7.963c2.377-0.088,4.747-0.061,7.089,0.352
			C18.962,10.843,19.501,8.916,18.233,8.693z"/>
	</g>
</g>
</svg>
