<?xml version="1.0" encoding="utf-8"?>
<!-- Generator: Adobe Illustrator 17.0.0, SVG Export Plug-In . SVG Version: 6.00 Build 0)  -->
<!DOCTYPE svg PUBLIC "-//W3C//DTD SVG 1.1//EN" "http://www.w3.org/Graphics/SVG/1.1/DTD/svg11.dtd">
<svg version="1.1" id="Layer_1" xmlns="http://www.w3.org/2000/svg" xmlns:xlink="http://www.w3.org/1999/xlink" x="0px" y="0px"
	 width="22.743px" height="23.149px" viewBox="-33.264 0 22.743 23.149" enable-background="new -33.264 0 22.743 23.149"
	 xml:space="preserve">
<path fill="#FFFFFF" d="M-10.729,21.855c-2.015-2.157-4.659-3.583-6.874-5.507c2.687-2.903,3.827-7.333,2.138-11.05
	c-2.313-5.093-8.931-6.918-13.502-3.681c-3.763,2.665-5.081,8.091-3.85,12.369c1.24,4.309,6.895,7.289,11.009,5.073
	c1.138-0.355,2.179-0.941,3.1-1.686c2.225,1.943,4.89,3.374,6.917,5.544C-11.128,23.624-10.07,22.561-10.729,21.855z
	 M-31.371,13.588c-1.149-3.282-0.039-7.234,2.195-9.779c3.193-3.637,9.16-2.786,11.804,1.045c3.094,4.484-0.035,11.327-4.924,12.792
	c-0.034,0.01-0.053,0.032-0.084,0.045c-0.032,0.013-0.062,0.012-0.094,0.03C-25.883,19.631-30.213,16.895-31.371,13.588z"/>
</svg>
