<?xml version="1.0" encoding="utf-8"?>
<!-- Generator: Adobe Illustrator 17.0.0, SVG Export Plug-In . SVG Version: 6.00 Build 0)  -->
<!DOCTYPE svg PUBLIC "-//W3C//DTD SVG 1.1//EN" "http://www.w3.org/Graphics/SVG/1.1/DTD/svg11.dtd">
<svg version="1.1" id="Layer_1" xmlns="http://www.w3.org/2000/svg" xmlns:xlink="http://www.w3.org/1999/xlink" x="0px" y="0px"
	 width="75.335px" height="87.461px" viewBox="0 0 75.335 87.461" enable-background="new 0 0 75.335 87.461" xml:space="preserve">
<g>
	<g>
		<path fill="#FF9419" d="M74.053,30.907c-0.003-0.271-0.063-0.492-0.145-0.692c0.101-0.28,0.151-0.588,0.123-0.936
			c-0.425-5.237-0.85-10.473-1.275-15.71c-0.089-1.103-1.309-1.473-2.682-1.329c-3.845-0.42-7.692-0.604-11.54-0.666
			c0.249-3.321,0.256-6.673,0.258-9.997c0.001-2.838-6.705-1.401-6.706,0.826c-0.002,3.043-0.014,6.11-0.205,9.155
			c-5.765,0.065-11.534,0.26-17.311,0.224c-4.155-0.026-8.295-0.09-12.428-0.057c-0.286-3.368-0.3-6.772-0.301-10.148
			c-0.001-2.839-6.708-1.401-6.706,0.826c0.001,3.153,0.004,6.333,0.196,9.491c-3.863,0.18-7.722,0.52-11.579,1.142
			C2.607,13.221,0,13.937,0,15.534v15.747c0,0.28,0.06,0.531,0.162,0.752C0.067,32.239,0,32.453,0,32.681v52.94
			c0,1.169,0.993,1.857,2.144,1.839c19.687-0.296,39.386-0.586,59.062-1.336c3.062-0.117,12.191,0.893,12.93-3.674
			C76.786,66.073,74.247,47.472,74.053,30.907z M6.748,16.847c2.99-0.35,5.986-0.555,8.986-0.669
			c0.332,2.479,0.841,4.93,1.654,7.325c0.811,2.39,7.473,0.472,6.703-1.796c-0.63-1.855-1.069-3.746-1.396-5.656
			c4.311-0.009,8.627,0.077,12.946,0.105c5.28,0.033,10.543-0.143,15.803-0.192c-0.333,2.387-0.832,4.747-1.615,7.055
			c-0.793,2.336,5.935,1.446,6.707-0.826c0.688-2.027,1.148-4.097,1.48-6.188c2.708,0.06,5.415,0.201,8.125,0.45
			c0.314,3.868,0.628,7.736,0.942,11.603c-8.445,0.096-16.889,0.193-25.334,0.289c-9.713-0.472-19.441-0.76-29.024,0.331
			c-1.993,0.023-3.985,0.045-5.978,0.068V16.847z M67.563,75.107c-0.008,2.144-0.046,4.288-0.103,6.431
			c-3.603,0.245-7.221,0.332-10.828,0.453c-16.622,0.554-33.255,0.834-49.884,1.086v-49.33c1.494-0.286,2.996-0.528,4.504-0.731
			c10.599-0.121,21.198-0.242,31.796-0.363c8.179,0.453,16.326,0.985,24.278,0.836C67.486,47.361,67.615,61.235,67.563,75.107z
			 M20.639,42.623c-0.101-0.42,0.122-0.775,0.122-1.227c0-0.581,0.061-0.678-0.365-0.742c-1.074-0.161-2.27,0.032-3.365,0.097
			c-0.547,0-1.095-0.032-1.642,0.097c-0.304,0.064-0.588,0.161-0.892,0.064l-0.791-0.064c-0.02,0.581,0.101,1.098,0.203,1.646
			c0.162,0.807,0.223,1.647,0.385,2.421c0.183,0.904,0.568,1.388,0.791,2.196c0.588-0.42,0.678-0.226,1.307-0.226
			c0.851,0,1.703,0,2.554,0.065c0.547,0.032,1.094,0.065,1.642,0.129c0.385,0.032,0.993,0.194,1.338,0.032
			c-0.142-0.904-0.476-1.614-0.76-2.389C20.902,44.044,20.801,43.333,20.639,42.623z M39.144,42.623
			c-0.102-0.42,0.122-0.775,0.122-1.227c0-0.581,0.061-0.678-0.365-0.742c-1.074-0.161-2.27,0.032-3.365,0.097
			c-0.548,0-1.095-0.032-1.642,0.097c-0.304,0.064-0.588,0.161-0.892,0.064l-0.79-0.064c-0.021,0.581,0.101,1.098,0.202,1.646
			c0.162,0.807,0.223,1.647,0.385,2.421c0.182,0.904,0.567,1.388,0.79,2.196c0.588-0.42,0.679-0.226,1.307-0.226
			c0.851,0,1.703,0,2.554,0.065c0.547,0.032,1.094,0.065,1.642,0.129c0.385,0.032,0.993,0.194,1.338,0.032
			c-0.142-0.904-0.476-1.614-0.76-2.389C39.408,44.044,39.306,43.333,39.144,42.623z M57.65,42.623
			c-0.101-0.42,0.122-0.775,0.122-1.227c0-0.581,0.061-0.678-0.365-0.742c-1.074-0.161-2.27,0.032-3.365,0.097
			c-0.547,0-1.094-0.032-1.642,0.097c-0.304,0.064-0.588,0.161-0.892,0.064l-0.791-0.064c-0.02,0.581,0.102,1.098,0.203,1.646
			c0.162,0.807,0.223,1.647,0.385,2.421c0.183,0.904,0.568,1.388,0.791,2.196c0.588-0.42,0.678-0.226,1.307-0.226
			c0.851,0,1.703,0,2.554,0.065c0.547,0.032,1.095,0.065,1.642,0.129c0.385,0.032,0.993,0.194,1.338,0.032
			c-0.142-0.904-0.476-1.614-0.76-2.389C57.913,44.044,57.812,43.333,57.65,42.623z M20.639,56.502
			c-0.101-0.42,0.122-0.775,0.122-1.227c0-0.581,0.061-0.678-0.365-0.743c-1.074-0.161-2.27,0.032-3.365,0.097
			c-0.547,0-1.095-0.032-1.642,0.097c-0.304,0.065-0.588,0.161-0.892,0.065l-0.791-0.065c-0.02,0.581,0.101,1.098,0.203,1.647
			c0.162,0.807,0.223,1.647,0.385,2.422c0.183,0.904,0.568,1.388,0.791,2.195c0.588-0.42,0.678-0.226,1.307-0.226
			c0.851,0,1.703,0,2.554,0.065c0.547,0.032,1.094,0.065,1.642,0.129c0.385,0.032,0.993,0.194,1.338,0.032
			c-0.142-0.904-0.476-1.614-0.76-2.389C20.902,57.923,20.801,57.213,20.639,56.502z M39.144,56.502
			c-0.102-0.42,0.122-0.775,0.122-1.227c0-0.581,0.061-0.678-0.365-0.743c-1.074-0.161-2.27,0.032-3.365,0.097
			c-0.548,0-1.095-0.032-1.642,0.097c-0.304,0.065-0.588,0.161-0.892,0.065l-0.79-0.065c-0.021,0.581,0.101,1.098,0.202,1.647
			c0.162,0.807,0.223,1.647,0.385,2.422c0.182,0.904,0.567,1.388,0.79,2.195c0.588-0.42,0.679-0.226,1.307-0.226
			c0.851,0,1.703,0,2.554,0.065c0.547,0.032,1.094,0.065,1.642,0.129c0.385,0.032,0.993,0.194,1.338,0.032
			c-0.142-0.904-0.476-1.614-0.76-2.389C39.408,57.923,39.306,57.213,39.144,56.502z M57.65,56.502
			c-0.101-0.42,0.122-0.775,0.122-1.227c0-0.581,0.061-0.678-0.365-0.743c-1.074-0.161-2.27,0.032-3.365,0.097
			c-0.547,0-1.094-0.032-1.642,0.097c-0.304,0.065-0.588,0.161-0.892,0.065l-0.791-0.065c-0.02,0.581,0.102,1.098,0.203,1.647
			c0.162,0.807,0.223,1.647,0.385,2.422c0.183,0.904,0.568,1.388,0.791,2.195c0.588-0.42,0.678-0.226,1.307-0.226
			c0.851,0,1.703,0,2.554,0.065c0.547,0.032,1.095,0.065,1.642,0.129c0.385,0.032,0.993,0.194,1.338,0.032
			c-0.142-0.904-0.476-1.614-0.76-2.389C57.913,57.923,57.812,57.213,57.65,56.502z M20.639,70.381
			c-0.101-0.42,0.122-0.775,0.122-1.227c0-0.581,0.061-0.678-0.365-0.742c-1.074-0.162-2.27,0.032-3.365,0.097
			c-0.547,0-1.095-0.032-1.642,0.097c-0.304,0.065-0.588,0.161-0.892,0.065l-0.791-0.065c-0.02,0.581,0.101,1.098,0.203,1.647
			c0.162,0.807,0.223,1.647,0.385,2.421c0.183,0.904,0.568,1.389,0.791,2.195c0.588-0.419,0.678-0.226,1.307-0.226
			c0.851,0,1.703,0,2.554,0.065c0.547,0.032,1.094,0.064,1.642,0.129c0.385,0.032,0.993,0.193,1.338,0.032
			c-0.142-0.904-0.476-1.614-0.76-2.389C20.902,71.802,20.801,71.092,20.639,70.381z M39.144,70.381
			c-0.102-0.42,0.122-0.775,0.122-1.227c0-0.581,0.061-0.678-0.365-0.742c-1.074-0.162-2.27,0.032-3.365,0.097
			c-0.548,0-1.095-0.032-1.642,0.097c-0.304,0.065-0.588,0.161-0.892,0.065l-0.79-0.065c-0.021,0.581,0.101,1.098,0.202,1.647
			c0.162,0.807,0.223,1.647,0.385,2.421c0.182,0.904,0.567,1.389,0.79,2.195c0.588-0.419,0.679-0.226,1.307-0.226
			c0.851,0,1.703,0,2.554,0.065c0.547,0.032,1.094,0.064,1.642,0.129c0.385,0.032,0.993,0.193,1.338,0.032
			c-0.142-0.904-0.476-1.614-0.76-2.389C39.408,71.802,39.306,71.092,39.144,70.381z"/>
	</g>
</g>
</svg>
