<?xml version="1.0" encoding="utf-8"?>
<!-- Generator: Adobe Illustrator 17.0.0, SVG Export Plug-In . SVG Version: 6.00 Build 0)  -->
<!DOCTYPE svg PUBLIC "-//W3C//DTD SVG 1.1//EN" "http://www.w3.org/Graphics/SVG/1.1/DTD/svg11.dtd">
<svg version="1.1" id="Layer_1" xmlns="http://www.w3.org/2000/svg" xmlns:xlink="http://www.w3.org/1999/xlink" x="0px" y="0px"
	 width="25.354px" height="29.435px" viewBox="0 0 25.354 29.435" enable-background="new 0 0 25.354 29.435" xml:space="preserve">
<g>
	<g>
		<path fill="#FFFFFF" d="M24.923,10.402c-0.001-0.09-0.036-0.149-0.062-0.215c0.04-0.099,0.065-0.207,0.055-0.333
			c-0.143-1.762-0.286-3.525-0.429-5.287c-0.029-0.362-0.423-0.483-0.871-0.444c-1.305-0.144-2.61-0.206-3.915-0.227
			c0.084-1.118,0.086-2.246,0.087-3.365c0-0.955-2.257-0.472-2.257,0.278c-0.001,1.024-0.005,2.056-0.069,3.081
			c-1.94,0.022-3.882,0.088-5.826,0.075c-1.398-0.009-2.792-0.03-4.182-0.019C7.355,2.813,7.35,1.667,7.35,0.531
			c0-0.955-2.257-0.471-2.257,0.278c0,1.061,0.001,2.131,0.066,3.194c-1.3,0.06-2.599,0.175-3.897,0.384
			C0.877,4.449,0,4.691,0,5.228v5.3c0,0.102,0.024,0.192,0.064,0.271C0.036,10.864,0,10.927,0,10.999v17.817
			c0,0.393,0.334,0.625,0.721,0.619c6.626-0.099,13.255-0.197,19.877-0.45c1.03-0.039,4.103,0.301,4.352-1.237
			C25.842,22.237,24.988,15.977,24.923,10.402z M2.271,5.67c1.006-0.118,2.015-0.187,3.024-0.225
			C5.407,6.279,5.579,7.104,5.852,7.91c0.273,0.804,2.515,0.159,2.256-0.605c-0.212-0.624-0.36-1.261-0.47-1.903
			c1.451-0.003,2.904,0.026,4.357,0.035c1.777,0.011,3.548-0.048,5.318-0.065c-0.112,0.803-0.28,1.598-0.544,2.374
			c-0.267,0.786,1.997,0.487,2.257-0.278c0.232-0.682,0.386-1.379,0.498-2.082c0.911,0.02,1.823,0.068,2.734,0.152
			c0.106,1.302,0.211,2.603,0.317,3.905c-2.843,0.032-5.686,0.065-8.529,0.097c-3.25-0.158-6.504-0.249-9.71,0.111
			C3.648,9.659,2.96,9.667,2.271,9.674V5.67z M22.704,27.438c-1.213,0.082-2.43,0.115-3.644,0.156
			c-5.594,0.186-11.192,0.28-16.789,0.365V11.363c0.511-0.098,1.024-0.183,1.539-0.252c3.557-0.041,7.114-0.081,10.671-0.122
			c2.755,0.152,5.499,0.329,8.177,0.279c0.054,4.669,0.098,9.339,0.081,14.009C22.736,25.998,22.723,26.718,22.704,27.438z
			 M6.946,14.345c-0.034-0.141,0.041-0.261,0.041-0.413c0-0.195,0.021-0.228-0.123-0.25c-0.362-0.054-0.764,0.011-1.133,0.033
			c-0.184,0-0.368-0.011-0.553,0.033c-0.102,0.022-0.198,0.054-0.3,0.022l-0.266-0.022c-0.007,0.196,0.034,0.369,0.068,0.554
			c0.055,0.272,0.075,0.554,0.13,0.815c0.061,0.304,0.191,0.467,0.266,0.739c0.198-0.141,0.228-0.076,0.44-0.076
			c0.286,0,0.573,0,0.86,0.022c0.184,0.011,0.368,0.022,0.553,0.044c0.13,0.011,0.334,0.065,0.45,0.011
			c-0.048-0.304-0.16-0.543-0.256-0.804C7.035,14.823,7.001,14.584,6.946,14.345z M13.174,14.345
			c-0.034-0.141,0.041-0.261,0.041-0.413c0-0.195,0.021-0.228-0.123-0.25c-0.362-0.054-0.764,0.011-1.132,0.033
			c-0.184,0-0.368-0.011-0.553,0.033c-0.102,0.022-0.198,0.054-0.3,0.022l-0.266-0.022c-0.007,0.196,0.034,0.369,0.068,0.554
			c0.055,0.272,0.075,0.554,0.13,0.815c0.061,0.304,0.191,0.467,0.266,0.739c0.198-0.141,0.228-0.076,0.44-0.076
			c0.286,0,0.573,0,0.859,0.022c0.184,0.011,0.368,0.022,0.553,0.044c0.13,0.011,0.334,0.065,0.45,0.011
			c-0.048-0.304-0.16-0.543-0.256-0.804C13.263,14.823,13.229,14.584,13.174,14.345z M19.402,14.345
			c-0.034-0.141,0.041-0.261,0.041-0.413c0-0.195,0.02-0.228-0.123-0.25c-0.362-0.054-0.764,0.011-1.133,0.033
			c-0.184,0-0.368-0.011-0.552,0.033c-0.102,0.022-0.198,0.054-0.3,0.022l-0.266-0.022c-0.007,0.196,0.034,0.369,0.068,0.554
			c0.055,0.272,0.075,0.554,0.13,0.815c0.061,0.304,0.191,0.467,0.266,0.739c0.198-0.141,0.228-0.076,0.44-0.076
			c0.287,0,0.573,0,0.86,0.022c0.184,0.011,0.368,0.022,0.553,0.044c0.13,0.011,0.334,0.065,0.45,0.011
			c-0.048-0.304-0.16-0.543-0.256-0.804C19.491,14.823,19.457,14.584,19.402,14.345z M6.946,19.016
			c-0.034-0.141,0.041-0.261,0.041-0.413c0-0.196,0.021-0.228-0.123-0.25c-0.362-0.054-0.764,0.011-1.133,0.033
			c-0.184,0-0.368-0.011-0.553,0.033c-0.102,0.022-0.198,0.054-0.3,0.022l-0.266-0.022c-0.007,0.196,0.034,0.37,0.068,0.554
			c0.055,0.272,0.075,0.554,0.13,0.815c0.061,0.304,0.191,0.467,0.266,0.739c0.198-0.141,0.228-0.076,0.44-0.076
			c0.286,0,0.573,0,0.86,0.022c0.184,0.011,0.368,0.022,0.553,0.043c0.13,0.011,0.334,0.065,0.45,0.011
			c-0.048-0.304-0.16-0.543-0.256-0.804C7.035,19.494,7.001,19.255,6.946,19.016z M13.174,19.016
			c-0.034-0.141,0.041-0.261,0.041-0.413c0-0.196,0.021-0.228-0.123-0.25c-0.362-0.054-0.764,0.011-1.132,0.033
			c-0.184,0-0.368-0.011-0.553,0.033c-0.102,0.022-0.198,0.054-0.3,0.022l-0.266-0.022c-0.007,0.196,0.034,0.37,0.068,0.554
			c0.055,0.272,0.075,0.554,0.13,0.815c0.061,0.304,0.191,0.467,0.266,0.739c0.198-0.141,0.228-0.076,0.44-0.076
			c0.286,0,0.573,0,0.859,0.022c0.184,0.011,0.368,0.022,0.553,0.043c0.13,0.011,0.334,0.065,0.45,0.011
			c-0.048-0.304-0.16-0.543-0.256-0.804C13.263,19.494,13.229,19.255,13.174,19.016z M19.402,19.016
			c-0.034-0.141,0.041-0.261,0.041-0.413c0-0.196,0.02-0.228-0.123-0.25c-0.362-0.054-0.764,0.011-1.133,0.033
			c-0.184,0-0.368-0.011-0.552,0.033c-0.102,0.022-0.198,0.054-0.3,0.022l-0.266-0.022c-0.007,0.196,0.034,0.37,0.068,0.554
			c0.055,0.272,0.075,0.554,0.13,0.815c0.061,0.304,0.191,0.467,0.266,0.739c0.198-0.141,0.228-0.076,0.44-0.076
			c0.287,0,0.573,0,0.86,0.022c0.184,0.011,0.368,0.022,0.553,0.043c0.13,0.011,0.334,0.065,0.45,0.011
			c-0.048-0.304-0.16-0.543-0.256-0.804C19.491,19.494,19.457,19.255,19.402,19.016z M6.946,23.687
			c-0.034-0.141,0.041-0.261,0.041-0.413c0-0.196,0.021-0.228-0.123-0.25C6.503,22.97,6.1,23.035,5.732,23.057
			c-0.184,0-0.368-0.011-0.553,0.033c-0.102,0.022-0.198,0.054-0.3,0.022l-0.266-0.022c-0.007,0.196,0.034,0.37,0.068,0.554
			c0.055,0.272,0.075,0.554,0.13,0.815c0.061,0.304,0.191,0.467,0.266,0.739c0.198-0.141,0.228-0.076,0.44-0.076
			c0.286,0,0.573,0,0.86,0.022c0.184,0.011,0.368,0.022,0.553,0.044c0.13,0.011,0.334,0.065,0.45,0.011
			c-0.048-0.304-0.16-0.543-0.256-0.804C7.035,24.165,7.001,23.926,6.946,23.687z M13.174,23.687
			c-0.034-0.141,0.041-0.261,0.041-0.413c0-0.196,0.021-0.228-0.123-0.25c-0.362-0.054-0.764,0.011-1.132,0.033
			c-0.184,0-0.368-0.011-0.553,0.033c-0.102,0.022-0.198,0.054-0.3,0.022l-0.266-0.022c-0.007,0.196,0.034,0.37,0.068,0.554
			c0.055,0.272,0.075,0.554,0.13,0.815c0.061,0.304,0.191,0.467,0.266,0.739c0.198-0.141,0.228-0.076,0.44-0.076
			c0.286,0,0.573,0,0.859,0.022c0.184,0.011,0.368,0.022,0.553,0.044c0.13,0.011,0.334,0.065,0.45,0.011
			c-0.048-0.304-0.16-0.543-0.256-0.804C13.263,24.165,13.229,23.926,13.174,23.687z"/>
	</g>
</g>
</svg>
