<?xml version="1.0" encoding="utf-8"?>
<!-- Generator: Adobe Illustrator 17.0.0, SVG Export Plug-In . SVG Version: 6.00 Build 0)  -->
<!DOCTYPE svg PUBLIC "-//W3C//DTD SVG 1.1//EN" "http://www.w3.org/Graphics/SVG/1.1/DTD/svg11.dtd">
<svg version="1.1" id="Layer_1" xmlns="http://www.w3.org/2000/svg" xmlns:xlink="http://www.w3.org/1999/xlink" x="0px" y="0px"
	 width="161.643px" height="102.076px" viewBox="0 0 161.643 102.076" enable-background="new 0 0 161.643 102.076"
	 xml:space="preserve">
<g>
	<path fill="#F15A29" d="M34.835,29.769c10.472-0.02,20.942-0.312,31.415-0.16c1.616,0.023,1.614-2.477,0-2.5
		c-10.473-0.153-20.943,0.139-31.415,0.16C33.219,27.273,33.219,29.773,34.835,29.769z"/>
	<path fill="#F15A29" d="M41.601,45.781c-13.454,0.015-26.942,0.524-40.39,0.041c-1.616-0.058-1.611,2.442,0,2.5
		c13.449,0.483,26.937-0.026,40.39-0.041C43.216,48.28,43.216,45.78,41.601,45.781z"/>
	<path fill="#F15A29" d="M53.11,63.533c-9.59-0.015-19.174-0.141-28.757,0.32c-1.608,0.077-1.616,2.578,0,2.5
		c9.583-0.461,19.167-0.335,28.757-0.32C54.726,66.035,54.726,63.535,53.11,63.533z"/>
	<path fill="#F15A29" d="M90.551,25.381c14.866,2.616,31.803-1.926,46.686,0.969c3.931,0.765,7.402-5.585,3.451-6.354
		c-14.904-2.9-31.884,1.635-46.686-0.969C90.05,18.333,86.573,24.682,90.551,25.381z"/>
	<path fill="#F15A29" d="M161.377,0.638C160.861,0.279,160.233,0,160.233,0H83.772c0,0-1.005,0.138-1.552,0.575
		s-0.804,1.628-0.804,1.628l-26.389,98.331c0,0-0.347,0.673,0,1.106c0.347,0.433,1.355,0.359,1.355,0.359h76.461
		c0,0,1.014,0.278,1.549-0.234c0.535-0.512,0.719-1.289,0.719-1.289l22.2-82.947v0.029L161.5,2.189
		C161.5,2.189,161.892,0.997,161.377,0.638z M154.713,13.772c-0.022,0.003-0.044,0.056-0.064,0.131l-0.679,2.786L153.666,18h0.015
		l-2.432,8.759L132.291,98H59.25L84.587,4h72.827L154.713,13.772z"/>
	<path fill="#F15A29" d="M86.078,43.238c12.027,2.419,26.043-2.448,37.857,0.323c3.88,0.91,7.338-5.442,3.451-6.354
		c-11.922-2.796-25.862,2.09-37.857-0.323C85.606,36.095,82.137,42.445,86.078,43.238z"/>
	<path fill="#F15A29" d="M112.906,56.196c-8.815,0.194-19.066,3.646-26.85,0.804c-3.669-1.34-7.091,5.024-3.45,6.354
		c7.119,2.6,15.835,0.554,24.027-0.374c4.359-0.494,14.697-1.984,17.636,0.365c2.923,2.337,7.74-3.371,4.84-5.689
		C125.569,54.826,117.759,56.09,112.906,56.196z"/>
</g>
</svg>
