<?xml version="1.0" encoding="utf-8"?>
<!-- Generator: Adobe Illustrator 17.0.0, SVG Export Plug-In . SVG Version: 6.00 Build 0)  -->
<!DOCTYPE svg PUBLIC "-//W3C//DTD SVG 1.1//EN" "http://www.w3.org/Graphics/SVG/1.1/DTD/svg11.dtd">
<svg version="1.1" id="Layer_1" xmlns="http://www.w3.org/2000/svg" xmlns:xlink="http://www.w3.org/1999/xlink" x="0px" y="0px"
	 width="21px" height="27px" viewBox="0 0 21 27" enable-background="new 0 0 21 27" xml:space="preserve">
<g>
	<g>
		<path fill="#FFFFFF" d="M20.514,0H0.486L0,0.493v26.014L0.486,27h20.028L21,26.507V0.493L20.514,0z M20.002,4.402l-0.003,0.133
			c0,0.002,0.004,0.005,0.004,0.007l0.086,21.401H0.956V0.967h19.132l-0.064,2.555c-0.006,0.016-0.025,0.029-0.025,0.045
			L20.002,4.402z M16.773,5.188C12.665,4.421,8.536,5.621,4.476,4.932C3.392,4.748,2.928,6.428,4.019,6.614
			c4.078,0.692,8.195-0.51,12.297,0.256C17.399,7.072,17.862,5.392,16.773,5.188z M14.042,11.426c1.08,0.241,1.539-1.44,0.457-1.682
			c-3.319-0.74-6.627,0.553-9.939-0.086C3.477,9.449,3.015,11.13,4.103,11.34C7.424,11.981,10.753,10.692,14.042,11.426z
			 M12.042,14.771c-2.295,0.051-4.738,0.965-6.976,0.213c-1.055-0.354-1.504,1.33-0.457,1.682c2.048,0.688,4.187,0.147,6.267-0.099
			c1.107-0.131,3.71-0.525,4.645,0.097c0.93,0.619,1.79-0.892,0.867-1.506C15.263,14.408,13.305,14.742,12.042,14.771z"/>
	</g>
</g>
</svg>
