<svg id="Слой_1" data-name="Слой 1" xmlns="http://www.w3.org/2000/svg" viewBox="0 0 64.53 45.58"><defs><style>.cls-1{fill:#fff;}.cls-2{fill:#2c8783;}</style></defs><title>Payment</title><path id="path4824" class="cls-1" d="M63.52,31.69,44,45l-.23.16-3.88-1.47-8.22-3.8L24.19,36l-8.07-4.34-12-7.21L.69,22.39l18.92-9.54,16,8.45,7.68,3.65,10.55,3.8Z"/><path id="path4826" class="cls-2" d="M19.54,12.54c24,13.68,33.3,15.47,45,19.21L43.9,45.58C28.33,39.34,13.91,31.3,0,22.46Zm.14.71L1.56,22.45c12.9,8.19,27.68,16.46,42.12,22.24L62.8,31.88C52,28.41,41.95,25.94,19.67,13.25Z"/><path id="path4816" class="cls-1" d="M63.52,30,44,43.22l-.23.16L39.86,41.9l-8.22-3.8-7.45-3.8L16.13,30l-12-7.21L.69,20.65l18.92-9.54,16,8.45,7.68,3.65L53.82,27Z"/><path id="path4818" class="cls-2" d="M19.54,10.8c24,13.68,33.3,15.47,45,19.21L43.9,43.84C28.33,37.6,13.91,29.56,0,20.73Zm.14.71L1.56,20.71C14.46,28.9,29.24,37.17,43.68,43L62.8,30.14C52,26.68,41.95,24.2,19.67,11.51Z"/><path id="path4808" class="cls-1" d="M63.52,28.22,44,41.48l-.23.16-3.88-1.47-8.22-3.8-7.45-3.8-8.07-4.34L4.11,21,.69,18.91,19.62,9.37l16,8.45,7.68,3.65,10.55,3.8Z"/><path id="path4810" class="cls-2" d="M19.54,9.06c24,13.68,33.3,15.47,45,19.21L43.9,42.1C28.33,35.87,13.91,27.82,0,19Zm.14.71L1.56,19c12.9,8.19,27.68,16.46,42.12,22.24L62.8,28.4C52,24.94,41.95,22.46,19.67,9.78Z"/><path id="path4797" class="cls-1" d="M63.52,26.48,44,39.74l-.23.16-3.88-1.47-8.22-3.8-7.45-3.8-8.07-4.34-12-7.21L.69,17.18,19.62,7.64l16,8.45,7.68,3.65,10.55,3.8Z"/><path id="path4765" class="cls-2" d="M19.54,7.33c24,13.68,33.3,15.47,45,19.21L43.9,40.37C28.33,34.13,13.91,26.09,0,17.25Zm.14.71L1.56,17.24c12.9,8.19,27.68,16.46,42.12,22.24L62.8,26.67C52,23.2,41.95,20.72,19.67,8Z"/><path id="path4832" class="cls-1" d="M63.52,24.74,44,38l-.23.16-3.88-1.47-8.22-3.8-7.45-3.8-8.07-4.34-12-7.21L.69,15.44,19.62,5.9l16,8.45L43.27,18l10.55,3.8Z"/><path id="path4834" class="cls-2" d="M19.54,5.59c24,13.68,33.3,15.47,45,19.21L43.9,38.63C28.33,32.39,13.91,24.35,0,15.52Zm.14.71L1.56,15.5C14.46,23.69,29.24,32,43.68,37.75L62.8,24.93C52,21.46,41.95,19,19.67,6.3Z"/><path id="path4840" class="cls-1" d="M63.52,23,44,36.27l-.23.16L39.86,35l-8.22-3.8-7.45-3.8L16.13,23l-12-7.21L.69,13.7,19.62,4.16l16,8.45,7.68,3.65,10.55,3.8Z"/><path id="path4842" class="cls-2" d="M19.54,3.85c24,13.68,33.3,15.47,45,19.21L43.9,36.89C28.33,30.65,13.91,22.61,0,13.78Zm.14.71L1.56,13.76C14.46,22,29.24,30.22,43.68,36L62.8,23.19C52,19.73,41.95,17.25,19.67,4.56Z"/><path id="path4848" class="cls-1" d="M63.52,21.27,44,34.53l-.23.16-3.88-1.47-8.22-3.8-7.45-3.8-8.07-4.34-12-7.21L.69,12,19.62,2.42l16,8.45,7.68,3.65,10.55,3.8Z"/><path id="path4850" class="cls-2" d="M19.54,2.12c24,13.68,33.3,15.47,45,19.21L43.9,35.15C28.33,28.92,13.91,20.87,0,12Zm.14.71L1.56,12c12.9,8.19,27.68,16.46,42.12,22.24L62.8,21.45C52,18,41.95,15.51,19.67,2.83Z"/><path id="path4856" class="cls-1" d="M63.52,19.53,44,32.8l-.23.16-3.88-1.47-8.22-3.8-7.45-3.8-8.07-4.34-12-7.21L.69,10.23,19.62.69l16,8.45,7.68,3.65,10.55,3.8Z"/><path id="path4858" class="cls-2" d="M19.54.38c24,13.68,33.3,15.47,45,19.21L43.9,33.42C28.33,27.18,13.91,19.14,0,10.3Zm.14.71L1.56,10.29c12.9,8.19,27.68,16.46,42.12,22.24L62.8,19.72C52,16.25,41.95,13.78,19.67,1.09Z"/><path id="path4774" class="cls-1" d="M59.09,18.77s-2.48,1.71-2.79,3.1-10.39,7.29-10.39,7.29h-5l-3.41-.78-8.53-4-6.82-2.95L14,16.91,6.2,12.26v-5L17.37,2,23,2.8l5.12,3.1,12.56,5.58,16.29,5.74Z"/><path id="path4696" class="cls-2" d="M19.55,0C43.4,13,52.6,14.75,64.21,18.31L43.73,31.49C28.27,25.54,14,17.88.15,9.46ZM14.81,3.71,8.35,7A6.09,6.09,0,0,1,9,9.77a6.12,6.12,0,0,1-.83,3.07c9.32,6,19.71,10.75,30.35,15.15a7.16,7.16,0,0,1,4.83-1.76,7.35,7.35,0,0,1,4.13,1.22l7.57-4.91a4.78,4.78,0,0,1,.08-5.29C46.68,15,31.63,8.12,23.85,4.23a9.29,9.29,0,0,1-4.07.88A8.67,8.67,0,0,1,14.81,3.71Z"/><path id="path4733" class="cls-2" d="M44.18,13.61a7.21,7.21,0,0,1-3.65,8c-3.13,1.89-7.46,2.24-11.58,1.22Z"/><path id="path4756" class="cls-2" d="M16.4,17c-.65-2.85.5-5.61,3.47-7.36S27,7.6,30.87,8.54Z"/><path id="path4860" class="cls-2" d="M43.66,12.6,26,23.46l.39,13.81-9.62-5.2.16-13.65L34,8.26Z"/><path id="path4903" class="cls-2" d="M62.93,18.77l-.15,1.08-.94.87,1.24.77-.78,1,.86.64-.63,1.07.91,1-1.15.93,1.21.71-1.48,1,1.38.6-1,.87.84.7-1,1.16,1.27.78L44.86,44.68l.59-1.22,7.25-5.52-5.77,2.84,9-6.64-8,4.35L57,31.54,49.23,36l8.48-6.55-7.48,4.12,8.28-6.47-7.41,4,7.51-5.92-7.17,3.89L59.54,23l-7.17,3.75,7.89-5.93-6.64,4Z"/></svg>