<svg id="Слой_1" data-name="Слой 1" xmlns="http://www.w3.org/2000/svg" viewBox="0 0 67.69 42.7"><defs><style>.cls-1{fill:#005280;}.cls-1,.cls-2{fill-rule:evenodd;}.cls-2{fill:#f2a713;}</style></defs><title>Payment</title><path class="cls-1" d="M67.69,4.86C67.69,1.61,66,0,62.72,0H5A4.59,4.59,0,0,0,1.33,1.33,4.73,4.73,0,0,0,0,4.86v33a4.77,4.77,0,0,0,1.33,3.53A4.93,4.93,0,0,0,5,42.7H62.72c3.28,0,5-1.64,5-4.86v-33Zm-5-4.1c2.71,0,4.1,1.38,4.1,4.1v33c0,2.74-1.38,4.1-4.1,4.1H5a4,4,0,0,1-4.2-4.1v-33C.77,2.15,2.12.77,5,.77Z"/><path class="cls-1" d="M5.43,2.66a3,3,0,0,0-2.18.56,3.68,3.68,0,0,0-.49,2.2v7.14H64.92V5.43a2.43,2.43,0,0,0-2.77-2.76Z"/><path class="cls-2" d="M2.76,37.17c0,1.89.9,2.87,2.66,2.87H62.16c1.84,0,2.77-1,2.77-2.87V30H2.76v7.14Z"/><path class="cls-1" d="M23.35,15.62a1.31,1.31,0,0,1-.18.77l-4.48,7.81-.28-9.52H11.24l2.41,1.15a2,2,0,0,1,1,1.72l.67,10.11h3.51l8.4-13H23a1.27,1.27,0,0,1,.38.95Z"/><path class="cls-1" d="M52.33,15.05l.28-.38H48.23c.15.15.2.23.2.28a4.67,4.67,0,0,1-.2.49L41.86,27.06c-.15.2-.31.38-.49.59H45l-.18-.38a5.5,5.5,0,0,1,.56-1.82L46.13,24h3.71c.15,1.2.26,2.2.31,2.94l-.31.69h4.48l-.67-1L52.33,15.05ZM49.67,22.2H47l2.28-4.38.38,4.38Z"/><path class="cls-1" d="M38.61,14A5.9,5.9,0,0,0,35,15.16a2.91,2.91,0,0,0-1.72,2.56,4.11,4.11,0,0,0,1.23,3L37,22.48c.9.64,1.33,1.2,1.33,1.72a1.56,1.56,0,0,1-.67,1.25,2.4,2.4,0,0,1-1.54.49c-.9,0-2.43-.64-4.56-1.82V26.5A9.43,9.43,0,0,0,36.4,28a5.6,5.6,0,0,0,3.81-1.33,3.63,3.63,0,0,0,1.72-2.94,3.66,3.66,0,0,0-1.33-2.66l-2.38-1.72c-.79-.64-1.23-1.2-1.23-1.64,0-1,.59-1.51,1.79-1.51a8.05,8.05,0,0,1,3.64,1.43l.49-2.48A8.53,8.53,0,0,0,38.61,14Z"/><path class="cls-1" d="M29.08,27.65c-.05-.54-.15-1-.2-1.54l3.25-10.5.77-.95H28.21c.05.23.1.54.15.77a4,4,0,0,1-.05.77L25.06,26.6l-.67,1.05Z"/></svg>