<svg id="Слой_1" data-name="Слой 1" xmlns="http://www.w3.org/2000/svg" viewBox="0 0 63.98 49.73"><defs><style>.cls-1{fill:#f79f1a;}.cls-2{fill:#ea001b;}.cls-3{fill:#ff5f01;}</style></defs><title>Payment</title><g id="_Группа_" data-name="&lt;Группа&gt;"><path id="path2997" class="cls-1" d="M64,19.82A19.78,19.78,0,1,1,44.19,0,19.8,19.8,0,0,1,64,19.82Z"/><path id="path2995" class="cls-2" d="M39.57,19.82A19.78,19.78,0,1,1,19.78,0,19.8,19.8,0,0,1,39.57,19.82Z"/><path id="path2999" class="cls-3" d="M32,4.22a19.85,19.85,0,0,0,0,31.21A19.85,19.85,0,0,0,32,4.22Z"/><path id="path3006" d="M4.4,49.45H3.28V44.21h1.1v.64a3.6,3.6,0,0,1,1.54-.77A2.43,2.43,0,0,1,7.7,45a2.07,2.07,0,0,1,1.76-1,2,2,0,0,1,2.07,1.65v3.7H10.45V46.17a1,1,0,0,0-1.17-1,1.2,1.2,0,0,0-1.32,1v3.26H6.84V46.15a1.14,1.14,0,0,0-1.12-1c-1.32,0-1.34,1.06-1.34,1.06Z"/><path id="path3008" d="M38.54,44.08a3.6,3.6,0,0,0-1.54.77v-.64H35.9v5.24H37l0-3.28s0-1.05,1.34-1.05a1.1,1.1,0,0,1,.59.15h0l.37-1A2,2,0,0,0,38.54,44.08Z"/><path id="path3013" d="M54.36,44.08a3.6,3.6,0,0,0-1.54.77v-.64h-1.1v5.24h1.12l0-3.28s0-1.05,1.34-1.05a1.1,1.1,0,0,1,.59.15h0l.37-1a2,2,0,0,0-.75-.16Z"/><path id="path3015" d="M15.16,44.06a2.67,2.67,0,0,0-2.57,2.77,2.75,2.75,0,0,0,2.62,2.78,2.9,2.9,0,0,0,1.71-.69v.53H18V44.21H16.92v.66a2.6,2.6,0,0,0-1.75-.81Zm.22,1.07a1.75,1.75,0,1,1-1.63,1.75A1.7,1.7,0,0,1,15.38,45.12Z"/><path id="path3020" d="M47.39,44.06a2.67,2.67,0,0,0-2.57,2.77,2.75,2.75,0,0,0,2.62,2.78,2.9,2.9,0,0,0,1.71-.69v.53h1.11V44.21H49.14v.66a2.6,2.6,0,0,0-1.75-.81Zm.22,1.07A1.75,1.75,0,1,1,46,46.88,1.7,1.7,0,0,1,47.61,45.12Z"/><path id="path3022" d="M58,44.06a2.67,2.67,0,0,0-2.57,2.77A2.75,2.75,0,0,0,58,49.61a2.9,2.9,0,0,0,1.71-.69v.53h1.11V42.14H59.75v2.73A2.6,2.6,0,0,0,58,44.06Zm.22,1.07a1.75,1.75,0,1,1-1.63,1.75A1.7,1.7,0,0,1,58.22,45.12Z"/><path id="path3024" d="M21.4,49.63a4.55,4.55,0,0,1-2.2-.7l.48-.75a5.21,5.21,0,0,0,1.72.46c.47,0,1.25-.15,1.25-.62s-1.31-.64-1.31-.64-2,0-2-1.65c0-1,1-1.67,2.25-1.67a7.11,7.11,0,0,1,2.09.64l-.55.86a6.86,6.86,0,0,0-1.61-.44c-.47,0-1,.21-1,.62,0,1.11,3.28-.09,3.28,2.16,0,1.47-1.34,1.74-2.4,1.74Z"/><path id="path3026" d="M25.62,42.69v1.52h-1v1.1h1V48a1.69,1.69,0,0,0,1.83,1.78A6.41,6.41,0,0,0,29,49.34l-.44-1.14a1.5,1.5,0,0,1-.88.34c-.89,0-.86-.59-.86-.59V45.32h1.82v-1.1H26.83V42.69Z"/><path id="path3034" d="M32.27,44.12a2.79,2.79,0,0,0,.11,5.59,5.06,5.06,0,0,0,2-.74l-.51-.89a3.25,3.25,0,0,1-1.53.58,1.49,1.49,0,0,1-1.52-1.4h3.83S35,44.12,32.27,44.12Zm-.16,1h.13a1.26,1.26,0,0,1,1.34,1.27H30.85A1.22,1.22,0,0,1,32.1,45.15Z"/><path id="path3037" d="M43.66,48.06l.51,1a3.6,3.6,0,0,1-1.73.53,2.81,2.81,0,0,1-2.94-2.77,2.63,2.63,0,0,1,2.8-2.74,3.9,3.9,0,0,1,1.91.59l-.58,1a1.58,1.58,0,0,0-1.37-.54,1.73,1.73,0,0,0,0,3.44,2.35,2.35,0,0,0,1.37-.56Z"/></g></svg>