<?xml version="1.0" encoding="utf-8"?>
<!-- Generator: Adobe Illustrator 17.0.0, SVG Export Plug-In . SVG Version: 6.00 Build 0)  -->
<!DOCTYPE svg PUBLIC "-//W3C//DTD SVG 1.1//EN" "http://www.w3.org/Graphics/SVG/1.1/DTD/svg11.dtd">
<svg version="1.1" id="Layer_1" xmlns="http://www.w3.org/2000/svg" xmlns:xlink="http://www.w3.org/1999/xlink" x="0px" y="0px"
	 width="28.035px" height="26px" viewBox="0 0 28.035 26" enable-background="new 0 0 28.035 26" xml:space="preserve">
<g>
	<g>
		<path fill="#fcd9c5" d="M20.27,6.031c0.788,0,1.427-0.622,1.427-1.389V1.389C21.697,0.622,21.058,0,20.27,0
			c-0.788,0-1.427,0.622-1.427,1.389v3.252C18.842,5.409,19.481,6.031,20.27,6.031z M16.159,8.699c0.788,0,1.427-0.622,1.427-1.39
			V4.057c0-0.767-0.639-1.39-1.427-1.39c-0.788,0-1.427,0.622-1.427,1.39v3.252C14.731,8.077,15.37,8.699,16.159,8.699z
			 M26.608,12.131h-1.142v-0.529c0-0.767-0.639-1.39-1.427-1.39s-1.427,0.622-1.427,1.39v8.588c0,1.093-0.363,1.572-0.636,1.838
			c-1.242,1.206-4.461,1.199-7.302,1.193c-0.438-0.001-0.872-0.001-1.309,0c-2.84,0.006-6.06,0.013-7.302-1.193
			c-0.273-0.265-0.636-0.745-0.636-1.838v-7.615H20.27c0.788,0,1.427-0.622,1.427-1.389s-0.639-1.39-1.427-1.39H3.997
			c-0.788,0-1.427,0.622-1.427,1.39c0,0.073,0.011,0.144,0.022,0.214c-0.01,0.066-0.021,0.133-0.021,0.202v0.529H1.427
			C0.639,12.131,0,12.753,0,13.52c0,0.767,0.639,1.389,1.427,1.389h1.143v5.28c0,1.574,0.496,2.854,1.475,3.805
			C6.126,26.015,9.809,26.007,13.37,26c0.433-0.001,0.863-0.001,1.296,0C14.888,26,15.109,26,15.331,26
			c3.348,0,6.708-0.111,8.66-2.006c0.979-0.951,1.475-2.231,1.475-3.805v-5.28h1.142c0.788,0,1.427-0.622,1.427-1.389
			C28.035,12.753,27.396,12.131,26.608,12.131z"/>
	</g>
</g>
</svg>
