<svg id="Слой_1" data-name="Слой 1" xmlns="http://www.w3.org/2000/svg" viewBox="0 0 28.22 25.74"><defs><style>.cls-1{fill:#fff;}</style></defs><title>1</title><path class="cls-1" d="M14.11,8.63a4.23,4.23,0,1,1-4.23,4.23A4.23,4.23,0,0,1,14.11,8.63Z"/><path class="cls-1" d="M12.63,25.74c-4.85,0-8.69-1.6-10.52-4.39C-2.39,14.52.89,7,6.45,3.17l.78-.54-.78-.3.18-.12A15,15,0,0,1,14.43,0,14.13,14.13,0,0,1,26.27,6.31a11.35,11.35,0,0,1,1.58,9.19A13.38,13.38,0,0,1,21,23.9,19,19,0,0,1,12.63,25.74ZM9.13,2.28C3.63,5.37,1,11,2.5,16.62A11.23,11.23,0,0,0,13.75,25a15.93,15.93,0,0,0,3-.29C24.23,23.33,26.43,17.7,26,12.9c-.57-6-5.3-12.55-12-12.55a11,11,0,0,0-4.54,1l-1,.44.79.38Z"/></svg>