<?xml version="1.0" encoding="utf-8"?>
<!-- Generator: Adobe Illustrator 17.0.0, SVG Export Plug-In . SVG Version: 6.00 Build 0)  -->
<!DOCTYPE svg PUBLIC "-//W3C//DTD SVG 1.1//EN" "http://www.w3.org/Graphics/SVG/1.1/DTD/svg11.dtd">
<svg version="1.1" id="Layer_1" xmlns="http://www.w3.org/2000/svg" xmlns:xlink="http://www.w3.org/1999/xlink" x="0px" y="0px"
	 width="28.474px" height="54.646px" viewBox="0 0 28.474 54.646" enable-background="new 0 0 28.474 54.646" xml:space="preserve">
<path fill="#FFFFFF" d="M12.748,25.978c-4.895,0-8.77-1.615-10.617-4.431C-2.411,14.654,0.899,7.065,6.511,3.2l0.787-0.545
	L6.511,2.352l0.182-0.121c2.37-1.452,5.093-2.224,7.872-2.23c4.801-0.024,9.292,2.369,11.95,6.368
	c1.836,2.72,2.416,6.098,1.595,9.275c-1.005,3.675-3.516,6.754-6.913,8.478C18.558,25.375,15.668,26.011,12.748,25.978z
	 M9.216,2.301C3.665,5.42,1.01,11.102,2.524,16.774c1.342,5.127,6.057,8.64,11.354,8.458c1.016-0.002,2.03-0.1,3.028-0.293
	c7.549-1.393,9.77-7.075,9.336-11.919C25.666,6.964,20.893,0.353,14.131,0.353c-1.582,0.006-3.144,0.35-4.582,1.009L8.539,1.807
	L9.337,2.19L9.216,2.301z"/>
<path fill="#FFFFFF" d="M12.748,54.645c-4.895,0-8.77-1.615-10.617-4.431c-4.542-6.893-1.231-14.483,4.38-18.348l0.787-0.545
	l-0.787-0.303l0.182-0.121c2.37-1.452,5.093-2.224,7.872-2.23c4.801-0.024,9.292,2.369,11.95,6.368
	c1.836,2.72,2.416,6.098,1.595,9.275c-1.005,3.675-3.516,6.754-6.913,8.478C18.558,54.042,15.668,54.677,12.748,54.645z
	 M9.216,30.968c-5.551,3.119-8.205,8.801-6.691,14.473c1.342,5.127,6.057,8.64,11.354,8.458c1.016-0.002,2.03-0.1,3.028-0.293
	c7.549-1.393,9.77-7.075,9.336-11.919c-0.575-6.055-5.349-12.666-12.111-12.666c-1.582,0.006-3.144,0.35-4.582,1.009l-1.009,0.444
	l0.797,0.384L9.216,30.968z"/>
<circle fill="#FFFFFF" cx="13.861" cy="42.07" r="4.3"/>
</svg>
