<?xml version="1.0" encoding="utf-8"?>
<!-- Generator: Adobe Illustrator 17.0.0, SVG Export Plug-In . SVG Version: 6.00 Build 0)  -->
<!DOCTYPE svg PUBLIC "-//W3C//DTD SVG 1.1//EN" "http://www.w3.org/Graphics/SVG/1.1/DTD/svg11.dtd">
<svg version="1.1" id="Layer_1" xmlns="http://www.w3.org/2000/svg" xmlns:xlink="http://www.w3.org/1999/xlink" x="0px" y="0px"
	 width="61px" height="118px" viewBox="0 0 61 118" enable-background="new 0 0 61 118" xml:space="preserve">
<path opacity="0.8" fill="#FFFFFF" d="M14.886,0h31.228c8.284,0,15,6.716,15,15v29.249c0,8.284-6.716,15-15,15H14.886
	c-8.284,0-15-6.716-15-15V15C-0.114,6.716,6.602,0,14.886,0z"/>
<g>
	<g>
		<path fill="#F15A29" d="M31.359,18.407c-0.723-0.864-2.352-0.398-2.572,0.672c-0.526,2.561-4.363,7.121-6.304,8.891
			c-1.46,1.331,0.721,3.482,2.177,2.155c1.292-1.178,3.167-3.294,4.676-5.462c0.064,9.267-0.02,9.401-0.029,18.669
			c-0.002,1.963,3.04,1.963,3.042,0c0.008-9.362,0.095-9.59,0.026-18.952c1.576,1.883,3.151,3.766,4.726,5.65
			c1.265,1.512,3.432-0.654,2.177-2.155C36.639,24.718,33.999,21.562,31.359,18.407z M43.75,13.249
			c-8.976,1.541-18.207-1.925-27.315,0c-1.919,0.405-1.105,3.34,0.809,2.936c9.08-1.919,18.311,1.546,27.314,0
			C46.489,15.853,45.668,12.92,43.75,13.249z"/>
	</g>
</g>
<path fill="#F15A29" d="M14.886,59.249h31.228c8.284,0,15,6.716,15,15v29.249c0,8.284-6.716,15-15,15H14.886
	c-8.284,0-15-6.716-15-15V74.249C-0.114,65.964,6.602,59.249,14.886,59.249z"/>
<g>
	<g>
		<path fill="#FFFFFF" d="M31.359,77.655c-0.723-0.864-2.352-0.398-2.572,0.673c-0.526,2.561-4.363,7.121-6.304,8.891
			c-1.46,1.331,0.721,3.482,2.177,2.155c1.292-1.178,3.167-3.294,4.676-5.462c0.064,9.267-0.02,9.401-0.029,18.669
			c-0.002,1.963,3.04,1.963,3.042,0c0.008-9.362,0.095-9.59,0.026-18.952c1.576,1.883,3.151,3.766,4.726,5.65
			c1.265,1.512,3.431-0.654,2.177-2.155C36.639,83.967,33.999,80.811,31.359,77.655z M43.75,72.498
			c-8.976,1.541-18.207-1.925-27.315,0c-1.919,0.405-1.105,3.34,0.809,2.936c9.08-1.919,18.311,1.546,27.315,0
			C46.489,75.102,45.668,72.168,43.75,72.498z"/>
	</g>
</g>
</svg>
