<svg id="Слой_1" data-name="Слой 1" xmlns="http://www.w3.org/2000/svg" viewBox="0 0 29.26 29.29"><defs><style>.cls-1{fill:#fff;}</style></defs><title>1</title><path class="cls-1" d="M29.26,4.67a4.79,4.79,0,0,0-.43-1.78A4.91,4.91,0,0,0,25.21.08L24.9,0l-.15,0h-.64l-1,0L21.31.07c-1.21,0-2.37.1-3.47.15L14.7.39,11.95.52,9.61.61C8.19.65,7.09.66,6.33.66H4.87a2.44,2.44,0,0,0-.37,0l-.24,0L4,.82a4.45,4.45,0,0,0-2.64,2,4.9,4.9,0,0,0-.27.49,4.85,4.85,0,0,0-.21.56c0,.1-.06.2-.09.3l-.06.32a2.55,2.55,0,0,0,0,.32v.16s0,0,0,.09V5.1c0,.85-.08,1.77-.13,2.75-.1,2-.24,4.19-.34,6.61S0,19.5,0,22.27v2.16a5.15,5.15,0,0,0,.23,1.28,5.39,5.39,0,0,0,.24.61l.15.3.17.28a5.46,5.46,0,0,0,.39.54,5.6,5.6,0,0,0,.46.48,5.23,5.23,0,0,0,1.09.78A5.11,5.11,0,0,0,4,29.16a5.82,5.82,0,0,0,.71.11h.61l9.33-.13,2.39,0L19.46,29l4.83-.17a5,5,0,0,0,1.31-.23,4.7,4.7,0,0,0,2.83-2.56,4.3,4.3,0,0,0,.35-1.24,4.51,4.51,0,0,0,0-.62c0-.23,0-.41,0-.61l0-2.39c0-3.18.07-6.3.19-9.33l.18-4.46.07-2.16V4.67Zm-1,18.92c0,.19,0,.41,0,.59a3.94,3.94,0,0,1-.06.58,4.13,4.13,0,0,1-.13.54c0,.09-.07.17-.1.26a1.64,1.64,0,0,1-.11.25,3.9,3.9,0,0,1-1.49,1.6,3.78,3.78,0,0,1-1,.41,4.13,4.13,0,0,1-1.08.11l-4.83-.17-2.41-.07-2.39,0-9.33-.13H5.1l-.28,0-.2,0-.2,0-.21-.06L4,27.28a3.28,3.28,0,0,1-1.65-1.35l-.11-.18-.09-.19A3.53,3.53,0,0,1,2,25.16a3.47,3.47,0,0,1-.15-.83v-.48q0-.27,0-.53v-1c0-2.77-.07-5.4-.18-7.82s-.23-4.64-.34-6.61c-.05-1-.1-1.9-.13-2.75v-.3a2.23,2.23,0,0,1,0-.3l0-.28c0-.09,0-.18.06-.28a4.48,4.48,0,0,1,.16-.52,4.64,4.64,0,0,1,.22-.47A4,4,0,0,1,4,1L4.3.93l.22,0a2.32,2.32,0,0,1,.35,0l.29,0H6.33c.76,0,1.87,0,3.28.06L11.95,1l2.75.13,3.13.17c1.1,0,2.26.11,3.47.15l1.85.05,1,0h.57l.09,0,.18,0a3.62,3.62,0,0,1,2.53,1.95,3.52,3.52,0,0,1,.29.81,3.63,3.63,0,0,1,.06.43l0,.22v.26l.07,2.16.18,4.46c.12,3,.21,6.15.19,9.33ZM24.14,10.14c-.14-.39-1-.28-1-.28l-2.85,0a.65.65,0,0,0-.37.06.79.79,0,0,0-.25.31,16.52,16.52,0,0,1-1.05,2.22c-1.27,2.15-1.77,2.27-2,2.13-.48-.31-.36-1.25-.36-1.92,0-2.08.32-3-.62-3.18a4.87,4.87,0,0,0-1.33-.13A6.13,6.13,0,0,0,12,9.6c-.32.16-.57.51-.42.53a1.28,1.28,0,0,1,.84.42,2.74,2.74,0,0,1,.28,1.29s.17,2.45-.39,2.76c-.38.21-.91-.22-2-2.17a18.17,18.17,0,0,1-1-2.1A.84.84,0,0,0,9,10a1.17,1.17,0,0,0-.44-.18l-2.7,0s-.41,0-.55.19,0,.48,0,.48,2.12,5,4.51,7.45a6.49,6.49,0,0,0,4.69,2.14h1.13a1,1,0,0,0,.52-.23.83.83,0,0,0,.16-.5s0-1.52.68-1.74,1.59,1.47,2.53,2.12a1.79,1.79,0,0,0,1.26.38l2.53,0S24.62,20,24,19a8.45,8.45,0,0,0-1.88-2.17c-1.58-1.47-1.37-1.23.54-3.78C23.82,11.49,24.28,10.54,24.14,10.14Z"/></svg>