<?xml version="1.0" standalone="no"?>
<!DOCTYPE svg PUBLIC "-//W3C//DTD SVG 20010904//EN"
 "http://www.w3.org/TR/2001/REC-SVG-20010904/DTD/svg10.dtd">
<svg version="1.0" xmlns="http://www.w3.org/2000/svg"
 width="700.000000pt" height="700.000000pt" viewBox="0 0 700.000000 700.000000"
 preserveAspectRatio="xMidYMid meet">
<metadata>
Created by potrace 1.11, written by Peter Selinger 2001-2013
</metadata>
<g transform="translate(0.000000,700.000000) scale(0.100000,-0.100000)"
fill="#000000" stroke="none">
<path d="M5060 6993 c-150 -19 -314 -55 -375 -83 -11 -5 -50 -22 -88 -39 -154
-68 -314 -199 -407 -334 -22 -31 -40 -59 -40 -62 0 -2 -11 -29 -25 -59 -44
-97 -58 -171 -58 -301 1 -100 5 -135 27 -210 47 -156 151 -309 274 -398 32
-24 80 -83 151 -183 256 -366 295 -487 267 -839 -4 -55 -9 -129 -12 -165 -9
-134 -15 -176 -35 -217 -43 -89 -124 -134 -359 -203 -80 -23 -171 -55 -202
-72 -62 -33 -127 -91 -155 -139 -19 -32 -15 -31 -98 -13 -11 2 -32 5 -48 6
-15 1 -26 5 -25 9 2 4 37 33 79 66 193 153 333 328 408 510 50 121 77 293 54
338 -6 11 -19 38 -29 60 -11 22 -48 69 -84 105 -135 135 -361 218 -750 274
-162 23 -492 24 -611 1 -13 -3 -42 -7 -64 -10 -115 -13 -296 -57 -474 -114
l-124 -40 -43 48 c-95 106 -233 115 -399 28 -65 -34 -77 -45 -109 -91 -34 -51
-34 -98 3 -170 l28 -57 -48 -24 c-90 -46 -364 -219 -427 -270 -200 -161 -310
-271 -423 -421 -88 -117 -215 -383 -236 -493 -2 -13 -8 -31 -12 -40 -5 -9 -9
-20 -9 -26 -1 -5 -4 -32 -8 -60 -19 -138 -1 -248 52 -322 16 -23 16 -23 -32
-24 -259 -4 -457 -77 -542 -201 -35 -52 -45 -86 -47 -158 -4 -123 55 -246 157
-331 78 -65 231 -136 333 -154 17 -3 44 -8 60 -12 17 -4 98 -8 180 -8 114 0
166 5 218 19 38 10 70 16 72 15 3 -4 8 -45 20 -159 10 -87 54 -371 60 -380 2
-3 6 -25 10 -49 3 -24 10 -54 15 -67 5 -13 7 -24 5 -24 -2 0 0 -11 5 -25 5
-14 12 -36 14 -48 15 -82 93 -323 137 -425 173 -401 353 -614 645 -761 141
-71 376 -140 529 -157 33 -3 62 -7 65 -9 31 -19 604 -26 900 -11 302 15 462
24 515 31 17 2 59 7 95 10 59 5 139 16 230 31 75 12 248 58 325 86 414 151
647 417 769 878 22 81 32 134 61 310 3 14 7 56 11 95 3 38 8 86 10 105 9 91
17 430 17 656 l-2 251 127 -1 c159 -1 242 8 363 38 240 60 402 166 468 305 23
49 26 69 26 156 0 93 -2 105 -33 167 -76 154 -238 214 -603 223 -163 4 -306
-22 -408 -74 -45 -24 -42 -26 -60 45 -12 45 -32 68 -71 79 -14 4 -55 21 -91
38 l-67 31 69 35 c86 45 177 124 229 201 73 108 89 168 105 415 17 252 38 336
97 392 57 53 111 64 278 57 431 -17 447 -16 604 59 232 111 449 383 482 607 3
19 9 50 14 68 16 63 3 279 -23 382 -134 515 -570 973 -1136 1191 -68 26 -193
64 -246 75 -11 2 -31 6 -45 9 -14 2 -36 7 -50 10 -14 3 -43 7 -65 11 -45 6
-326 12 -365 7z m327 -187 c17 -5 36 -8 118 -22 50 -8 206 -55 285 -86 235
-92 430 -219 606 -393 161 -159 268 -314 340 -490 94 -229 90 -491 -11 -704
-90 -190 -241 -314 -450 -372 -84 -23 -74 -23 -470 -16 -77 1 -159 -1 -182 -5
-104 -18 -223 -106 -264 -196 -37 -81 -39 -114 -25 -405 12 -258 -110 -405
-409 -492 -96 -28 -187 -35 -330 -25 -71 5 -138 1 -202 -14 -41 -9 -87 -39
-139 -90 -71 -72 -98 -126 -99 -201 0 -67 13 -97 103 -244 29 -46 52 -89 52
-95 0 -9 -125 -47 -150 -46 -3 0 -5 37 -4 83 1 45 -5 132 -12 192 -28 219 -22
336 21 401 55 85 178 144 370 178 17 3 41 8 54 11 127 25 223 94 276 197 34
65 43 112 60 293 2 28 11 83 19 122 9 40 18 87 21 105 3 18 8 41 11 50 12 40
11 220 -3 297 -41 240 -168 458 -403 691 -74 74 -146 151 -160 170 -13 19 -27
37 -30 40 -15 13 -71 133 -91 195 -18 56 -23 92 -23 175 1 123 11 166 66 277
106 216 346 364 674 417 76 12 344 14 381 2z m-1988 -1941 c69 -3 127 -8 130
-10 4 -2 29 -6 56 -9 106 -12 300 -58 410 -99 101 -37 206 -111 245 -174 23
-35 25 -26 -36 -161 -174 -383 -577 -702 -1179 -932 -212 -81 -560 -191 -679
-214 -12 -3 -79 -18 -151 -35 -71 -16 -146 -33 -165 -36 -19 -3 -53 -10 -75
-15 -22 -5 -96 -18 -165 -29 -122 -19 -158 -24 -250 -36 -25 -3 -61 -7 -80
-10 -74 -10 -118 -14 -200 -21 -47 -4 -101 -8 -120 -10 -19 -1 -97 -6 -173 -9
-154 -8 -177 -1 -201 57 -36 86 40 358 159 568 122 216 331 421 625 612 58 38
114 75 125 83 10 8 25 15 32 15 7 0 13 5 13 10 0 6 4 10 9 10 5 0 45 20 90 45
78 43 83 45 110 30 104 -53 199 -59 281 -17 63 31 76 52 85 142 4 36 10 68 13
72 12 11 254 87 362 112 109 26 132 31 209 42 25 4 55 8 66 11 11 2 67 6 125
9 58 4 106 7 107 8 3 3 33 1 222 -9z m545 -1356 c4 -3 8 -53 10 -110 3 -57 7
-117 9 -134 24 -147 27 -295 8 -362 -6 -24 -15 -42 -19 -41 -6 2 -63 -6 -120
-16 -10 -2 -44 -7 -77 -11 -32 -4 -66 -8 -75 -10 -8 -2 -49 -6 -90 -10 -41 -4
-88 -9 -105 -11 -16 -1 -68 -5 -115 -9 -47 -4 -96 -8 -110 -11 -105 -17 -604
-23 -810 -9 -152 9 -311 23 -365 30 -16 3 -82 11 -145 20 -92 13 -272 43 -360
60 -8 2 -36 7 -62 10 -55 9 -56 20 -1 23 52 4 264 34 378 54 33 5 71 12 85 14
75 13 286 58 355 75 44 11 87 22 95 24 187 41 606 181 805 268 28 12 104 48
170 81 76 37 135 60 160 61 56 3 179 17 183 20 6 5 191 0 196 -6z m601 -114
c176 -11 294 -27 390 -52 70 -18 85 -21 103 -22 29 -2 6 -24 -94 -90 -167
-111 -480 -254 -495 -227 -12 20 -88 255 -95 291 -3 19 -4 46 0 59 6 25 61 58
86 51 8 -2 56 -6 105 -10z m646 -242 c0 -16 2 -41 3 -58 2 -16 6 -68 10 -115
4 -47 9 -101 11 -120 2 -19 7 -71 10 -115 4 -44 8 -96 10 -115 2 -19 6 -87 10
-150 4 -63 8 -144 11 -180 11 -165 4 -600 -12 -725 -2 -16 -6 -55 -9 -85 -64
-580 -253 -929 -590 -1090 -105 -50 -311 -106 -460 -125 -27 -3 -61 -8 -75
-10 -62 -9 -121 -15 -190 -20 -41 -3 -97 -8 -125 -10 -27 -2 -120 -7 -205 -10
-85 -4 -191 -8 -235 -10 -126 -6 -544 -6 -610 -1 -126 12 -187 17 -203 20 -9
2 -39 7 -65 10 -347 51 -643 213 -815 448 -115 156 -237 452 -321 778 -16 63
-32 129 -34 145 -3 17 -14 75 -25 130 -11 55 -23 125 -27 155 -7 53 -9 66 -19
120 -3 14 -8 54 -12 90 -3 36 -7 76 -9 90 -2 14 -6 59 -10 100 -3 41 -8 91
-10 110 -4 31 -8 103 -20 323 -1 31 1 57 5 57 4 0 65 -16 134 -35 124 -34 378
-88 466 -100 25 -3 56 -8 70 -10 57 -10 82 -14 320 -40 190 -20 739 -28 965
-12 188 12 238 16 290 22 28 3 73 8 100 11 150 16 450 56 580 79 113 19 293
64 425 106 238 75 447 188 590 318 30 28 58 50 63 51 4 0 7 -12 8 -27z m769
-137 c19 -8 25 -63 8 -83 -30 -36 -159 -85 -276 -103 -70 -12 -249 -16 -258
-7 -4 3 -8 32 -11 64 l-5 59 98 28 c55 15 131 33 169 41 69 13 245 14 275 1z
m-5041 -400 c40 -14 75 -26 77 -28 2 -2 5 -34 8 -70 l4 -67 -31 -10 c-163 -51
-327 -61 -409 -26 -62 27 -108 73 -108 108 0 40 28 84 67 102 80 38 266 34
392 -9z"/>
</g>
</svg>
